%
M48
M72
T01C0.01575
T02C0.01969
T03C0.03150
T04C0.03200
T05C0.04000
T06C0.04331
%
T01
X35606Y139232
X31787Y142933
X26827Y137795
X11000Y122047
T02
X115606Y9882
X104465Y8957
X100783Y23386
X94091Y23386
X93008Y8406
X65705Y62087
X99878Y87165
X103303Y108720
X91846Y126496
X82004Y108602
X65035Y108937
X50154Y108622
X28894Y108720
X17693Y130157
X32516Y154350
X63382Y161083
T03
X75705Y8937
X65705Y8937
X55705Y8937
T04
X60705Y140217
X70705Y140217
T05
X84209Y148681
X94209Y148681
X104209Y148681
X114209Y148681
T06
X65705Y125059
M30
