G75*
%MOIN*%
%OFA0B0*%
%FSLAX25Y25*%
%IPPOS*%
%LPD*%
%AMOC8*
5,1,8,0,0,1.08239X$1,22.5*
%
%ADD10C,0.00394*%
%ADD11C,0.00000*%
%ADD12R,0.06496X0.01575*%
%ADD13R,0.04331X0.03937*%
%ADD14R,0.04252X0.04134*%
%ADD15R,0.04134X0.04252*%
%ADD16R,0.03937X0.04331*%
%ADD17R,0.07874X0.06299*%
%ADD18R,0.05512X0.03937*%
%ADD19OC8,0.05200*%
%ADD20R,0.06299X0.05118*%
%ADD21R,0.15748X0.27559*%
%ADD22C,0.64961*%
%ADD23C,0.05150*%
%ADD24C,0.06000*%
%ADD25C,0.01600*%
%ADD26C,0.02775*%
%ADD27C,0.01200*%
%ADD28C,0.03169*%
%ADD29C,0.04000*%
%ADD30C,0.02400*%
D10*
X0004091Y0003012D02*
X0127319Y0003012D01*
X0127319Y0167185D01*
X0004091Y0167185D01*
X0004091Y0003012D01*
D11*
X0063540Y0125059D02*
X0063542Y0125152D01*
X0063548Y0125244D01*
X0063558Y0125336D01*
X0063572Y0125427D01*
X0063589Y0125518D01*
X0063611Y0125608D01*
X0063636Y0125697D01*
X0063665Y0125785D01*
X0063698Y0125871D01*
X0063735Y0125956D01*
X0063775Y0126040D01*
X0063819Y0126121D01*
X0063866Y0126201D01*
X0063916Y0126279D01*
X0063970Y0126354D01*
X0064027Y0126427D01*
X0064087Y0126497D01*
X0064150Y0126565D01*
X0064216Y0126630D01*
X0064284Y0126692D01*
X0064355Y0126752D01*
X0064429Y0126808D01*
X0064505Y0126861D01*
X0064583Y0126910D01*
X0064663Y0126957D01*
X0064745Y0126999D01*
X0064829Y0127039D01*
X0064914Y0127074D01*
X0065001Y0127106D01*
X0065089Y0127135D01*
X0065178Y0127159D01*
X0065268Y0127180D01*
X0065359Y0127196D01*
X0065451Y0127209D01*
X0065543Y0127218D01*
X0065636Y0127223D01*
X0065728Y0127224D01*
X0065821Y0127221D01*
X0065913Y0127214D01*
X0066005Y0127203D01*
X0066096Y0127188D01*
X0066187Y0127170D01*
X0066277Y0127147D01*
X0066365Y0127121D01*
X0066453Y0127091D01*
X0066539Y0127057D01*
X0066623Y0127020D01*
X0066706Y0126978D01*
X0066787Y0126934D01*
X0066867Y0126886D01*
X0066944Y0126835D01*
X0067018Y0126780D01*
X0067091Y0126722D01*
X0067161Y0126662D01*
X0067228Y0126598D01*
X0067292Y0126532D01*
X0067354Y0126462D01*
X0067412Y0126391D01*
X0067467Y0126317D01*
X0067519Y0126240D01*
X0067568Y0126161D01*
X0067614Y0126081D01*
X0067656Y0125998D01*
X0067694Y0125914D01*
X0067729Y0125828D01*
X0067760Y0125741D01*
X0067787Y0125653D01*
X0067810Y0125563D01*
X0067830Y0125473D01*
X0067846Y0125382D01*
X0067858Y0125290D01*
X0067866Y0125198D01*
X0067870Y0125105D01*
X0067870Y0125013D01*
X0067866Y0124920D01*
X0067858Y0124828D01*
X0067846Y0124736D01*
X0067830Y0124645D01*
X0067810Y0124555D01*
X0067787Y0124465D01*
X0067760Y0124377D01*
X0067729Y0124290D01*
X0067694Y0124204D01*
X0067656Y0124120D01*
X0067614Y0124037D01*
X0067568Y0123957D01*
X0067519Y0123878D01*
X0067467Y0123801D01*
X0067412Y0123727D01*
X0067354Y0123656D01*
X0067292Y0123586D01*
X0067228Y0123520D01*
X0067161Y0123456D01*
X0067091Y0123396D01*
X0067018Y0123338D01*
X0066944Y0123283D01*
X0066867Y0123232D01*
X0066788Y0123184D01*
X0066706Y0123140D01*
X0066623Y0123098D01*
X0066539Y0123061D01*
X0066453Y0123027D01*
X0066365Y0122997D01*
X0066277Y0122971D01*
X0066187Y0122948D01*
X0066096Y0122930D01*
X0066005Y0122915D01*
X0065913Y0122904D01*
X0065821Y0122897D01*
X0065728Y0122894D01*
X0065636Y0122895D01*
X0065543Y0122900D01*
X0065451Y0122909D01*
X0065359Y0122922D01*
X0065268Y0122938D01*
X0065178Y0122959D01*
X0065089Y0122983D01*
X0065001Y0123012D01*
X0064914Y0123044D01*
X0064829Y0123079D01*
X0064745Y0123119D01*
X0064663Y0123161D01*
X0064583Y0123208D01*
X0064505Y0123257D01*
X0064429Y0123310D01*
X0064355Y0123366D01*
X0064284Y0123426D01*
X0064216Y0123488D01*
X0064150Y0123553D01*
X0064087Y0123621D01*
X0064027Y0123691D01*
X0063970Y0123764D01*
X0063916Y0123839D01*
X0063866Y0123917D01*
X0063819Y0123997D01*
X0063775Y0124078D01*
X0063735Y0124162D01*
X0063698Y0124247D01*
X0063665Y0124333D01*
X0063636Y0124421D01*
X0063611Y0124510D01*
X0063589Y0124600D01*
X0063572Y0124691D01*
X0063558Y0124782D01*
X0063548Y0124874D01*
X0063542Y0124966D01*
X0063540Y0125059D01*
D12*
X0044406Y0135256D03*
X0044406Y0137815D03*
X0044406Y0140374D03*
X0044406Y0142933D03*
X0044406Y0145492D03*
X0044406Y0148051D03*
X0044406Y0150610D03*
X0044406Y0153169D03*
X0044406Y0155728D03*
X0044406Y0158287D03*
X0020390Y0158287D03*
X0020390Y0155728D03*
X0020390Y0153169D03*
X0020390Y0150610D03*
X0020390Y0148051D03*
X0020390Y0145492D03*
X0020390Y0142933D03*
X0020390Y0140374D03*
X0020390Y0137815D03*
X0020390Y0135256D03*
D13*
X0024150Y0128799D03*
X0024150Y0122106D03*
X0011000Y0122047D03*
X0011000Y0128740D03*
X0053638Y0136358D03*
X0053638Y0143051D03*
X0107083Y0097028D03*
X0107083Y0090335D03*
D14*
X0054937Y0153169D03*
X0054937Y0160059D03*
X0031787Y0128760D03*
X0031787Y0121870D03*
X0104465Y0015846D03*
X0104465Y0008957D03*
D15*
X0100508Y0097028D03*
X0093618Y0097028D03*
X0036650Y0097106D03*
X0029760Y0097106D03*
D16*
X0029366Y0090276D03*
X0022673Y0090276D03*
X0094091Y0023386D03*
X0100783Y0023386D03*
D17*
X0103303Y0108720D03*
X0082043Y0108720D03*
X0050154Y0108720D03*
X0028894Y0108720D03*
D18*
X0093008Y0015886D03*
X0093008Y0008406D03*
X0084346Y0012146D03*
D19*
X0070705Y0140217D03*
X0060705Y0140217D03*
D20*
X0063382Y0153209D03*
X0063382Y0161083D03*
X0115606Y0017756D03*
X0115606Y0009882D03*
D21*
X0114917Y0062067D03*
X0016492Y0062067D03*
D22*
X0065705Y0062067D03*
D23*
X0065705Y0008937D03*
X0075705Y0008937D03*
X0055705Y0008937D03*
D24*
X0084209Y0145681D02*
X0084209Y0151681D01*
X0094209Y0151681D02*
X0094209Y0145681D01*
X0104209Y0145681D02*
X0104209Y0151681D01*
X0114209Y0151681D02*
X0114209Y0145681D01*
D25*
X0103303Y0108720D02*
X0100508Y0105925D01*
X0100508Y0097028D01*
X0107083Y0097028D01*
X0107083Y0090335D02*
X0113933Y0090335D01*
X0114209Y0090059D01*
X0070705Y0140217D02*
X0062870Y0148051D01*
X0044406Y0148051D01*
X0044406Y0145492D02*
X0051197Y0145492D01*
X0053638Y0143051D01*
X0053638Y0136358D02*
X0056846Y0136358D01*
X0060705Y0140217D01*
X0054937Y0153169D02*
X0044406Y0153169D01*
X0044406Y0150610D02*
X0037358Y0150610D01*
X0037310Y0150608D01*
X0037263Y0150602D01*
X0037216Y0150593D01*
X0037169Y0150580D01*
X0037125Y0150564D01*
X0037081Y0150544D01*
X0037039Y0150520D01*
X0036999Y0150494D01*
X0036962Y0150464D01*
X0036927Y0150431D01*
X0036894Y0150396D01*
X0036864Y0150359D01*
X0036838Y0150319D01*
X0036814Y0150277D01*
X0036794Y0150233D01*
X0036778Y0150189D01*
X0036765Y0150142D01*
X0036756Y0150095D01*
X0036750Y0150048D01*
X0036748Y0150000D01*
X0031787Y0142933D02*
X0031787Y0128760D01*
X0031748Y0128799D01*
X0024150Y0128799D01*
X0020429Y0135217D02*
X0020390Y0135256D01*
X0017693Y0132559D01*
X0017693Y0130157D01*
X0020409Y0137795D02*
X0026827Y0137795D01*
X0020409Y0137795D02*
X0020390Y0137815D01*
X0020390Y0153169D02*
X0014583Y0153169D01*
X0044406Y0135256D02*
X0044406Y0129567D01*
X0065035Y0108937D01*
X0029760Y0097106D02*
X0028894Y0097972D01*
X0028894Y0108720D01*
D26*
X0011000Y0122047D03*
X0026827Y0137795D03*
X0031787Y0142933D03*
X0035606Y0139232D03*
D27*
X0036748Y0140374D01*
X0044406Y0140374D01*
X0044406Y0142933D02*
X0031787Y0142933D01*
X0033887Y0145314D02*
X0033582Y0145619D01*
X0032418Y0146102D01*
X0031157Y0146102D01*
X0029993Y0145619D01*
X0029101Y0144728D01*
X0028619Y0143563D01*
X0028619Y0142303D01*
X0029101Y0141138D01*
X0029206Y0141033D01*
X0029206Y0139897D01*
X0028622Y0140481D01*
X0027457Y0140964D01*
X0026197Y0140964D01*
X0025419Y0140642D01*
X0025419Y0159813D01*
X0024376Y0160856D01*
X0016404Y0160856D01*
X0015361Y0159813D01*
X0015361Y0156074D01*
X0015176Y0156150D01*
X0013990Y0156150D01*
X0012894Y0155697D01*
X0009311Y0152114D01*
X0008473Y0151275D01*
X0008028Y0150200D01*
X0008028Y0163248D01*
X0051670Y0163248D01*
X0051531Y0163108D01*
X0051320Y0162744D01*
X0051211Y0162337D01*
X0051211Y0160493D01*
X0054503Y0160493D01*
X0054503Y0159626D01*
X0051211Y0159626D01*
X0051211Y0157781D01*
X0051320Y0157375D01*
X0051531Y0157010D01*
X0051798Y0156742D01*
X0051030Y0155974D01*
X0051030Y0155750D01*
X0049435Y0155750D01*
X0049435Y0159813D01*
X0048391Y0160856D01*
X0040420Y0160856D01*
X0039376Y0159813D01*
X0039376Y0151644D01*
X0039557Y0151463D01*
X0039557Y0150610D01*
X0039557Y0149757D01*
X0039376Y0149576D01*
X0039376Y0145314D01*
X0033887Y0145314D01*
X0033545Y0145635D02*
X0039376Y0145635D01*
X0039376Y0146833D02*
X0025419Y0146833D01*
X0025419Y0145635D02*
X0030030Y0145635D01*
X0028980Y0144436D02*
X0025419Y0144436D01*
X0025419Y0143238D02*
X0028619Y0143238D01*
X0028728Y0142039D02*
X0025419Y0142039D01*
X0025419Y0140841D02*
X0025899Y0140841D01*
X0027754Y0140841D02*
X0029206Y0140841D01*
X0034368Y0136315D02*
X0034976Y0136064D01*
X0036237Y0136064D01*
X0037401Y0136546D01*
X0038292Y0137437D01*
X0038522Y0137993D01*
X0039376Y0137993D01*
X0039376Y0133731D01*
X0040420Y0132687D01*
X0041824Y0132687D01*
X0041824Y0129054D01*
X0042217Y0128105D01*
X0061670Y0108652D01*
X0061670Y0108268D01*
X0062182Y0107031D01*
X0063129Y0106084D01*
X0064366Y0105572D01*
X0065705Y0105572D01*
X0066942Y0106084D01*
X0067888Y0107031D01*
X0068401Y0108268D01*
X0068401Y0109606D01*
X0067888Y0110843D01*
X0066942Y0111790D01*
X0065705Y0112302D01*
X0065320Y0112302D01*
X0046987Y0130636D01*
X0046987Y0132687D01*
X0048391Y0132687D01*
X0049435Y0133731D01*
X0049435Y0142911D01*
X0049691Y0142911D01*
X0049691Y0140345D01*
X0050332Y0139705D01*
X0049691Y0139065D01*
X0049691Y0133652D01*
X0050735Y0132609D01*
X0056541Y0132609D01*
X0057584Y0133652D01*
X0057584Y0133870D01*
X0058309Y0134170D01*
X0059035Y0134896D01*
X0059974Y0135835D01*
X0062519Y0135835D01*
X0065086Y0138402D01*
X0065086Y0142031D01*
X0062519Y0144598D01*
X0058890Y0144598D01*
X0057584Y0143292D01*
X0057584Y0145470D01*
X0061801Y0145470D01*
X0066324Y0140947D01*
X0066324Y0138402D01*
X0068890Y0135835D01*
X0072519Y0135835D01*
X0075086Y0138402D01*
X0075086Y0142031D01*
X0072519Y0144598D01*
X0069974Y0144598D01*
X0065703Y0148869D01*
X0067269Y0148869D01*
X0067828Y0149428D01*
X0068169Y0149428D01*
X0069559Y0150003D01*
X0077251Y0157695D01*
X0108725Y0157695D01*
X0110428Y0155993D01*
X0110428Y0154661D01*
X0110155Y0154389D01*
X0109428Y0152632D01*
X0109428Y0144730D01*
X0110155Y0142973D01*
X0110428Y0142701D01*
X0110428Y0100335D01*
X0109986Y0100777D01*
X0104180Y0100777D01*
X0103825Y0100422D01*
X0103313Y0100935D01*
X0103089Y0100935D01*
X0103089Y0103790D01*
X0107978Y0103790D01*
X0109021Y0104833D01*
X0109021Y0112608D01*
X0107978Y0113651D01*
X0098628Y0113651D01*
X0097585Y0112608D01*
X0097585Y0104833D01*
X0097927Y0104491D01*
X0097927Y0100935D01*
X0097703Y0100935D01*
X0096935Y0100166D01*
X0096667Y0100434D01*
X0096303Y0100645D01*
X0095896Y0100754D01*
X0094052Y0100754D01*
X0094052Y0097461D01*
X0093185Y0097461D01*
X0093185Y0100754D01*
X0091341Y0100754D01*
X0090934Y0100645D01*
X0090569Y0100434D01*
X0090271Y0100136D01*
X0090060Y0099771D01*
X0089951Y0099364D01*
X0089951Y0097461D01*
X0093185Y0097461D01*
X0093185Y0096594D01*
X0094052Y0096594D01*
X0094052Y0093302D01*
X0095896Y0093302D01*
X0096303Y0093411D01*
X0096667Y0093621D01*
X0096935Y0093889D01*
X0097703Y0093120D01*
X0103216Y0093120D01*
X0103136Y0093041D01*
X0103136Y0087628D01*
X0104180Y0086585D01*
X0109986Y0086585D01*
X0110428Y0087027D01*
X0110428Y0077628D01*
X0106306Y0077628D01*
X0105262Y0076584D01*
X0105262Y0047550D01*
X0106306Y0046506D01*
X0111825Y0046506D01*
X0111825Y0022096D01*
X0111719Y0022096D01*
X0111160Y0021537D01*
X0105622Y0021537D01*
X0104533Y0021086D01*
X0104533Y0026289D01*
X0103490Y0027332D01*
X0098077Y0027332D01*
X0097437Y0026692D01*
X0096797Y0027332D01*
X0091384Y0027332D01*
X0090341Y0026289D01*
X0090341Y0020483D01*
X0091188Y0019635D01*
X0089514Y0019635D01*
X0088471Y0018592D01*
X0088471Y0015264D01*
X0087840Y0015895D01*
X0085175Y0015895D01*
X0085099Y0015927D01*
X0078161Y0015927D01*
X0076772Y0015351D01*
X0074625Y0013205D01*
X0073237Y0012630D01*
X0072012Y0011404D01*
X0071349Y0009803D01*
X0071349Y0008071D01*
X0071813Y0006949D01*
X0069596Y0006949D01*
X0070061Y0008071D01*
X0070061Y0009803D01*
X0069397Y0011404D01*
X0068172Y0012630D01*
X0066571Y0013293D01*
X0064838Y0013293D01*
X0063237Y0012630D01*
X0062012Y0011404D01*
X0061349Y0009803D01*
X0061349Y0008071D01*
X0061813Y0006949D01*
X0059377Y0006949D01*
X0059574Y0007334D01*
X0059777Y0007959D01*
X0059880Y0008608D01*
X0059880Y0008750D01*
X0055892Y0008750D01*
X0055892Y0009124D01*
X0059880Y0009124D01*
X0059880Y0009266D01*
X0059777Y0009915D01*
X0059574Y0010540D01*
X0059275Y0011125D01*
X0058889Y0011657D01*
X0058424Y0012121D01*
X0057893Y0012508D01*
X0057307Y0012806D01*
X0056682Y0013009D01*
X0056033Y0013112D01*
X0055892Y0013112D01*
X0055892Y0009124D01*
X0055517Y0009124D01*
X0055517Y0008750D01*
X0051530Y0008750D01*
X0051530Y0008608D01*
X0051633Y0007959D01*
X0051836Y0007334D01*
X0052032Y0006949D01*
X0008028Y0006949D01*
X0008028Y0046506D01*
X0025104Y0046506D01*
X0026147Y0047550D01*
X0026147Y0076584D01*
X0025104Y0077628D01*
X0019631Y0077628D01*
X0019631Y0086665D01*
X0019967Y0086329D01*
X0025379Y0086329D01*
X0026020Y0086969D01*
X0026660Y0086329D01*
X0032072Y0086329D01*
X0033116Y0087372D01*
X0033116Y0093179D01*
X0032830Y0093465D01*
X0033333Y0093967D01*
X0033600Y0093700D01*
X0033965Y0093489D01*
X0034372Y0093380D01*
X0036216Y0093380D01*
X0036216Y0096673D01*
X0037083Y0096673D01*
X0037083Y0097540D01*
X0036216Y0097540D01*
X0036216Y0100832D01*
X0034372Y0100832D01*
X0033965Y0100723D01*
X0033600Y0100513D01*
X0033333Y0100245D01*
X0032565Y0101013D01*
X0031475Y0101013D01*
X0031475Y0103790D01*
X0033568Y0103790D01*
X0034612Y0104833D01*
X0034612Y0112608D01*
X0033568Y0113651D01*
X0024219Y0113651D01*
X0023176Y0112608D01*
X0023176Y0104833D01*
X0024219Y0103790D01*
X0026313Y0103790D01*
X0026313Y0100371D01*
X0025912Y0099970D01*
X0025912Y0094243D01*
X0026296Y0093858D01*
X0026020Y0093582D01*
X0025379Y0094222D01*
X0019967Y0094222D01*
X0019631Y0093886D01*
X0019631Y0110714D01*
X0025838Y0116922D01*
X0026677Y0117760D01*
X0026924Y0118357D01*
X0027053Y0118357D01*
X0028096Y0119400D01*
X0028096Y0119463D01*
X0028170Y0119186D01*
X0028381Y0118821D01*
X0028679Y0118523D01*
X0029044Y0118312D01*
X0029451Y0118203D01*
X0031354Y0118203D01*
X0031354Y0121437D01*
X0032221Y0121437D01*
X0032221Y0122304D01*
X0035513Y0122304D01*
X0035513Y0124148D01*
X0035404Y0124555D01*
X0035194Y0124919D01*
X0034926Y0125187D01*
X0035694Y0125955D01*
X0035694Y0131565D01*
X0034651Y0132608D01*
X0034368Y0132608D01*
X0034368Y0136315D01*
X0034368Y0136047D02*
X0039376Y0136047D01*
X0039376Y0137245D02*
X0038100Y0137245D01*
X0039376Y0134848D02*
X0034368Y0134848D01*
X0034368Y0133650D02*
X0039458Y0133650D01*
X0041824Y0132451D02*
X0034808Y0132451D01*
X0035694Y0131253D02*
X0041824Y0131253D01*
X0041824Y0130054D02*
X0035694Y0130054D01*
X0035694Y0128855D02*
X0041906Y0128855D01*
X0042665Y0127657D02*
X0035694Y0127657D01*
X0035694Y0126458D02*
X0043864Y0126458D01*
X0045062Y0125260D02*
X0034999Y0125260D01*
X0035513Y0124061D02*
X0046261Y0124061D01*
X0047459Y0122863D02*
X0035513Y0122863D01*
X0035513Y0121437D02*
X0032221Y0121437D01*
X0032221Y0118203D01*
X0034124Y0118203D01*
X0034531Y0118312D01*
X0034896Y0118523D01*
X0035194Y0118821D01*
X0035404Y0119186D01*
X0035513Y0119592D01*
X0035513Y0121437D01*
X0035513Y0120466D02*
X0049856Y0120466D01*
X0048658Y0121664D02*
X0032221Y0121664D01*
X0032221Y0120466D02*
X0031354Y0120466D01*
X0031354Y0119267D02*
X0032221Y0119267D01*
X0035426Y0119267D02*
X0051055Y0119267D01*
X0052253Y0118069D02*
X0026805Y0118069D01*
X0025787Y0116870D02*
X0053452Y0116870D01*
X0054650Y0115672D02*
X0024589Y0115672D01*
X0023390Y0114473D02*
X0055849Y0114473D01*
X0055073Y0113150D02*
X0055371Y0112852D01*
X0055582Y0112488D01*
X0055691Y0112081D01*
X0055691Y0109320D01*
X0050754Y0109320D01*
X0050754Y0108120D01*
X0055691Y0108120D01*
X0055691Y0105360D01*
X0055582Y0104953D01*
X0055371Y0104588D01*
X0055073Y0104291D01*
X0054708Y0104080D01*
X0054301Y0103971D01*
X0050754Y0103971D01*
X0050754Y0108120D01*
X0049554Y0108120D01*
X0049554Y0103971D01*
X0046006Y0103971D01*
X0045599Y0104080D01*
X0045234Y0104291D01*
X0044936Y0104588D01*
X0044726Y0104953D01*
X0044617Y0105360D01*
X0044617Y0108120D01*
X0049553Y0108120D01*
X0049553Y0109320D01*
X0044617Y0109320D01*
X0044617Y0112081D01*
X0044726Y0112488D01*
X0044936Y0112852D01*
X0045234Y0113150D01*
X0045599Y0113361D01*
X0046006Y0113470D01*
X0049554Y0113470D01*
X0049554Y0109321D01*
X0050754Y0109321D01*
X0050754Y0113470D01*
X0054301Y0113470D01*
X0054708Y0113361D01*
X0055073Y0113150D01*
X0054857Y0113275D02*
X0057047Y0113275D01*
X0058246Y0112076D02*
X0055691Y0112076D01*
X0055691Y0110878D02*
X0059444Y0110878D01*
X0060643Y0109679D02*
X0055691Y0109679D01*
X0055691Y0107282D02*
X0062078Y0107282D01*
X0061670Y0108481D02*
X0050754Y0108481D01*
X0050754Y0109679D02*
X0049554Y0109679D01*
X0049553Y0108481D02*
X0034612Y0108481D01*
X0034612Y0109679D02*
X0044617Y0109679D01*
X0044617Y0110878D02*
X0034612Y0110878D01*
X0034612Y0112076D02*
X0044617Y0112076D01*
X0045450Y0113275D02*
X0033945Y0113275D01*
X0034612Y0107282D02*
X0044617Y0107282D01*
X0044617Y0106084D02*
X0034612Y0106084D01*
X0034612Y0104885D02*
X0044765Y0104885D01*
X0039997Y0100215D02*
X0039699Y0100513D01*
X0039334Y0100723D01*
X0038927Y0100832D01*
X0037083Y0100832D01*
X0037083Y0097540D01*
X0040317Y0097540D01*
X0040317Y0099443D01*
X0040207Y0099850D01*
X0039997Y0100215D01*
X0040068Y0100091D02*
X0090245Y0100091D01*
X0089951Y0098893D02*
X0040317Y0098893D01*
X0040317Y0097694D02*
X0089951Y0097694D01*
X0089951Y0096594D02*
X0089951Y0094691D01*
X0090060Y0094284D01*
X0090271Y0093919D01*
X0090569Y0093621D01*
X0090934Y0093411D01*
X0091341Y0093302D01*
X0093185Y0093302D01*
X0093185Y0096594D01*
X0089951Y0096594D01*
X0089951Y0096496D02*
X0040317Y0096496D01*
X0040317Y0096673D02*
X0037083Y0096673D01*
X0037083Y0093380D01*
X0038927Y0093380D01*
X0039334Y0093489D01*
X0039699Y0093700D01*
X0039997Y0093998D01*
X0040207Y0094363D01*
X0040317Y0094770D01*
X0040317Y0096673D01*
X0040317Y0095297D02*
X0058075Y0095297D01*
X0057962Y0095275D02*
X0055806Y0094697D01*
X0053693Y0093980D01*
X0051632Y0093126D01*
X0049631Y0092139D01*
X0047698Y0091023D01*
X0045843Y0089784D01*
X0044073Y0088425D01*
X0042395Y0086954D01*
X0040817Y0085376D01*
X0039346Y0083699D01*
X0037988Y0081929D01*
X0036748Y0080073D01*
X0035632Y0078141D01*
X0034646Y0076140D01*
X0033792Y0074078D01*
X0033074Y0071965D01*
X0032497Y0069810D01*
X0032062Y0067621D01*
X0031770Y0065409D01*
X0031624Y0063183D01*
X0031624Y0062667D01*
X0065105Y0062667D01*
X0065105Y0096147D01*
X0064589Y0096147D01*
X0062362Y0096001D01*
X0060150Y0095710D01*
X0057962Y0095275D01*
X0054043Y0094099D02*
X0040055Y0094099D01*
X0037083Y0094099D02*
X0036216Y0094099D01*
X0036216Y0095297D02*
X0037083Y0095297D01*
X0037083Y0096496D02*
X0036216Y0096496D01*
X0036216Y0097694D02*
X0037083Y0097694D01*
X0037083Y0098893D02*
X0036216Y0098893D01*
X0036216Y0100091D02*
X0037083Y0100091D01*
X0031475Y0101290D02*
X0097927Y0101290D01*
X0097927Y0102488D02*
X0031475Y0102488D01*
X0031475Y0103687D02*
X0097927Y0103687D01*
X0097585Y0104885D02*
X0087432Y0104885D01*
X0087471Y0104953D02*
X0087580Y0105360D01*
X0087580Y0108120D01*
X0082643Y0108120D01*
X0082643Y0103971D01*
X0086191Y0103971D01*
X0086598Y0104080D01*
X0086963Y0104291D01*
X0087261Y0104588D01*
X0087471Y0104953D01*
X0087580Y0106084D02*
X0097585Y0106084D01*
X0097585Y0107282D02*
X0087580Y0107282D01*
X0087580Y0109320D02*
X0087580Y0112081D01*
X0087471Y0112488D01*
X0087261Y0112852D01*
X0086963Y0113150D01*
X0086598Y0113361D01*
X0086191Y0113470D01*
X0082643Y0113470D01*
X0082643Y0109321D01*
X0081443Y0109321D01*
X0081443Y0113470D01*
X0077896Y0113470D01*
X0077489Y0113361D01*
X0077124Y0113150D01*
X0076826Y0112852D01*
X0076615Y0112488D01*
X0076506Y0112081D01*
X0076506Y0109320D01*
X0081443Y0109320D01*
X0081443Y0108120D01*
X0082643Y0108120D01*
X0082643Y0109320D01*
X0087580Y0109320D01*
X0087580Y0109679D02*
X0097585Y0109679D01*
X0097585Y0108481D02*
X0082643Y0108481D01*
X0082643Y0109679D02*
X0081443Y0109679D01*
X0081443Y0108481D02*
X0068401Y0108481D01*
X0068371Y0109679D02*
X0076506Y0109679D01*
X0076506Y0110878D02*
X0067854Y0110878D01*
X0066250Y0112076D02*
X0076506Y0112076D01*
X0077339Y0113275D02*
X0064348Y0113275D01*
X0063149Y0114473D02*
X0110428Y0114473D01*
X0110428Y0113275D02*
X0108354Y0113275D01*
X0109021Y0112076D02*
X0110428Y0112076D01*
X0110428Y0110878D02*
X0109021Y0110878D01*
X0109021Y0109679D02*
X0110428Y0109679D01*
X0110428Y0108481D02*
X0109021Y0108481D01*
X0109021Y0107282D02*
X0110428Y0107282D01*
X0110428Y0106084D02*
X0109021Y0106084D01*
X0109021Y0104885D02*
X0110428Y0104885D01*
X0110428Y0103687D02*
X0103089Y0103687D01*
X0103089Y0102488D02*
X0110428Y0102488D01*
X0110428Y0101290D02*
X0103089Y0101290D01*
X0103136Y0092900D02*
X0080236Y0092900D01*
X0079777Y0093126D02*
X0077716Y0093980D01*
X0075603Y0094697D01*
X0073448Y0095275D01*
X0071259Y0095710D01*
X0069047Y0096001D01*
X0066820Y0096147D01*
X0066305Y0096147D01*
X0066305Y0062667D01*
X0099785Y0062667D01*
X0099785Y0063183D01*
X0099639Y0065409D01*
X0099348Y0067621D01*
X0098913Y0069810D01*
X0098335Y0071965D01*
X0097618Y0074078D01*
X0096764Y0076140D01*
X0095777Y0078141D01*
X0094661Y0080073D01*
X0093422Y0081929D01*
X0092063Y0083699D01*
X0090592Y0085376D01*
X0089014Y0086954D01*
X0087337Y0088425D01*
X0085566Y0089784D01*
X0083711Y0091023D01*
X0081779Y0092139D01*
X0079777Y0093126D01*
X0077366Y0094099D02*
X0090167Y0094099D01*
X0089951Y0095297D02*
X0073335Y0095297D01*
X0077489Y0104080D02*
X0077896Y0103971D01*
X0081443Y0103971D01*
X0081443Y0108120D01*
X0076506Y0108120D01*
X0076506Y0105360D01*
X0076615Y0104953D01*
X0076826Y0104588D01*
X0077124Y0104291D01*
X0077489Y0104080D01*
X0076655Y0104885D02*
X0055542Y0104885D01*
X0055691Y0106084D02*
X0063130Y0106084D01*
X0066941Y0106084D02*
X0076506Y0106084D01*
X0076506Y0107282D02*
X0067993Y0107282D01*
X0061951Y0115672D02*
X0110428Y0115672D01*
X0110428Y0116870D02*
X0060752Y0116870D01*
X0059554Y0118069D02*
X0110428Y0118069D01*
X0110428Y0119267D02*
X0058355Y0119267D01*
X0057157Y0120466D02*
X0110428Y0120466D01*
X0110428Y0121664D02*
X0067822Y0121664D01*
X0067940Y0121713D02*
X0069050Y0122824D01*
X0069651Y0124274D01*
X0069651Y0125844D01*
X0069050Y0127295D01*
X0067940Y0128405D01*
X0066490Y0129005D01*
X0064920Y0129005D01*
X0063469Y0128405D01*
X0062359Y0127295D01*
X0061758Y0125844D01*
X0061758Y0124274D01*
X0062359Y0122824D01*
X0063469Y0121713D01*
X0064920Y0121113D01*
X0066490Y0121113D01*
X0067940Y0121713D01*
X0069067Y0122863D02*
X0110428Y0122863D01*
X0110428Y0124061D02*
X0069563Y0124061D01*
X0069651Y0125260D02*
X0110428Y0125260D01*
X0110428Y0126458D02*
X0069397Y0126458D01*
X0068688Y0127657D02*
X0110428Y0127657D01*
X0110428Y0128855D02*
X0066852Y0128855D01*
X0064558Y0128855D02*
X0048767Y0128855D01*
X0049966Y0127657D02*
X0062722Y0127657D01*
X0062013Y0126458D02*
X0051164Y0126458D01*
X0052363Y0125260D02*
X0061758Y0125260D01*
X0061846Y0124061D02*
X0053561Y0124061D01*
X0054760Y0122863D02*
X0062343Y0122863D01*
X0063587Y0121664D02*
X0055958Y0121664D01*
X0050754Y0113275D02*
X0049554Y0113275D01*
X0049554Y0112076D02*
X0050754Y0112076D01*
X0050754Y0110878D02*
X0049554Y0110878D01*
X0049554Y0107282D02*
X0050754Y0107282D01*
X0050754Y0106084D02*
X0049554Y0106084D01*
X0049554Y0104885D02*
X0050754Y0104885D01*
X0051174Y0092900D02*
X0033116Y0092900D01*
X0033116Y0091702D02*
X0048873Y0091702D01*
X0046920Y0090503D02*
X0033116Y0090503D01*
X0033116Y0089305D02*
X0045219Y0089305D01*
X0043709Y0088106D02*
X0033116Y0088106D01*
X0032651Y0086908D02*
X0042349Y0086908D01*
X0041150Y0085709D02*
X0019631Y0085709D01*
X0019631Y0084511D02*
X0040058Y0084511D01*
X0039049Y0083312D02*
X0019631Y0083312D01*
X0019631Y0082114D02*
X0038130Y0082114D01*
X0037311Y0080915D02*
X0019631Y0080915D01*
X0019631Y0079717D02*
X0036542Y0079717D01*
X0035850Y0078518D02*
X0019631Y0078518D01*
X0025412Y0077320D02*
X0035227Y0077320D01*
X0034638Y0076121D02*
X0026147Y0076121D01*
X0026147Y0074922D02*
X0034141Y0074922D01*
X0033671Y0073724D02*
X0026147Y0073724D01*
X0026147Y0072525D02*
X0033265Y0072525D01*
X0032903Y0071327D02*
X0026147Y0071327D01*
X0026147Y0070128D02*
X0032582Y0070128D01*
X0032322Y0068930D02*
X0026147Y0068930D01*
X0026147Y0067731D02*
X0032083Y0067731D01*
X0031918Y0066533D02*
X0026147Y0066533D01*
X0026147Y0065334D02*
X0031765Y0065334D01*
X0031687Y0064136D02*
X0026147Y0064136D01*
X0026147Y0062937D02*
X0031624Y0062937D01*
X0031624Y0061467D02*
X0031624Y0060951D01*
X0031770Y0058725D01*
X0032062Y0056512D01*
X0032497Y0054324D01*
X0033074Y0052169D01*
X0033792Y0050056D01*
X0034646Y0047994D01*
X0035632Y0045993D01*
X0036748Y0044061D01*
X0037988Y0042205D01*
X0039346Y0040435D01*
X0040817Y0038757D01*
X0042395Y0037180D01*
X0044073Y0035708D01*
X0045843Y0034350D01*
X0047698Y0033110D01*
X0049631Y0031995D01*
X0051632Y0031008D01*
X0053693Y0030154D01*
X0055806Y0029437D01*
X0057962Y0028859D01*
X0060150Y0028424D01*
X0062362Y0028133D01*
X0064589Y0027987D01*
X0065105Y0027987D01*
X0065105Y0061467D01*
X0066305Y0061467D01*
X0066305Y0062667D01*
X0065105Y0062667D01*
X0065105Y0061467D01*
X0031624Y0061467D01*
X0031651Y0060540D02*
X0026147Y0060540D01*
X0026147Y0059342D02*
X0031730Y0059342D01*
X0031847Y0058143D02*
X0026147Y0058143D01*
X0026147Y0056945D02*
X0032005Y0056945D01*
X0032214Y0055746D02*
X0026147Y0055746D01*
X0026147Y0054548D02*
X0032452Y0054548D01*
X0032758Y0053349D02*
X0026147Y0053349D01*
X0026147Y0052151D02*
X0033080Y0052151D01*
X0033487Y0050952D02*
X0026147Y0050952D01*
X0026147Y0049754D02*
X0033917Y0049754D01*
X0034413Y0048555D02*
X0026147Y0048555D01*
X0025954Y0047357D02*
X0034960Y0047357D01*
X0035551Y0046158D02*
X0008028Y0046158D01*
X0008028Y0044960D02*
X0036229Y0044960D01*
X0036948Y0043761D02*
X0008028Y0043761D01*
X0008028Y0042563D02*
X0037749Y0042563D01*
X0038633Y0041364D02*
X0008028Y0041364D01*
X0008028Y0040166D02*
X0039582Y0040166D01*
X0040633Y0038967D02*
X0008028Y0038967D01*
X0008028Y0037769D02*
X0041806Y0037769D01*
X0043090Y0036570D02*
X0008028Y0036570D01*
X0008028Y0035372D02*
X0044512Y0035372D01*
X0046108Y0034173D02*
X0008028Y0034173D01*
X0008028Y0032975D02*
X0047933Y0032975D01*
X0050074Y0031776D02*
X0008028Y0031776D01*
X0008028Y0030578D02*
X0052671Y0030578D01*
X0056021Y0029379D02*
X0008028Y0029379D01*
X0008028Y0028181D02*
X0061998Y0028181D01*
X0065105Y0028181D02*
X0066305Y0028181D01*
X0066305Y0027987D02*
X0066820Y0027987D01*
X0069047Y0028133D01*
X0071259Y0028424D01*
X0073448Y0028859D01*
X0075603Y0029437D01*
X0077716Y0030154D01*
X0079777Y0031008D01*
X0081779Y0031995D01*
X0083711Y0033110D01*
X0085566Y0034350D01*
X0087337Y0035708D01*
X0089014Y0037180D01*
X0090592Y0038757D01*
X0092063Y0040435D01*
X0093422Y0042205D01*
X0094661Y0044061D01*
X0095777Y0045993D01*
X0096764Y0047994D01*
X0097618Y0050056D01*
X0098335Y0052169D01*
X0098913Y0054324D01*
X0099348Y0056512D01*
X0099639Y0058725D01*
X0099785Y0060951D01*
X0099785Y0061467D01*
X0066305Y0061467D01*
X0066305Y0027987D01*
X0066305Y0029379D02*
X0065105Y0029379D01*
X0065105Y0030578D02*
X0066305Y0030578D01*
X0066305Y0031776D02*
X0065105Y0031776D01*
X0065105Y0032975D02*
X0066305Y0032975D01*
X0066305Y0034173D02*
X0065105Y0034173D01*
X0065105Y0035372D02*
X0066305Y0035372D01*
X0066305Y0036570D02*
X0065105Y0036570D01*
X0065105Y0037769D02*
X0066305Y0037769D01*
X0066305Y0038967D02*
X0065105Y0038967D01*
X0065105Y0040166D02*
X0066305Y0040166D01*
X0066305Y0041364D02*
X0065105Y0041364D01*
X0065105Y0042563D02*
X0066305Y0042563D01*
X0066305Y0043761D02*
X0065105Y0043761D01*
X0065105Y0044960D02*
X0066305Y0044960D01*
X0066305Y0046158D02*
X0065105Y0046158D01*
X0065105Y0047357D02*
X0066305Y0047357D01*
X0066305Y0048555D02*
X0065105Y0048555D01*
X0065105Y0049754D02*
X0066305Y0049754D01*
X0066305Y0050952D02*
X0065105Y0050952D01*
X0065105Y0052151D02*
X0066305Y0052151D01*
X0066305Y0053349D02*
X0065105Y0053349D01*
X0065105Y0054548D02*
X0066305Y0054548D01*
X0066305Y0055746D02*
X0065105Y0055746D01*
X0065105Y0056945D02*
X0066305Y0056945D01*
X0066305Y0058143D02*
X0065105Y0058143D01*
X0065105Y0059342D02*
X0066305Y0059342D01*
X0066305Y0060540D02*
X0065105Y0060540D01*
X0065105Y0061739D02*
X0026147Y0061739D01*
X0025958Y0086908D02*
X0026081Y0086908D01*
X0026056Y0094099D02*
X0025503Y0094099D01*
X0025912Y0095297D02*
X0019631Y0095297D01*
X0019631Y0094099D02*
X0019844Y0094099D01*
X0019631Y0096496D02*
X0025912Y0096496D01*
X0025912Y0097694D02*
X0019631Y0097694D01*
X0019631Y0098893D02*
X0025912Y0098893D01*
X0026033Y0100091D02*
X0019631Y0100091D01*
X0019631Y0101290D02*
X0026313Y0101290D01*
X0026313Y0102488D02*
X0019631Y0102488D01*
X0019631Y0103687D02*
X0026313Y0103687D01*
X0023176Y0104885D02*
X0019631Y0104885D01*
X0019631Y0106084D02*
X0023176Y0106084D01*
X0023176Y0107282D02*
X0019631Y0107282D01*
X0019631Y0108481D02*
X0023176Y0108481D01*
X0023176Y0109679D02*
X0019631Y0109679D01*
X0019795Y0110878D02*
X0023176Y0110878D01*
X0023176Y0112076D02*
X0020993Y0112076D01*
X0022192Y0113275D02*
X0023843Y0113275D01*
X0027963Y0119267D02*
X0028149Y0119267D01*
X0046987Y0131253D02*
X0110428Y0131253D01*
X0110428Y0132451D02*
X0046987Y0132451D01*
X0047569Y0130054D02*
X0110428Y0130054D01*
X0110428Y0133650D02*
X0057582Y0133650D01*
X0058986Y0134848D02*
X0110428Y0134848D01*
X0110428Y0136047D02*
X0072731Y0136047D01*
X0073929Y0137245D02*
X0110428Y0137245D01*
X0110428Y0138444D02*
X0075086Y0138444D01*
X0075086Y0139642D02*
X0110428Y0139642D01*
X0110428Y0140841D02*
X0075086Y0140841D01*
X0075078Y0142039D02*
X0081089Y0142039D01*
X0081500Y0141628D02*
X0083258Y0140900D01*
X0085160Y0140900D01*
X0086917Y0141628D01*
X0088262Y0142973D01*
X0088990Y0144730D01*
X0088990Y0152632D01*
X0088262Y0154389D01*
X0086917Y0155734D01*
X0085160Y0156462D01*
X0083258Y0156462D01*
X0081500Y0155734D01*
X0080155Y0154389D01*
X0079428Y0152632D01*
X0079428Y0144730D01*
X0080155Y0142973D01*
X0081500Y0141628D01*
X0080046Y0143238D02*
X0073879Y0143238D01*
X0072681Y0144436D02*
X0079549Y0144436D01*
X0079428Y0145635D02*
X0068937Y0145635D01*
X0067738Y0146833D02*
X0079428Y0146833D01*
X0079428Y0148032D02*
X0066540Y0148032D01*
X0067631Y0149230D02*
X0079428Y0149230D01*
X0079428Y0150429D02*
X0069985Y0150429D01*
X0071183Y0151627D02*
X0079428Y0151627D01*
X0079508Y0152826D02*
X0072382Y0152826D01*
X0073580Y0154024D02*
X0080004Y0154024D01*
X0080989Y0155223D02*
X0074779Y0155223D01*
X0075977Y0156421D02*
X0083159Y0156421D01*
X0085259Y0156421D02*
X0103159Y0156421D01*
X0103258Y0156462D02*
X0101500Y0155734D01*
X0100155Y0154389D01*
X0099428Y0152632D01*
X0099428Y0144730D01*
X0100155Y0142973D01*
X0101500Y0141628D01*
X0103258Y0140900D01*
X0105160Y0140900D01*
X0106917Y0141628D01*
X0108262Y0142973D01*
X0108990Y0144730D01*
X0108990Y0152632D01*
X0108262Y0154389D01*
X0106917Y0155734D01*
X0105160Y0156462D01*
X0103258Y0156462D01*
X0105259Y0156421D02*
X0109999Y0156421D01*
X0110428Y0155223D02*
X0107428Y0155223D01*
X0108413Y0154024D02*
X0110004Y0154024D01*
X0109508Y0152826D02*
X0108910Y0152826D01*
X0108990Y0151627D02*
X0109428Y0151627D01*
X0109428Y0150429D02*
X0108990Y0150429D01*
X0108990Y0149230D02*
X0109428Y0149230D01*
X0109428Y0148032D02*
X0108990Y0148032D01*
X0108990Y0146833D02*
X0109428Y0146833D01*
X0109428Y0145635D02*
X0108990Y0145635D01*
X0108868Y0144436D02*
X0109549Y0144436D01*
X0110046Y0143238D02*
X0108372Y0143238D01*
X0107328Y0142039D02*
X0110428Y0142039D01*
X0101089Y0142039D02*
X0097022Y0142039D01*
X0097205Y0142172D02*
X0097717Y0142684D01*
X0098143Y0143270D01*
X0098472Y0143915D01*
X0098695Y0144604D01*
X0098809Y0145319D01*
X0098809Y0148281D01*
X0094609Y0148281D01*
X0094609Y0149081D01*
X0098809Y0149081D01*
X0098809Y0152043D01*
X0098695Y0152758D01*
X0098472Y0153447D01*
X0098143Y0154092D01*
X0097717Y0154678D01*
X0097205Y0155190D01*
X0096620Y0155615D01*
X0095974Y0155944D01*
X0095286Y0156168D01*
X0094609Y0156275D01*
X0094609Y0149081D01*
X0093809Y0149081D01*
X0093809Y0156275D01*
X0093131Y0156168D01*
X0092443Y0155944D01*
X0091798Y0155615D01*
X0091212Y0155190D01*
X0090700Y0154678D01*
X0090274Y0154092D01*
X0089946Y0153447D01*
X0089722Y0152758D01*
X0089609Y0152043D01*
X0089609Y0149081D01*
X0093809Y0149081D01*
X0093809Y0148281D01*
X0094609Y0148281D01*
X0094609Y0141087D01*
X0095286Y0141194D01*
X0095974Y0141418D01*
X0096620Y0141747D01*
X0097205Y0142172D01*
X0098119Y0143238D02*
X0100046Y0143238D01*
X0099549Y0144436D02*
X0098641Y0144436D01*
X0098809Y0145635D02*
X0099428Y0145635D01*
X0099428Y0146833D02*
X0098809Y0146833D01*
X0098809Y0148032D02*
X0099428Y0148032D01*
X0099428Y0149230D02*
X0098809Y0149230D01*
X0098809Y0150429D02*
X0099428Y0150429D01*
X0099428Y0151627D02*
X0098809Y0151627D01*
X0098673Y0152826D02*
X0099508Y0152826D01*
X0100004Y0154024D02*
X0098177Y0154024D01*
X0097160Y0155223D02*
X0100989Y0155223D01*
X0094609Y0155223D02*
X0093809Y0155223D01*
X0093809Y0154024D02*
X0094609Y0154024D01*
X0094609Y0152826D02*
X0093809Y0152826D01*
X0093809Y0151627D02*
X0094609Y0151627D01*
X0094609Y0150429D02*
X0093809Y0150429D01*
X0093809Y0149230D02*
X0094609Y0149230D01*
X0094609Y0148032D02*
X0093809Y0148032D01*
X0093809Y0148281D02*
X0093809Y0141087D01*
X0093131Y0141194D01*
X0092443Y0141418D01*
X0091798Y0141747D01*
X0091212Y0142172D01*
X0090700Y0142684D01*
X0090274Y0143270D01*
X0089946Y0143915D01*
X0089722Y0144604D01*
X0089609Y0145319D01*
X0089609Y0148281D01*
X0093809Y0148281D01*
X0093809Y0146833D02*
X0094609Y0146833D01*
X0094609Y0145635D02*
X0093809Y0145635D01*
X0093809Y0144436D02*
X0094609Y0144436D01*
X0094609Y0143238D02*
X0093809Y0143238D01*
X0093809Y0142039D02*
X0094609Y0142039D01*
X0091395Y0142039D02*
X0087328Y0142039D01*
X0088372Y0143238D02*
X0090298Y0143238D01*
X0089776Y0144436D02*
X0088868Y0144436D01*
X0088990Y0145635D02*
X0089609Y0145635D01*
X0089609Y0146833D02*
X0088990Y0146833D01*
X0088990Y0148032D02*
X0089609Y0148032D01*
X0089609Y0149230D02*
X0088990Y0149230D01*
X0088990Y0150429D02*
X0089609Y0150429D01*
X0089609Y0151627D02*
X0088990Y0151627D01*
X0088910Y0152826D02*
X0089744Y0152826D01*
X0090240Y0154024D02*
X0088413Y0154024D01*
X0087428Y0155223D02*
X0091257Y0155223D01*
X0077176Y0157620D02*
X0108801Y0157620D01*
X0098252Y0113275D02*
X0086747Y0113275D01*
X0087580Y0112076D02*
X0097585Y0112076D01*
X0097585Y0110878D02*
X0087580Y0110878D01*
X0082643Y0110878D02*
X0081443Y0110878D01*
X0081443Y0112076D02*
X0082643Y0112076D01*
X0082643Y0113275D02*
X0081443Y0113275D01*
X0081443Y0107282D02*
X0082643Y0107282D01*
X0082643Y0106084D02*
X0081443Y0106084D01*
X0081443Y0104885D02*
X0082643Y0104885D01*
X0093185Y0100091D02*
X0094052Y0100091D01*
X0094052Y0098893D02*
X0093185Y0098893D01*
X0093185Y0097694D02*
X0094052Y0097694D01*
X0094052Y0096496D02*
X0093185Y0096496D01*
X0093185Y0095297D02*
X0094052Y0095297D01*
X0094052Y0094099D02*
X0093185Y0094099D01*
X0087701Y0088106D02*
X0103136Y0088106D01*
X0103136Y0089305D02*
X0086191Y0089305D01*
X0084490Y0090503D02*
X0103136Y0090503D01*
X0103136Y0091702D02*
X0082536Y0091702D01*
X0089061Y0086908D02*
X0103857Y0086908D01*
X0110308Y0086908D02*
X0110428Y0086908D01*
X0110428Y0085709D02*
X0090259Y0085709D01*
X0091351Y0084511D02*
X0110428Y0084511D01*
X0110428Y0083312D02*
X0092360Y0083312D01*
X0093280Y0082114D02*
X0110428Y0082114D01*
X0110428Y0080915D02*
X0094099Y0080915D01*
X0094867Y0079717D02*
X0110428Y0079717D01*
X0110428Y0078518D02*
X0095559Y0078518D01*
X0096182Y0077320D02*
X0105998Y0077320D01*
X0105262Y0076121D02*
X0096772Y0076121D01*
X0097268Y0074922D02*
X0105262Y0074922D01*
X0105262Y0073724D02*
X0097738Y0073724D01*
X0098145Y0072525D02*
X0105262Y0072525D01*
X0105262Y0071327D02*
X0098506Y0071327D01*
X0098827Y0070128D02*
X0105262Y0070128D01*
X0105262Y0068930D02*
X0099088Y0068930D01*
X0099326Y0067731D02*
X0105262Y0067731D01*
X0105262Y0066533D02*
X0099491Y0066533D01*
X0099644Y0065334D02*
X0105262Y0065334D01*
X0105262Y0064136D02*
X0099723Y0064136D01*
X0099785Y0062937D02*
X0105262Y0062937D01*
X0105262Y0061739D02*
X0066305Y0061739D01*
X0066305Y0062937D02*
X0065105Y0062937D01*
X0065105Y0064136D02*
X0066305Y0064136D01*
X0066305Y0065334D02*
X0065105Y0065334D01*
X0065105Y0066533D02*
X0066305Y0066533D01*
X0066305Y0067731D02*
X0065105Y0067731D01*
X0065105Y0068930D02*
X0066305Y0068930D01*
X0066305Y0070128D02*
X0065105Y0070128D01*
X0065105Y0071327D02*
X0066305Y0071327D01*
X0066305Y0072525D02*
X0065105Y0072525D01*
X0065105Y0073724D02*
X0066305Y0073724D01*
X0066305Y0074922D02*
X0065105Y0074922D01*
X0065105Y0076121D02*
X0066305Y0076121D01*
X0066305Y0077320D02*
X0065105Y0077320D01*
X0065105Y0078518D02*
X0066305Y0078518D01*
X0066305Y0079717D02*
X0065105Y0079717D01*
X0065105Y0080915D02*
X0066305Y0080915D01*
X0066305Y0082114D02*
X0065105Y0082114D01*
X0065105Y0083312D02*
X0066305Y0083312D01*
X0066305Y0084511D02*
X0065105Y0084511D01*
X0065105Y0085709D02*
X0066305Y0085709D01*
X0066305Y0086908D02*
X0065105Y0086908D01*
X0065105Y0088106D02*
X0066305Y0088106D01*
X0066305Y0089305D02*
X0065105Y0089305D01*
X0065105Y0090503D02*
X0066305Y0090503D01*
X0066305Y0091702D02*
X0065105Y0091702D01*
X0065105Y0092900D02*
X0066305Y0092900D01*
X0066305Y0094099D02*
X0065105Y0094099D01*
X0065105Y0095297D02*
X0066305Y0095297D01*
X0049694Y0133650D02*
X0049353Y0133650D01*
X0049435Y0134848D02*
X0049691Y0134848D01*
X0049691Y0136047D02*
X0049435Y0136047D01*
X0049435Y0137245D02*
X0049691Y0137245D01*
X0049691Y0138444D02*
X0049435Y0138444D01*
X0049435Y0139642D02*
X0050269Y0139642D01*
X0049691Y0140841D02*
X0049435Y0140841D01*
X0049435Y0142039D02*
X0049691Y0142039D01*
X0057584Y0144436D02*
X0058729Y0144436D01*
X0062681Y0144436D02*
X0062835Y0144436D01*
X0063879Y0143238D02*
X0064033Y0143238D01*
X0065078Y0142039D02*
X0065232Y0142039D01*
X0065086Y0140841D02*
X0066324Y0140841D01*
X0066324Y0139642D02*
X0065086Y0139642D01*
X0065086Y0138444D02*
X0066324Y0138444D01*
X0067480Y0137245D02*
X0063929Y0137245D01*
X0062731Y0136047D02*
X0068679Y0136047D01*
X0063982Y0157549D02*
X0062782Y0157549D01*
X0062782Y0160483D01*
X0058632Y0160483D01*
X0058632Y0159626D01*
X0055371Y0159626D01*
X0055371Y0160493D01*
X0058663Y0160493D01*
X0058663Y0161683D01*
X0062782Y0161683D01*
X0062782Y0163248D01*
X0063982Y0163248D01*
X0063982Y0161683D01*
X0062782Y0161683D01*
X0062782Y0160483D01*
X0063982Y0160483D01*
X0063982Y0161683D01*
X0068131Y0161683D01*
X0068131Y0163248D01*
X0072109Y0163248D01*
X0068131Y0159270D01*
X0068131Y0160483D01*
X0063982Y0160483D01*
X0063982Y0157549D01*
X0063982Y0157620D02*
X0062782Y0157620D01*
X0062782Y0158818D02*
X0063982Y0158818D01*
X0063982Y0160017D02*
X0062782Y0160017D01*
X0062782Y0161215D02*
X0058663Y0161215D01*
X0058632Y0160017D02*
X0055371Y0160017D01*
X0054503Y0160017D02*
X0049230Y0160017D01*
X0049435Y0158818D02*
X0051211Y0158818D01*
X0051254Y0157620D02*
X0049435Y0157620D01*
X0049435Y0156421D02*
X0051477Y0156421D01*
X0051211Y0161215D02*
X0008028Y0161215D01*
X0008028Y0160017D02*
X0015565Y0160017D01*
X0015361Y0158818D02*
X0008028Y0158818D01*
X0008028Y0157620D02*
X0015361Y0157620D01*
X0015361Y0156421D02*
X0008028Y0156421D01*
X0008028Y0155223D02*
X0012420Y0155223D01*
X0011222Y0154024D02*
X0008028Y0154024D01*
X0008028Y0152826D02*
X0010023Y0152826D01*
X0008825Y0151627D02*
X0008028Y0151627D01*
X0008028Y0150429D02*
X0008122Y0150429D01*
X0008028Y0162414D02*
X0051232Y0162414D01*
X0040410Y0150610D02*
X0040410Y0150610D01*
X0039557Y0150610D01*
X0040410Y0150610D01*
X0040410Y0150610D01*
X0039557Y0150429D02*
X0025419Y0150429D01*
X0025419Y0151627D02*
X0039393Y0151627D01*
X0039376Y0152826D02*
X0025419Y0152826D01*
X0025419Y0154024D02*
X0039376Y0154024D01*
X0039376Y0155223D02*
X0025419Y0155223D01*
X0025419Y0156421D02*
X0039376Y0156421D01*
X0039376Y0157620D02*
X0025419Y0157620D01*
X0025419Y0158818D02*
X0039376Y0158818D01*
X0039581Y0160017D02*
X0025215Y0160017D01*
X0025419Y0149230D02*
X0039376Y0149230D01*
X0039376Y0148032D02*
X0025419Y0148032D01*
X0062782Y0162414D02*
X0063982Y0162414D01*
X0063982Y0161215D02*
X0070077Y0161215D01*
X0071275Y0162414D02*
X0068131Y0162414D01*
X0068131Y0160017D02*
X0068878Y0160017D01*
X0099758Y0060540D02*
X0105262Y0060540D01*
X0105262Y0059342D02*
X0099680Y0059342D01*
X0099563Y0058143D02*
X0105262Y0058143D01*
X0105262Y0056945D02*
X0099405Y0056945D01*
X0099195Y0055746D02*
X0105262Y0055746D01*
X0105262Y0054548D02*
X0098957Y0054548D01*
X0098651Y0053349D02*
X0105262Y0053349D01*
X0105262Y0052151D02*
X0098329Y0052151D01*
X0097922Y0050952D02*
X0105262Y0050952D01*
X0105262Y0049754D02*
X0097493Y0049754D01*
X0096996Y0048555D02*
X0105262Y0048555D01*
X0105455Y0047357D02*
X0096449Y0047357D01*
X0095858Y0046158D02*
X0111825Y0046158D01*
X0111825Y0044960D02*
X0095180Y0044960D01*
X0094461Y0043761D02*
X0111825Y0043761D01*
X0111825Y0042563D02*
X0093660Y0042563D01*
X0092776Y0041364D02*
X0111825Y0041364D01*
X0111825Y0040166D02*
X0091827Y0040166D01*
X0090776Y0038967D02*
X0111825Y0038967D01*
X0111825Y0037769D02*
X0089603Y0037769D01*
X0088319Y0036570D02*
X0111825Y0036570D01*
X0111825Y0035372D02*
X0086898Y0035372D01*
X0085302Y0034173D02*
X0111825Y0034173D01*
X0111825Y0032975D02*
X0083476Y0032975D01*
X0081335Y0031776D02*
X0111825Y0031776D01*
X0111825Y0030578D02*
X0078739Y0030578D01*
X0075388Y0029379D02*
X0111825Y0029379D01*
X0111825Y0028181D02*
X0069412Y0028181D01*
X0076417Y0014997D02*
X0008028Y0014997D01*
X0008028Y0016195D02*
X0088471Y0016195D01*
X0088471Y0017394D02*
X0008028Y0017394D01*
X0008028Y0018592D02*
X0088471Y0018592D01*
X0091033Y0019791D02*
X0008028Y0019791D01*
X0008028Y0020989D02*
X0090341Y0020989D01*
X0090341Y0022188D02*
X0008028Y0022188D01*
X0008028Y0023387D02*
X0090341Y0023387D01*
X0090341Y0024585D02*
X0008028Y0024585D01*
X0008028Y0025784D02*
X0090341Y0025784D01*
X0091034Y0026982D02*
X0008028Y0026982D01*
X0008028Y0013798D02*
X0075219Y0013798D01*
X0073207Y0012600D02*
X0068202Y0012600D01*
X0069399Y0011401D02*
X0072011Y0011401D01*
X0071514Y0010203D02*
X0069895Y0010203D01*
X0070061Y0009004D02*
X0071349Y0009004D01*
X0071458Y0007806D02*
X0069951Y0007806D01*
X0063207Y0012600D02*
X0057712Y0012600D01*
X0059075Y0011401D02*
X0062011Y0011401D01*
X0061514Y0010203D02*
X0059683Y0010203D01*
X0061349Y0009004D02*
X0055892Y0009004D01*
X0055517Y0009004D02*
X0008028Y0009004D01*
X0008028Y0007806D02*
X0051683Y0007806D01*
X0051530Y0009124D02*
X0055517Y0009124D01*
X0055517Y0013112D01*
X0055376Y0013112D01*
X0054727Y0013009D01*
X0054102Y0012806D01*
X0053517Y0012508D01*
X0052985Y0012121D01*
X0052520Y0011657D01*
X0052134Y0011125D01*
X0051836Y0010540D01*
X0051633Y0009915D01*
X0051530Y0009266D01*
X0051530Y0009124D01*
X0051726Y0010203D02*
X0008028Y0010203D01*
X0008028Y0011401D02*
X0052335Y0011401D01*
X0053698Y0012600D02*
X0008028Y0012600D01*
X0055517Y0012600D02*
X0055892Y0012600D01*
X0055892Y0011401D02*
X0055517Y0011401D01*
X0055517Y0010203D02*
X0055892Y0010203D01*
X0059727Y0007806D02*
X0061458Y0007806D01*
X0096552Y0012105D02*
X0097545Y0011112D01*
X0097545Y0006949D01*
X0100739Y0006949D01*
X0100739Y0008523D01*
X0104031Y0008523D01*
X0104898Y0008523D01*
X0104898Y0006949D01*
X0104031Y0006949D01*
X0104031Y0008523D01*
X0104031Y0009390D01*
X0100739Y0009390D01*
X0100739Y0011234D01*
X0100848Y0011641D01*
X0101058Y0012006D01*
X0101157Y0012105D01*
X0096552Y0012105D01*
X0097255Y0011401D02*
X0100783Y0011401D01*
X0100739Y0010203D02*
X0097545Y0010203D01*
X0097545Y0009004D02*
X0104031Y0009004D01*
X0104031Y0009390D02*
X0104031Y0011998D01*
X0104898Y0011998D01*
X0104898Y0009390D01*
X0108191Y0009390D01*
X0108191Y0011234D01*
X0108082Y0011641D01*
X0107871Y0012006D01*
X0107603Y0012274D01*
X0108372Y0013042D01*
X0108372Y0013975D01*
X0111160Y0013975D01*
X0111444Y0013691D01*
X0111176Y0013423D01*
X0110966Y0013059D01*
X0110857Y0012652D01*
X0110857Y0010482D01*
X0115006Y0010482D01*
X0115006Y0009282D01*
X0110857Y0009282D01*
X0110857Y0007112D01*
X0110900Y0006949D01*
X0108191Y0006949D01*
X0108191Y0008523D01*
X0104898Y0008523D01*
X0104898Y0009390D01*
X0104031Y0009390D01*
X0104031Y0010203D02*
X0104898Y0010203D01*
X0104898Y0011401D02*
X0104031Y0011401D01*
X0104898Y0009004D02*
X0110857Y0009004D01*
X0110857Y0007806D02*
X0108191Y0007806D01*
X0108191Y0010203D02*
X0115006Y0010203D01*
X0115006Y0010482D02*
X0115006Y0013416D01*
X0116206Y0013416D01*
X0116206Y0010482D01*
X0115006Y0010482D01*
X0115006Y0011401D02*
X0116206Y0011401D01*
X0116206Y0010482D02*
X0120356Y0010482D01*
X0120356Y0012652D01*
X0120247Y0013059D01*
X0120036Y0013423D01*
X0119769Y0013691D01*
X0120537Y0014459D01*
X0120537Y0021053D01*
X0119494Y0022096D01*
X0119387Y0022096D01*
X0119387Y0046506D01*
X0123382Y0046506D01*
X0123382Y0006949D01*
X0120312Y0006949D01*
X0120356Y0007112D01*
X0120356Y0009282D01*
X0116206Y0009282D01*
X0116206Y0006949D01*
X0115006Y0006949D01*
X0115006Y0009282D01*
X0116206Y0009282D01*
X0116206Y0010482D01*
X0116206Y0010203D02*
X0123382Y0010203D01*
X0123382Y0011401D02*
X0120356Y0011401D01*
X0120356Y0012600D02*
X0123382Y0012600D01*
X0123382Y0013798D02*
X0119876Y0013798D01*
X0120537Y0014997D02*
X0123382Y0014997D01*
X0123382Y0016195D02*
X0120537Y0016195D01*
X0120537Y0017394D02*
X0123382Y0017394D01*
X0123382Y0018592D02*
X0120537Y0018592D01*
X0120537Y0019791D02*
X0123382Y0019791D01*
X0123382Y0020989D02*
X0120537Y0020989D01*
X0119387Y0022188D02*
X0123382Y0022188D01*
X0123382Y0023387D02*
X0119387Y0023387D01*
X0119387Y0024585D02*
X0123382Y0024585D01*
X0123382Y0025784D02*
X0119387Y0025784D01*
X0119387Y0026982D02*
X0123382Y0026982D01*
X0123382Y0028181D02*
X0119387Y0028181D01*
X0119387Y0029379D02*
X0123382Y0029379D01*
X0123382Y0030578D02*
X0119387Y0030578D01*
X0119387Y0031776D02*
X0123382Y0031776D01*
X0123382Y0032975D02*
X0119387Y0032975D01*
X0119387Y0034173D02*
X0123382Y0034173D01*
X0123382Y0035372D02*
X0119387Y0035372D01*
X0119387Y0036570D02*
X0123382Y0036570D01*
X0123382Y0037769D02*
X0119387Y0037769D01*
X0119387Y0038967D02*
X0123382Y0038967D01*
X0123382Y0040166D02*
X0119387Y0040166D01*
X0119387Y0041364D02*
X0123382Y0041364D01*
X0123382Y0042563D02*
X0119387Y0042563D01*
X0119387Y0043761D02*
X0123382Y0043761D01*
X0123382Y0044960D02*
X0119387Y0044960D01*
X0119387Y0046158D02*
X0123382Y0046158D01*
X0111825Y0026982D02*
X0103840Y0026982D01*
X0104533Y0025784D02*
X0111825Y0025784D01*
X0111825Y0024585D02*
X0104533Y0024585D01*
X0104533Y0023387D02*
X0111825Y0023387D01*
X0111825Y0022188D02*
X0104533Y0022188D01*
X0097727Y0026982D02*
X0097147Y0026982D01*
X0108372Y0013798D02*
X0111336Y0013798D01*
X0110857Y0012600D02*
X0107930Y0012600D01*
X0108146Y0011401D02*
X0110857Y0011401D01*
X0115006Y0012600D02*
X0116206Y0012600D01*
X0116206Y0009004D02*
X0115006Y0009004D01*
X0115006Y0007806D02*
X0116206Y0007806D01*
X0120356Y0007806D02*
X0123382Y0007806D01*
X0123382Y0009004D02*
X0120356Y0009004D01*
X0104898Y0007806D02*
X0104031Y0007806D01*
X0100739Y0007806D02*
X0097545Y0007806D01*
D28*
X0093008Y0008406D03*
X0104465Y0008957D03*
X0115606Y0009882D03*
X0100783Y0023386D03*
X0094091Y0023386D03*
X0065705Y0062087D03*
X0099878Y0087165D03*
X0103303Y0108720D03*
X0091846Y0126496D03*
X0082004Y0108602D03*
X0065035Y0108937D03*
X0050154Y0108622D03*
X0028894Y0108720D03*
X0017693Y0130157D03*
X0032516Y0154350D03*
X0063382Y0161083D03*
D29*
X0063382Y0153209D02*
X0067417Y0153209D01*
X0075685Y0161476D01*
X0110291Y0161476D01*
X0114209Y0157559D01*
X0114209Y0148681D01*
X0114209Y0126988D01*
X0114209Y0090059D01*
X0114209Y0062776D01*
X0114917Y0062067D01*
X0115606Y0061378D01*
X0115606Y0017756D01*
X0106374Y0017756D01*
X0104465Y0015846D01*
X0104425Y0015886D01*
X0093008Y0015886D01*
X0084346Y0012146D02*
X0078913Y0012146D01*
X0075705Y0008937D01*
X0063382Y0153209D02*
X0054976Y0153209D01*
X0054937Y0153169D01*
D30*
X0024150Y0122106D02*
X0024150Y0119449D01*
X0016650Y0111949D01*
X0016650Y0090138D01*
X0016787Y0090276D01*
X0022673Y0090276D01*
X0016650Y0090138D02*
X0016650Y0062224D01*
X0016492Y0062067D01*
X0011000Y0128740D02*
X0011000Y0149587D01*
X0014583Y0153169D01*
X0113972Y0127224D02*
X0114209Y0126988D01*
M02*
