G75*
%MOIN*%
%OFA0B0*%
%FSLAX25Y25*%
%IPPOS*%
%LPD*%
%AMOC8*
5,1,8,0,0,1.08239X$1,22.5*
%
%ADD10C,0.00394*%
%ADD11C,0.00000*%
%ADD12R,0.06496X0.01575*%
%ADD13R,0.04331X0.03937*%
%ADD14R,0.04134X0.04252*%
%ADD15R,0.04252X0.04134*%
%ADD16R,0.03937X0.04331*%
%ADD17C,0.05937*%
%ADD18C,0.10000*%
%ADD19OC8,0.10000*%
%ADD20R,0.05512X0.11811*%
%ADD21C,0.10000*%
%ADD22OC8,0.05200*%
%ADD23R,0.06299X0.05118*%
%ADD24R,0.08661X0.02362*%
%ADD25R,0.07087X0.09449*%
%ADD26R,0.05906X0.08661*%
%ADD27R,0.05512X0.10236*%
%ADD28C,0.06600*%
%ADD29C,0.05200*%
%ADD30R,0.05118X0.05906*%
%ADD31R,0.05906X0.05118*%
%ADD32R,0.03937X0.05512*%
%ADD33R,0.04362X0.04362*%
%ADD34C,0.04362*%
%ADD35C,0.05150*%
%ADD36C,0.06000*%
%ADD37C,0.01200*%
%ADD38C,0.01600*%
%ADD39C,0.03169*%
%ADD40C,0.04000*%
%ADD41C,0.03200*%
%ADD42C,0.02400*%
%ADD43C,0.03562*%
%ADD44C,0.05000*%
D10*
X0014189Y0005042D02*
X0195882Y0005042D01*
X0195882Y0019609D02*
X0195886Y0019951D01*
X0195899Y0020294D01*
X0195919Y0020636D01*
X0195948Y0020977D01*
X0195985Y0021317D01*
X0196031Y0021657D01*
X0196084Y0021995D01*
X0196146Y0022332D01*
X0196216Y0022667D01*
X0196294Y0023001D01*
X0196380Y0023332D01*
X0196474Y0023662D01*
X0196576Y0023989D01*
X0196685Y0024313D01*
X0196803Y0024635D01*
X0196928Y0024954D01*
X0197061Y0025269D01*
X0197202Y0025582D01*
X0197350Y0025890D01*
X0197505Y0026196D01*
X0197668Y0026497D01*
X0197838Y0026794D01*
X0198015Y0027087D01*
X0198200Y0027376D01*
X0198391Y0027660D01*
X0198589Y0027940D01*
X0198793Y0028214D01*
X0199005Y0028484D01*
X0199222Y0028748D01*
X0199446Y0029007D01*
X0199677Y0029261D01*
X0199913Y0029509D01*
X0200155Y0029751D01*
X0200403Y0029987D01*
X0200657Y0030218D01*
X0200916Y0030442D01*
X0201180Y0030659D01*
X0201450Y0030871D01*
X0201724Y0031075D01*
X0202004Y0031273D01*
X0202288Y0031464D01*
X0202577Y0031649D01*
X0202870Y0031826D01*
X0203167Y0031996D01*
X0203468Y0032159D01*
X0203774Y0032314D01*
X0204082Y0032462D01*
X0204395Y0032603D01*
X0204710Y0032736D01*
X0205029Y0032861D01*
X0205351Y0032979D01*
X0205675Y0033088D01*
X0206002Y0033190D01*
X0206332Y0033284D01*
X0206663Y0033370D01*
X0206997Y0033448D01*
X0207332Y0033518D01*
X0207669Y0033580D01*
X0208007Y0033633D01*
X0208347Y0033679D01*
X0208687Y0033716D01*
X0209028Y0033745D01*
X0209370Y0033765D01*
X0209713Y0033778D01*
X0210055Y0033782D01*
X0211039Y0033782D02*
X0211039Y0170396D01*
X0029346Y0170396D01*
X0029346Y0155830D01*
X0029342Y0155488D01*
X0029329Y0155145D01*
X0029309Y0154803D01*
X0029280Y0154462D01*
X0029243Y0154122D01*
X0029197Y0153782D01*
X0029144Y0153444D01*
X0029082Y0153107D01*
X0029012Y0152772D01*
X0028934Y0152438D01*
X0028848Y0152107D01*
X0028754Y0151777D01*
X0028652Y0151450D01*
X0028543Y0151126D01*
X0028425Y0150804D01*
X0028300Y0150485D01*
X0028167Y0150170D01*
X0028026Y0149857D01*
X0027878Y0149549D01*
X0027723Y0149243D01*
X0027560Y0148942D01*
X0027390Y0148645D01*
X0027213Y0148352D01*
X0027028Y0148063D01*
X0026837Y0147779D01*
X0026639Y0147499D01*
X0026435Y0147225D01*
X0026223Y0146955D01*
X0026006Y0146691D01*
X0025782Y0146432D01*
X0025551Y0146178D01*
X0025315Y0145930D01*
X0025073Y0145688D01*
X0024825Y0145452D01*
X0024571Y0145221D01*
X0024312Y0144997D01*
X0024048Y0144780D01*
X0023778Y0144568D01*
X0023504Y0144364D01*
X0023224Y0144166D01*
X0022940Y0143975D01*
X0022651Y0143790D01*
X0022358Y0143613D01*
X0022061Y0143443D01*
X0021760Y0143280D01*
X0021454Y0143125D01*
X0021146Y0142977D01*
X0020833Y0142836D01*
X0020518Y0142703D01*
X0020199Y0142578D01*
X0019877Y0142460D01*
X0019553Y0142351D01*
X0019226Y0142249D01*
X0018896Y0142155D01*
X0018565Y0142069D01*
X0018231Y0141991D01*
X0017896Y0141921D01*
X0017559Y0141859D01*
X0017221Y0141806D01*
X0016881Y0141760D01*
X0016541Y0141723D01*
X0016200Y0141694D01*
X0015858Y0141674D01*
X0015515Y0141661D01*
X0015173Y0141657D01*
X0014189Y0141656D02*
X0014189Y0005042D01*
X0018283Y0042995D02*
X0018283Y0059019D01*
X0067929Y0059019D01*
X0067929Y0050396D01*
X0106563Y0050396D01*
X0106563Y0056223D01*
X0124622Y0056223D01*
X0124622Y0042995D01*
X0018283Y0042995D01*
X0018283Y0043072D02*
X0124622Y0043072D01*
X0124622Y0043464D02*
X0018283Y0043464D01*
X0018283Y0043856D02*
X0124622Y0043856D01*
X0124622Y0044248D02*
X0113048Y0044248D01*
X0112876Y0044178D02*
X0114125Y0044695D01*
X0115080Y0045650D01*
X0115598Y0046899D01*
X0115598Y0053450D01*
X0115080Y0054699D01*
X0114125Y0055654D01*
X0112876Y0056171D01*
X0111525Y0056171D01*
X0110277Y0055654D01*
X0109321Y0054699D01*
X0108804Y0053450D01*
X0108804Y0046899D01*
X0109321Y0045650D01*
X0110277Y0044695D01*
X0111525Y0044178D01*
X0112876Y0044178D01*
X0113994Y0044641D02*
X0124622Y0044641D01*
X0124622Y0045033D02*
X0114463Y0045033D01*
X0114855Y0045425D02*
X0124622Y0045425D01*
X0124622Y0045817D02*
X0115150Y0045817D01*
X0115312Y0046210D02*
X0124622Y0046210D01*
X0124622Y0046602D02*
X0115475Y0046602D01*
X0115598Y0046994D02*
X0124622Y0046994D01*
X0124622Y0047386D02*
X0115598Y0047386D01*
X0115598Y0047778D02*
X0124622Y0047778D01*
X0124622Y0048171D02*
X0115598Y0048171D01*
X0115598Y0048563D02*
X0124622Y0048563D01*
X0124622Y0048955D02*
X0115598Y0048955D01*
X0115598Y0049347D02*
X0124622Y0049347D01*
X0124622Y0049739D02*
X0115598Y0049739D01*
X0115598Y0050132D02*
X0124622Y0050132D01*
X0124622Y0050524D02*
X0115598Y0050524D01*
X0115598Y0050916D02*
X0124622Y0050916D01*
X0124622Y0051308D02*
X0115598Y0051308D01*
X0115598Y0051700D02*
X0124622Y0051700D01*
X0124622Y0052093D02*
X0115598Y0052093D01*
X0115598Y0052485D02*
X0124622Y0052485D01*
X0124622Y0052877D02*
X0115598Y0052877D01*
X0115598Y0053269D02*
X0124622Y0053269D01*
X0124622Y0053662D02*
X0115510Y0053662D01*
X0115348Y0054054D02*
X0124622Y0054054D01*
X0124622Y0054446D02*
X0115185Y0054446D01*
X0114941Y0054838D02*
X0124622Y0054838D01*
X0124622Y0055230D02*
X0114549Y0055230D01*
X0114156Y0055623D02*
X0124622Y0055623D01*
X0124622Y0056015D02*
X0113254Y0056015D01*
X0111147Y0056015D02*
X0106563Y0056015D01*
X0106563Y0055623D02*
X0110245Y0055623D01*
X0109853Y0055230D02*
X0106563Y0055230D01*
X0106563Y0054838D02*
X0109461Y0054838D01*
X0109216Y0054446D02*
X0106563Y0054446D01*
X0106563Y0054054D02*
X0109054Y0054054D01*
X0108892Y0053662D02*
X0106563Y0053662D01*
X0106563Y0053269D02*
X0108804Y0053269D01*
X0108804Y0052877D02*
X0106563Y0052877D01*
X0106563Y0052485D02*
X0108804Y0052485D01*
X0108804Y0052093D02*
X0106563Y0052093D01*
X0106563Y0051700D02*
X0108804Y0051700D01*
X0108804Y0051308D02*
X0106563Y0051308D01*
X0106563Y0050916D02*
X0108804Y0050916D01*
X0108804Y0050524D02*
X0106563Y0050524D01*
X0108804Y0050132D02*
X0018283Y0050132D01*
X0018283Y0050524D02*
X0067929Y0050524D01*
X0067929Y0050916D02*
X0018283Y0050916D01*
X0018283Y0051308D02*
X0067929Y0051308D01*
X0067929Y0051700D02*
X0018283Y0051700D01*
X0018283Y0052093D02*
X0067929Y0052093D01*
X0067929Y0052485D02*
X0018283Y0052485D01*
X0018283Y0052877D02*
X0067929Y0052877D01*
X0067929Y0053269D02*
X0018283Y0053269D01*
X0018283Y0053662D02*
X0067929Y0053662D01*
X0067929Y0054054D02*
X0018283Y0054054D01*
X0018283Y0054446D02*
X0067929Y0054446D01*
X0067929Y0054838D02*
X0018283Y0054838D01*
X0018283Y0055230D02*
X0067929Y0055230D01*
X0067929Y0055623D02*
X0018283Y0055623D01*
X0018283Y0056015D02*
X0067929Y0056015D01*
X0067929Y0056407D02*
X0018283Y0056407D01*
X0018283Y0056799D02*
X0067929Y0056799D01*
X0067929Y0057191D02*
X0018283Y0057191D01*
X0018283Y0057584D02*
X0067929Y0057584D01*
X0067929Y0057976D02*
X0018283Y0057976D01*
X0018283Y0058368D02*
X0067929Y0058368D01*
X0067929Y0058760D02*
X0018283Y0058760D01*
X0018283Y0049739D02*
X0108804Y0049739D01*
X0108804Y0049347D02*
X0018283Y0049347D01*
X0018283Y0048955D02*
X0108804Y0048955D01*
X0108804Y0048563D02*
X0018283Y0048563D01*
X0018283Y0048171D02*
X0108804Y0048171D01*
X0108804Y0047778D02*
X0018283Y0047778D01*
X0018283Y0047386D02*
X0108804Y0047386D01*
X0108804Y0046994D02*
X0018283Y0046994D01*
X0018283Y0046602D02*
X0108927Y0046602D01*
X0109089Y0046210D02*
X0018283Y0046210D01*
X0018283Y0045817D02*
X0109252Y0045817D01*
X0109546Y0045425D02*
X0018283Y0045425D01*
X0018283Y0045033D02*
X0109938Y0045033D01*
X0110407Y0044641D02*
X0018283Y0044641D01*
X0018283Y0044248D02*
X0111354Y0044248D01*
X0154190Y0062436D02*
X0154013Y0063099D01*
X0153953Y0063782D01*
X0153953Y0084963D01*
X0153893Y0085647D01*
X0153715Y0086310D01*
X0153425Y0086932D01*
X0153032Y0087494D01*
X0152546Y0087979D01*
X0151984Y0088373D01*
X0151362Y0088663D01*
X0150699Y0088841D01*
X0150016Y0088900D01*
X0147822Y0088900D01*
X0147133Y0088961D01*
X0146465Y0089142D01*
X0145839Y0089436D01*
X0145275Y0089836D01*
X0144789Y0090328D01*
X0144396Y0090898D01*
X0144110Y0091527D01*
X0143938Y0092198D01*
X0143886Y0092887D01*
X0144257Y0122021D01*
X0144342Y0122782D01*
X0144571Y0123513D01*
X0144938Y0124185D01*
X0145428Y0124773D01*
X0146023Y0125255D01*
X0146699Y0125613D01*
X0147432Y0125834D01*
X0148194Y0125908D01*
X0163756Y0125908D01*
X0163939Y0125932D01*
X0164110Y0126003D01*
X0164257Y0126116D01*
X0164370Y0126263D01*
X0164440Y0126434D01*
X0164465Y0126617D01*
X0164524Y0127301D01*
X0164702Y0127963D01*
X0164992Y0128585D01*
X0165386Y0129148D01*
X0165871Y0129633D01*
X0166433Y0130026D01*
X0167055Y0130317D01*
X0167718Y0130494D01*
X0168402Y0130554D01*
X0203047Y0130554D01*
X0203731Y0130494D01*
X0204394Y0130317D01*
X0205016Y0130026D01*
X0205578Y0129633D01*
X0206063Y0129148D01*
X0206457Y0128585D01*
X0206747Y0127963D01*
X0206924Y0127301D01*
X0206984Y0126617D01*
X0206984Y0063782D01*
X0206924Y0063099D01*
X0206747Y0062436D01*
X0206457Y0061814D01*
X0206063Y0061252D01*
X0205578Y0060766D01*
X0205016Y0060373D01*
X0204394Y0060083D01*
X0203731Y0059905D01*
X0203047Y0059845D01*
X0157890Y0059845D01*
X0157206Y0059905D01*
X0156543Y0060083D01*
X0155921Y0060373D01*
X0155359Y0060766D01*
X0154874Y0061252D01*
X0154480Y0061814D01*
X0154190Y0062436D01*
X0154258Y0062290D02*
X0206679Y0062290D01*
X0206813Y0062682D02*
X0154124Y0062682D01*
X0154019Y0063075D02*
X0206918Y0063075D01*
X0206957Y0063467D02*
X0153980Y0063467D01*
X0153953Y0063859D02*
X0206984Y0063859D01*
X0206984Y0064251D02*
X0153953Y0064251D01*
X0153953Y0064643D02*
X0206984Y0064643D01*
X0206984Y0065036D02*
X0153953Y0065036D01*
X0153953Y0065428D02*
X0206984Y0065428D01*
X0206984Y0065820D02*
X0153953Y0065820D01*
X0153953Y0066212D02*
X0206984Y0066212D01*
X0206984Y0066605D02*
X0153953Y0066605D01*
X0153953Y0066997D02*
X0206984Y0066997D01*
X0206984Y0067389D02*
X0153953Y0067389D01*
X0153953Y0067781D02*
X0206984Y0067781D01*
X0206984Y0068173D02*
X0153953Y0068173D01*
X0153953Y0068566D02*
X0206984Y0068566D01*
X0206984Y0068958D02*
X0153953Y0068958D01*
X0153953Y0069350D02*
X0206984Y0069350D01*
X0206984Y0069742D02*
X0153953Y0069742D01*
X0153953Y0070134D02*
X0206984Y0070134D01*
X0206984Y0070527D02*
X0153953Y0070527D01*
X0153953Y0070919D02*
X0206984Y0070919D01*
X0206984Y0071311D02*
X0153953Y0071311D01*
X0153953Y0071703D02*
X0206984Y0071703D01*
X0206984Y0072096D02*
X0153953Y0072096D01*
X0153953Y0072488D02*
X0206984Y0072488D01*
X0206984Y0072880D02*
X0153953Y0072880D01*
X0153953Y0073272D02*
X0206984Y0073272D01*
X0206984Y0073664D02*
X0153953Y0073664D01*
X0153953Y0074057D02*
X0206984Y0074057D01*
X0206984Y0074449D02*
X0153953Y0074449D01*
X0153953Y0074841D02*
X0206984Y0074841D01*
X0206984Y0075233D02*
X0153953Y0075233D01*
X0153953Y0075625D02*
X0206984Y0075625D01*
X0206984Y0076018D02*
X0153953Y0076018D01*
X0153953Y0076410D02*
X0206984Y0076410D01*
X0206984Y0076802D02*
X0153953Y0076802D01*
X0153953Y0077194D02*
X0206984Y0077194D01*
X0206984Y0077586D02*
X0153953Y0077586D01*
X0153953Y0077979D02*
X0206984Y0077979D01*
X0206984Y0078371D02*
X0153953Y0078371D01*
X0153953Y0078763D02*
X0206984Y0078763D01*
X0206984Y0079155D02*
X0153953Y0079155D01*
X0153953Y0079548D02*
X0206984Y0079548D01*
X0206984Y0079940D02*
X0153953Y0079940D01*
X0153953Y0080332D02*
X0206984Y0080332D01*
X0206984Y0080724D02*
X0153953Y0080724D01*
X0153953Y0081116D02*
X0206984Y0081116D01*
X0206984Y0081509D02*
X0153953Y0081509D01*
X0153953Y0081901D02*
X0206984Y0081901D01*
X0206984Y0082293D02*
X0153953Y0082293D01*
X0153953Y0082685D02*
X0206984Y0082685D01*
X0206984Y0083077D02*
X0153953Y0083077D01*
X0153953Y0083470D02*
X0206984Y0083470D01*
X0206984Y0083862D02*
X0153953Y0083862D01*
X0153953Y0084254D02*
X0206984Y0084254D01*
X0206984Y0084646D02*
X0153953Y0084646D01*
X0153946Y0085039D02*
X0206984Y0085039D01*
X0206984Y0085431D02*
X0153912Y0085431D01*
X0153846Y0085823D02*
X0206984Y0085823D01*
X0206984Y0086215D02*
X0153741Y0086215D01*
X0153577Y0086607D02*
X0206984Y0086607D01*
X0206984Y0087000D02*
X0153378Y0087000D01*
X0153103Y0087392D02*
X0206984Y0087392D01*
X0206984Y0087784D02*
X0152742Y0087784D01*
X0152265Y0088176D02*
X0206984Y0088176D01*
X0206984Y0088568D02*
X0151565Y0088568D01*
X0147139Y0088961D02*
X0206984Y0088961D01*
X0206984Y0089353D02*
X0146016Y0089353D01*
X0145403Y0089745D02*
X0206984Y0089745D01*
X0206984Y0090137D02*
X0144977Y0090137D01*
X0144650Y0090529D02*
X0206984Y0090529D01*
X0206984Y0090922D02*
X0144385Y0090922D01*
X0144207Y0091314D02*
X0206984Y0091314D01*
X0206984Y0091706D02*
X0144064Y0091706D01*
X0143963Y0092098D02*
X0206984Y0092098D01*
X0206984Y0092491D02*
X0143915Y0092491D01*
X0143886Y0092883D02*
X0206984Y0092883D01*
X0206984Y0093275D02*
X0143890Y0093275D01*
X0143895Y0093667D02*
X0206984Y0093667D01*
X0206984Y0094059D02*
X0143901Y0094059D01*
X0143906Y0094452D02*
X0206984Y0094452D01*
X0206984Y0094844D02*
X0143911Y0094844D01*
X0143916Y0095236D02*
X0206984Y0095236D01*
X0206984Y0095628D02*
X0143921Y0095628D01*
X0143926Y0096020D02*
X0206984Y0096020D01*
X0206984Y0096413D02*
X0143931Y0096413D01*
X0143936Y0096805D02*
X0206984Y0096805D01*
X0206984Y0097197D02*
X0143941Y0097197D01*
X0143946Y0097589D02*
X0206984Y0097589D01*
X0206984Y0097982D02*
X0143951Y0097982D01*
X0143956Y0098374D02*
X0206984Y0098374D01*
X0206984Y0098766D02*
X0143961Y0098766D01*
X0143966Y0099158D02*
X0206984Y0099158D01*
X0206984Y0099550D02*
X0143971Y0099550D01*
X0143976Y0099943D02*
X0206984Y0099943D01*
X0206984Y0100335D02*
X0143981Y0100335D01*
X0143986Y0100727D02*
X0206984Y0100727D01*
X0206984Y0101119D02*
X0143991Y0101119D01*
X0143996Y0101511D02*
X0206984Y0101511D01*
X0206984Y0101904D02*
X0144001Y0101904D01*
X0144006Y0102296D02*
X0191772Y0102296D01*
X0191823Y0102274D02*
X0194885Y0102274D01*
X0197714Y0103446D01*
X0199879Y0105611D01*
X0201051Y0108440D01*
X0201051Y0111502D01*
X0199879Y0114331D01*
X0197714Y0116496D01*
X0194885Y0117668D01*
X0191823Y0117668D01*
X0188994Y0116496D01*
X0186829Y0114331D01*
X0185657Y0111502D01*
X0185657Y0108440D01*
X0186829Y0105611D01*
X0188994Y0103446D01*
X0191823Y0102274D01*
X0190825Y0102688D02*
X0144011Y0102688D01*
X0144016Y0103080D02*
X0189878Y0103080D01*
X0188968Y0103472D02*
X0144021Y0103472D01*
X0144026Y0103865D02*
X0188576Y0103865D01*
X0188184Y0104257D02*
X0144031Y0104257D01*
X0144036Y0104649D02*
X0187791Y0104649D01*
X0187399Y0105041D02*
X0144041Y0105041D01*
X0144046Y0105434D02*
X0187007Y0105434D01*
X0186740Y0105826D02*
X0144051Y0105826D01*
X0144056Y0106218D02*
X0186578Y0106218D01*
X0186416Y0106610D02*
X0144061Y0106610D01*
X0144066Y0107002D02*
X0186253Y0107002D01*
X0186091Y0107395D02*
X0144071Y0107395D01*
X0144076Y0107787D02*
X0185928Y0107787D01*
X0185766Y0108179D02*
X0144081Y0108179D01*
X0144086Y0108571D02*
X0185657Y0108571D01*
X0185657Y0108963D02*
X0144091Y0108963D01*
X0144096Y0109356D02*
X0185657Y0109356D01*
X0185657Y0109748D02*
X0144101Y0109748D01*
X0144106Y0110140D02*
X0185657Y0110140D01*
X0185657Y0110532D02*
X0144111Y0110532D01*
X0144116Y0110925D02*
X0185657Y0110925D01*
X0185657Y0111317D02*
X0144121Y0111317D01*
X0144126Y0111709D02*
X0185743Y0111709D01*
X0185906Y0112101D02*
X0144131Y0112101D01*
X0144136Y0112493D02*
X0186068Y0112493D01*
X0186230Y0112886D02*
X0144141Y0112886D01*
X0144146Y0113278D02*
X0186393Y0113278D01*
X0186555Y0113670D02*
X0144151Y0113670D01*
X0144156Y0114062D02*
X0186718Y0114062D01*
X0186953Y0114454D02*
X0144161Y0114454D01*
X0144166Y0114847D02*
X0187345Y0114847D01*
X0187737Y0115239D02*
X0144171Y0115239D01*
X0144176Y0115631D02*
X0188129Y0115631D01*
X0188521Y0116023D02*
X0144181Y0116023D01*
X0144186Y0116415D02*
X0188914Y0116415D01*
X0189746Y0116808D02*
X0144191Y0116808D01*
X0144196Y0117200D02*
X0190693Y0117200D01*
X0191640Y0117592D02*
X0144201Y0117592D01*
X0144206Y0117984D02*
X0206984Y0117984D01*
X0206984Y0117592D02*
X0195069Y0117592D01*
X0196016Y0117200D02*
X0206984Y0117200D01*
X0206984Y0116808D02*
X0196963Y0116808D01*
X0197795Y0116415D02*
X0206984Y0116415D01*
X0206984Y0116023D02*
X0198187Y0116023D01*
X0198580Y0115631D02*
X0206984Y0115631D01*
X0206984Y0115239D02*
X0198972Y0115239D01*
X0199364Y0114847D02*
X0206984Y0114847D01*
X0206984Y0114454D02*
X0199756Y0114454D01*
X0199991Y0114062D02*
X0206984Y0114062D01*
X0206984Y0113670D02*
X0200153Y0113670D01*
X0200316Y0113278D02*
X0206984Y0113278D01*
X0206984Y0112886D02*
X0200478Y0112886D01*
X0200641Y0112493D02*
X0206984Y0112493D01*
X0206984Y0112101D02*
X0200803Y0112101D01*
X0200966Y0111709D02*
X0206984Y0111709D01*
X0206984Y0111317D02*
X0201051Y0111317D01*
X0201051Y0110925D02*
X0206984Y0110925D01*
X0206984Y0110532D02*
X0201051Y0110532D01*
X0201051Y0110140D02*
X0206984Y0110140D01*
X0206984Y0109748D02*
X0201051Y0109748D01*
X0201051Y0109356D02*
X0206984Y0109356D01*
X0206984Y0108963D02*
X0201051Y0108963D01*
X0201051Y0108571D02*
X0206984Y0108571D01*
X0206984Y0108179D02*
X0200943Y0108179D01*
X0200780Y0107787D02*
X0206984Y0107787D01*
X0206984Y0107395D02*
X0200618Y0107395D01*
X0200456Y0107002D02*
X0206984Y0107002D01*
X0206984Y0106610D02*
X0200293Y0106610D01*
X0200131Y0106218D02*
X0206984Y0106218D01*
X0206984Y0105826D02*
X0199968Y0105826D01*
X0199702Y0105434D02*
X0206984Y0105434D01*
X0206984Y0105041D02*
X0199309Y0105041D01*
X0198917Y0104649D02*
X0206984Y0104649D01*
X0206984Y0104257D02*
X0198525Y0104257D01*
X0198133Y0103865D02*
X0206984Y0103865D01*
X0206984Y0103472D02*
X0197741Y0103472D01*
X0196831Y0103080D02*
X0206984Y0103080D01*
X0206984Y0102688D02*
X0195884Y0102688D01*
X0194937Y0102296D02*
X0206984Y0102296D01*
X0206984Y0118377D02*
X0144211Y0118377D01*
X0144216Y0118769D02*
X0206984Y0118769D01*
X0206984Y0119161D02*
X0144221Y0119161D01*
X0144226Y0119553D02*
X0206984Y0119553D01*
X0206984Y0119945D02*
X0144231Y0119945D01*
X0144236Y0120338D02*
X0206984Y0120338D01*
X0206984Y0120730D02*
X0144241Y0120730D01*
X0144246Y0121122D02*
X0206984Y0121122D01*
X0206984Y0121514D02*
X0144251Y0121514D01*
X0144256Y0121906D02*
X0206984Y0121906D01*
X0206984Y0122299D02*
X0144288Y0122299D01*
X0144331Y0122691D02*
X0206984Y0122691D01*
X0206984Y0123083D02*
X0144436Y0123083D01*
X0144560Y0123475D02*
X0206984Y0123475D01*
X0206984Y0123868D02*
X0144765Y0123868D01*
X0145001Y0124260D02*
X0206984Y0124260D01*
X0206984Y0124652D02*
X0145327Y0124652D01*
X0145762Y0125044D02*
X0206984Y0125044D01*
X0206984Y0125436D02*
X0146365Y0125436D01*
X0147415Y0125829D02*
X0206984Y0125829D01*
X0206984Y0126221D02*
X0164338Y0126221D01*
X0164464Y0126613D02*
X0206984Y0126613D01*
X0206950Y0127005D02*
X0164499Y0127005D01*
X0164550Y0127397D02*
X0206898Y0127397D01*
X0206793Y0127790D02*
X0164655Y0127790D01*
X0164804Y0128182D02*
X0206645Y0128182D01*
X0206462Y0128574D02*
X0164987Y0128574D01*
X0165259Y0128966D02*
X0206190Y0128966D01*
X0205852Y0129358D02*
X0165597Y0129358D01*
X0166039Y0129751D02*
X0205410Y0129751D01*
X0204766Y0130143D02*
X0166683Y0130143D01*
X0168186Y0130535D02*
X0203262Y0130535D01*
X0193323Y0130535D02*
X0183480Y0130535D01*
X0183480Y0130143D02*
X0193323Y0130143D01*
X0193323Y0129751D02*
X0183480Y0129751D01*
X0183480Y0129358D02*
X0193323Y0129358D01*
X0193323Y0128966D02*
X0183480Y0128966D01*
X0183480Y0128574D02*
X0193323Y0128574D01*
X0183480Y0128574D01*
X0183480Y0162522D01*
X0183487Y0163234D01*
X0183632Y0163930D01*
X0183910Y0164585D01*
X0184311Y0165173D01*
X0184818Y0165671D01*
X0185413Y0166061D01*
X0186073Y0166327D01*
X0186772Y0166459D01*
X0188520Y0166459D01*
X0189285Y0166468D01*
X0190040Y0166344D01*
X0190763Y0166091D01*
X0191430Y0165715D01*
X0192022Y0165230D01*
X0192521Y0164649D01*
X0192911Y0163991D01*
X0193181Y0163275D01*
X0193323Y0162522D01*
X0193323Y0128574D01*
X0193323Y0130927D02*
X0183480Y0130927D01*
X0183480Y0131320D02*
X0193323Y0131320D01*
X0193323Y0131712D02*
X0183480Y0131712D01*
X0183480Y0132104D02*
X0193323Y0132104D01*
X0193323Y0132496D02*
X0183480Y0132496D01*
X0183480Y0132888D02*
X0193323Y0132888D01*
X0193323Y0133281D02*
X0183480Y0133281D01*
X0183480Y0133673D02*
X0193323Y0133673D01*
X0193323Y0134065D02*
X0183480Y0134065D01*
X0183480Y0134457D02*
X0193323Y0134457D01*
X0193323Y0134849D02*
X0183480Y0134849D01*
X0183480Y0135242D02*
X0193323Y0135242D01*
X0193323Y0135634D02*
X0183480Y0135634D01*
X0183480Y0136026D02*
X0193323Y0136026D01*
X0193323Y0136418D02*
X0183480Y0136418D01*
X0183480Y0136811D02*
X0193323Y0136811D01*
X0193323Y0137203D02*
X0183480Y0137203D01*
X0183480Y0137595D02*
X0193323Y0137595D01*
X0193323Y0137987D02*
X0183480Y0137987D01*
X0183480Y0138379D02*
X0193323Y0138379D01*
X0193323Y0138772D02*
X0183480Y0138772D01*
X0183480Y0139164D02*
X0193323Y0139164D01*
X0193323Y0139556D02*
X0183480Y0139556D01*
X0183480Y0139948D02*
X0193323Y0139948D01*
X0193323Y0140340D02*
X0183480Y0140340D01*
X0183480Y0140733D02*
X0193323Y0140733D01*
X0193323Y0141125D02*
X0183480Y0141125D01*
X0183480Y0141517D02*
X0193323Y0141517D01*
X0193323Y0141909D02*
X0183480Y0141909D01*
X0183480Y0142301D02*
X0193323Y0142301D01*
X0193323Y0142694D02*
X0183480Y0142694D01*
X0183480Y0143086D02*
X0193323Y0143086D01*
X0193323Y0143478D02*
X0183480Y0143478D01*
X0183480Y0143870D02*
X0193323Y0143870D01*
X0193323Y0144263D02*
X0183480Y0144263D01*
X0183480Y0144655D02*
X0193323Y0144655D01*
X0193323Y0145047D02*
X0183480Y0145047D01*
X0183480Y0145439D02*
X0193323Y0145439D01*
X0193323Y0145831D02*
X0183480Y0145831D01*
X0183480Y0146224D02*
X0193323Y0146224D01*
X0193323Y0146616D02*
X0183480Y0146616D01*
X0183480Y0147008D02*
X0193323Y0147008D01*
X0193323Y0147400D02*
X0183480Y0147400D01*
X0183480Y0147792D02*
X0193323Y0147792D01*
X0193323Y0148185D02*
X0183480Y0148185D01*
X0183480Y0148577D02*
X0193323Y0148577D01*
X0193323Y0148969D02*
X0183480Y0148969D01*
X0183480Y0149361D02*
X0193323Y0149361D01*
X0193323Y0149754D02*
X0183480Y0149754D01*
X0183480Y0150146D02*
X0193323Y0150146D01*
X0193323Y0150538D02*
X0183480Y0150538D01*
X0183480Y0150930D02*
X0193323Y0150930D01*
X0193323Y0151322D02*
X0183480Y0151322D01*
X0183480Y0151715D02*
X0193323Y0151715D01*
X0193323Y0152107D02*
X0183480Y0152107D01*
X0183480Y0152499D02*
X0193323Y0152499D01*
X0193323Y0152891D02*
X0183480Y0152891D01*
X0183480Y0153283D02*
X0193323Y0153283D01*
X0193323Y0153676D02*
X0183480Y0153676D01*
X0183480Y0154068D02*
X0193323Y0154068D01*
X0193323Y0154460D02*
X0183480Y0154460D01*
X0183480Y0154852D02*
X0193323Y0154852D01*
X0193323Y0155244D02*
X0183480Y0155244D01*
X0183480Y0155637D02*
X0193323Y0155637D01*
X0193323Y0156029D02*
X0183480Y0156029D01*
X0183480Y0156421D02*
X0193323Y0156421D01*
X0193323Y0156813D02*
X0183480Y0156813D01*
X0183480Y0157206D02*
X0193323Y0157206D01*
X0193323Y0157598D02*
X0183480Y0157598D01*
X0183480Y0157990D02*
X0193323Y0157990D01*
X0193323Y0158382D02*
X0183480Y0158382D01*
X0183480Y0158774D02*
X0193323Y0158774D01*
X0193323Y0159167D02*
X0183480Y0159167D01*
X0183480Y0159559D02*
X0193323Y0159559D01*
X0193323Y0159951D02*
X0183480Y0159951D01*
X0183480Y0160343D02*
X0193323Y0160343D01*
X0193323Y0160735D02*
X0183480Y0160735D01*
X0183480Y0161128D02*
X0193323Y0161128D01*
X0193323Y0161520D02*
X0183480Y0161520D01*
X0183480Y0161912D02*
X0193323Y0161912D01*
X0193323Y0162304D02*
X0183480Y0162304D01*
X0183482Y0162697D02*
X0193290Y0162697D01*
X0193216Y0163089D02*
X0183485Y0163089D01*
X0183538Y0163481D02*
X0193103Y0163481D01*
X0192956Y0163873D02*
X0183620Y0163873D01*
X0183774Y0164265D02*
X0192749Y0164265D01*
X0192514Y0164658D02*
X0183960Y0164658D01*
X0184227Y0165050D02*
X0192177Y0165050D01*
X0191764Y0165442D02*
X0184585Y0165442D01*
X0185067Y0165834D02*
X0191219Y0165834D01*
X0190376Y0166226D02*
X0185823Y0166226D01*
X0173316Y0163261D02*
X0173441Y0162522D01*
X0173441Y0148574D01*
X0173316Y0147835D01*
X0173065Y0147130D01*
X0172695Y0146479D01*
X0172218Y0145902D01*
X0171648Y0145417D01*
X0171002Y0145038D01*
X0170300Y0144777D01*
X0169564Y0144642D01*
X0168815Y0144637D01*
X0147406Y0144637D01*
X0146706Y0144769D01*
X0146046Y0145035D01*
X0145451Y0145424D01*
X0144942Y0145923D01*
X0144541Y0146511D01*
X0144263Y0147165D01*
X0144117Y0147862D01*
X0144110Y0148574D01*
X0144110Y0162522D01*
X0144117Y0163234D01*
X0144263Y0163931D01*
X0144541Y0164586D01*
X0144942Y0165173D01*
X0145451Y0165672D01*
X0146046Y0166061D01*
X0146706Y0166327D01*
X0147406Y0166459D01*
X0168815Y0166459D01*
X0169564Y0166454D01*
X0170300Y0166319D01*
X0171002Y0166058D01*
X0171648Y0165679D01*
X0172218Y0165194D01*
X0172695Y0164617D01*
X0173065Y0163966D01*
X0173316Y0163261D01*
X0173345Y0163089D02*
X0144116Y0163089D01*
X0144112Y0162697D02*
X0173412Y0162697D01*
X0173441Y0162304D02*
X0144110Y0162304D01*
X0144110Y0161912D02*
X0173441Y0161912D01*
X0173441Y0161520D02*
X0144110Y0161520D01*
X0144110Y0161128D02*
X0173441Y0161128D01*
X0173441Y0160735D02*
X0144110Y0160735D01*
X0144110Y0160343D02*
X0173441Y0160343D01*
X0173441Y0159951D02*
X0144110Y0159951D01*
X0144110Y0159559D02*
X0173441Y0159559D01*
X0173441Y0159167D02*
X0144110Y0159167D01*
X0144110Y0158774D02*
X0173441Y0158774D01*
X0173441Y0158382D02*
X0144110Y0158382D01*
X0144110Y0157990D02*
X0173441Y0157990D01*
X0173441Y0157598D02*
X0144110Y0157598D01*
X0144110Y0157206D02*
X0173441Y0157206D01*
X0173441Y0156813D02*
X0144110Y0156813D01*
X0144110Y0156421D02*
X0173441Y0156421D01*
X0173441Y0156029D02*
X0144110Y0156029D01*
X0144110Y0155637D02*
X0173441Y0155637D01*
X0173441Y0155244D02*
X0144110Y0155244D01*
X0144110Y0154852D02*
X0173441Y0154852D01*
X0173441Y0154460D02*
X0144110Y0154460D01*
X0144110Y0154068D02*
X0173441Y0154068D01*
X0173441Y0153676D02*
X0144110Y0153676D01*
X0144110Y0153283D02*
X0173441Y0153283D01*
X0173441Y0152891D02*
X0144110Y0152891D01*
X0144110Y0152499D02*
X0173441Y0152499D01*
X0173441Y0152107D02*
X0144110Y0152107D01*
X0144110Y0151715D02*
X0173441Y0151715D01*
X0173441Y0151322D02*
X0144110Y0151322D01*
X0144110Y0150930D02*
X0173441Y0150930D01*
X0173441Y0150538D02*
X0144110Y0150538D01*
X0144110Y0150146D02*
X0173441Y0150146D01*
X0173441Y0149754D02*
X0144110Y0149754D01*
X0144110Y0149361D02*
X0173441Y0149361D01*
X0173441Y0148969D02*
X0144110Y0148969D01*
X0144110Y0148577D02*
X0173441Y0148577D01*
X0173375Y0148185D02*
X0144114Y0148185D01*
X0144132Y0147792D02*
X0173301Y0147792D01*
X0173161Y0147400D02*
X0144214Y0147400D01*
X0144330Y0147008D02*
X0172996Y0147008D01*
X0172773Y0146616D02*
X0144497Y0146616D01*
X0144737Y0146224D02*
X0172484Y0146224D01*
X0172135Y0145831D02*
X0145036Y0145831D01*
X0145435Y0145439D02*
X0171674Y0145439D01*
X0171017Y0145047D02*
X0146027Y0145047D01*
X0147310Y0144655D02*
X0169634Y0144655D01*
X0173238Y0163481D02*
X0144169Y0163481D01*
X0144251Y0163873D02*
X0173098Y0163873D01*
X0172895Y0164265D02*
X0144405Y0164265D01*
X0144591Y0164658D02*
X0172662Y0164658D01*
X0172337Y0165050D02*
X0144858Y0165050D01*
X0145216Y0165442D02*
X0171926Y0165442D01*
X0171383Y0165834D02*
X0145699Y0165834D01*
X0146456Y0166226D02*
X0170549Y0166226D01*
X0072457Y0125353D02*
X0072457Y0095987D01*
X0051827Y0095987D01*
X0051827Y0121416D01*
X0051887Y0122100D01*
X0052064Y0122763D01*
X0052354Y0123385D01*
X0052748Y0123947D01*
X0053233Y0124432D01*
X0053795Y0124826D01*
X0054417Y0125116D01*
X0055080Y0125293D01*
X0055764Y0125353D01*
X0072457Y0125353D01*
X0072457Y0125044D02*
X0054264Y0125044D01*
X0053547Y0124652D02*
X0072457Y0124652D01*
X0072457Y0124260D02*
X0053061Y0124260D01*
X0052692Y0123868D02*
X0072457Y0123868D01*
X0072457Y0123475D02*
X0052418Y0123475D01*
X0052214Y0123083D02*
X0072457Y0123083D01*
X0072457Y0122691D02*
X0052045Y0122691D01*
X0051940Y0122299D02*
X0072457Y0122299D01*
X0072457Y0121906D02*
X0051870Y0121906D01*
X0051835Y0121514D02*
X0072457Y0121514D01*
X0072457Y0121122D02*
X0051827Y0121122D01*
X0051827Y0120730D02*
X0072457Y0120730D01*
X0072457Y0120338D02*
X0051827Y0120338D01*
X0051827Y0119945D02*
X0072457Y0119945D01*
X0072457Y0119553D02*
X0051827Y0119553D01*
X0051827Y0119161D02*
X0072457Y0119161D01*
X0072457Y0118769D02*
X0051827Y0118769D01*
X0051827Y0118377D02*
X0072457Y0118377D01*
X0072457Y0117984D02*
X0051827Y0117984D01*
X0051827Y0117592D02*
X0072457Y0117592D01*
X0072457Y0117200D02*
X0051827Y0117200D01*
X0051827Y0116808D02*
X0072457Y0116808D01*
X0072457Y0116415D02*
X0051827Y0116415D01*
X0051827Y0116023D02*
X0072457Y0116023D01*
X0072457Y0115631D02*
X0051827Y0115631D01*
X0051827Y0115239D02*
X0072457Y0115239D01*
X0072457Y0114847D02*
X0051827Y0114847D01*
X0051827Y0114454D02*
X0072457Y0114454D01*
X0072457Y0114062D02*
X0051827Y0114062D01*
X0051827Y0113670D02*
X0072457Y0113670D01*
X0072457Y0113278D02*
X0051827Y0113278D01*
X0051827Y0112886D02*
X0072457Y0112886D01*
X0072457Y0112493D02*
X0051827Y0112493D01*
X0051827Y0112101D02*
X0072457Y0112101D01*
X0072457Y0111709D02*
X0051827Y0111709D01*
X0051827Y0111317D02*
X0072457Y0111317D01*
X0072457Y0110925D02*
X0051827Y0110925D01*
X0051827Y0110532D02*
X0072457Y0110532D01*
X0072457Y0110140D02*
X0051827Y0110140D01*
X0051827Y0109748D02*
X0072457Y0109748D01*
X0072457Y0109356D02*
X0051827Y0109356D01*
X0051827Y0108963D02*
X0072457Y0108963D01*
X0072457Y0108571D02*
X0051827Y0108571D01*
X0051827Y0108179D02*
X0072457Y0108179D01*
X0072457Y0107787D02*
X0051827Y0107787D01*
X0051827Y0107395D02*
X0072457Y0107395D01*
X0072457Y0107002D02*
X0051827Y0107002D01*
X0051827Y0106610D02*
X0072457Y0106610D01*
X0072457Y0106218D02*
X0051827Y0106218D01*
X0051827Y0105826D02*
X0072457Y0105826D01*
X0072457Y0105434D02*
X0051827Y0105434D01*
X0051827Y0105041D02*
X0072457Y0105041D01*
X0072457Y0104649D02*
X0051827Y0104649D01*
X0051827Y0104257D02*
X0072457Y0104257D01*
X0072457Y0103865D02*
X0051827Y0103865D01*
X0051827Y0103472D02*
X0072457Y0103472D01*
X0072457Y0103080D02*
X0051827Y0103080D01*
X0051827Y0102688D02*
X0072457Y0102688D01*
X0072457Y0102296D02*
X0051827Y0102296D01*
X0051827Y0101904D02*
X0072457Y0101904D01*
X0072457Y0101511D02*
X0051827Y0101511D01*
X0051827Y0101119D02*
X0072457Y0101119D01*
X0072457Y0100727D02*
X0051827Y0100727D01*
X0051827Y0100335D02*
X0072457Y0100335D01*
X0072457Y0099943D02*
X0051827Y0099943D01*
X0051827Y0099550D02*
X0072457Y0099550D01*
X0072457Y0099158D02*
X0051827Y0099158D01*
X0051827Y0098766D02*
X0072457Y0098766D01*
X0072457Y0098374D02*
X0051827Y0098374D01*
X0051827Y0097982D02*
X0072457Y0097982D01*
X0072457Y0097589D02*
X0051827Y0097589D01*
X0051827Y0097197D02*
X0072457Y0097197D01*
X0072457Y0096805D02*
X0051827Y0096805D01*
X0051827Y0096413D02*
X0072457Y0096413D01*
X0072457Y0096020D02*
X0051827Y0096020D01*
X0154441Y0061898D02*
X0206496Y0061898D01*
X0206241Y0061506D02*
X0154696Y0061506D01*
X0155012Y0061114D02*
X0205925Y0061114D01*
X0205514Y0060721D02*
X0155423Y0060721D01*
X0156015Y0060329D02*
X0204922Y0060329D01*
X0203850Y0059937D02*
X0157087Y0059937D01*
D11*
X0195882Y0019609D02*
X0195882Y0005042D01*
X0210055Y0033782D02*
X0211039Y0033782D01*
X0186854Y0109971D02*
X0186856Y0110132D01*
X0186862Y0110292D01*
X0186872Y0110453D01*
X0186886Y0110613D01*
X0186904Y0110773D01*
X0186925Y0110932D01*
X0186951Y0111091D01*
X0186981Y0111249D01*
X0187014Y0111406D01*
X0187052Y0111563D01*
X0187093Y0111718D01*
X0187138Y0111872D01*
X0187187Y0112025D01*
X0187240Y0112177D01*
X0187296Y0112328D01*
X0187357Y0112477D01*
X0187420Y0112625D01*
X0187488Y0112771D01*
X0187559Y0112915D01*
X0187633Y0113057D01*
X0187711Y0113198D01*
X0187793Y0113336D01*
X0187878Y0113473D01*
X0187966Y0113607D01*
X0188058Y0113739D01*
X0188153Y0113869D01*
X0188251Y0113997D01*
X0188352Y0114122D01*
X0188456Y0114244D01*
X0188563Y0114364D01*
X0188673Y0114481D01*
X0188786Y0114596D01*
X0188902Y0114707D01*
X0189021Y0114816D01*
X0189142Y0114921D01*
X0189266Y0115024D01*
X0189392Y0115124D01*
X0189520Y0115220D01*
X0189651Y0115313D01*
X0189785Y0115403D01*
X0189920Y0115490D01*
X0190058Y0115573D01*
X0190197Y0115653D01*
X0190339Y0115729D01*
X0190482Y0115802D01*
X0190627Y0115871D01*
X0190774Y0115937D01*
X0190922Y0115999D01*
X0191072Y0116057D01*
X0191223Y0116112D01*
X0191376Y0116163D01*
X0191530Y0116210D01*
X0191685Y0116253D01*
X0191841Y0116292D01*
X0191997Y0116328D01*
X0192155Y0116359D01*
X0192313Y0116387D01*
X0192472Y0116411D01*
X0192632Y0116431D01*
X0192792Y0116447D01*
X0192952Y0116459D01*
X0193113Y0116467D01*
X0193274Y0116471D01*
X0193434Y0116471D01*
X0193595Y0116467D01*
X0193756Y0116459D01*
X0193916Y0116447D01*
X0194076Y0116431D01*
X0194236Y0116411D01*
X0194395Y0116387D01*
X0194553Y0116359D01*
X0194711Y0116328D01*
X0194867Y0116292D01*
X0195023Y0116253D01*
X0195178Y0116210D01*
X0195332Y0116163D01*
X0195485Y0116112D01*
X0195636Y0116057D01*
X0195786Y0115999D01*
X0195934Y0115937D01*
X0196081Y0115871D01*
X0196226Y0115802D01*
X0196369Y0115729D01*
X0196511Y0115653D01*
X0196650Y0115573D01*
X0196788Y0115490D01*
X0196923Y0115403D01*
X0197057Y0115313D01*
X0197188Y0115220D01*
X0197316Y0115124D01*
X0197442Y0115024D01*
X0197566Y0114921D01*
X0197687Y0114816D01*
X0197806Y0114707D01*
X0197922Y0114596D01*
X0198035Y0114481D01*
X0198145Y0114364D01*
X0198252Y0114244D01*
X0198356Y0114122D01*
X0198457Y0113997D01*
X0198555Y0113869D01*
X0198650Y0113739D01*
X0198742Y0113607D01*
X0198830Y0113473D01*
X0198915Y0113336D01*
X0198997Y0113198D01*
X0199075Y0113057D01*
X0199149Y0112915D01*
X0199220Y0112771D01*
X0199288Y0112625D01*
X0199351Y0112477D01*
X0199412Y0112328D01*
X0199468Y0112177D01*
X0199521Y0112025D01*
X0199570Y0111872D01*
X0199615Y0111718D01*
X0199656Y0111563D01*
X0199694Y0111406D01*
X0199727Y0111249D01*
X0199757Y0111091D01*
X0199783Y0110932D01*
X0199804Y0110773D01*
X0199822Y0110613D01*
X0199836Y0110453D01*
X0199846Y0110292D01*
X0199852Y0110132D01*
X0199854Y0109971D01*
X0199852Y0109810D01*
X0199846Y0109650D01*
X0199836Y0109489D01*
X0199822Y0109329D01*
X0199804Y0109169D01*
X0199783Y0109010D01*
X0199757Y0108851D01*
X0199727Y0108693D01*
X0199694Y0108536D01*
X0199656Y0108379D01*
X0199615Y0108224D01*
X0199570Y0108070D01*
X0199521Y0107917D01*
X0199468Y0107765D01*
X0199412Y0107614D01*
X0199351Y0107465D01*
X0199288Y0107317D01*
X0199220Y0107171D01*
X0199149Y0107027D01*
X0199075Y0106885D01*
X0198997Y0106744D01*
X0198915Y0106606D01*
X0198830Y0106469D01*
X0198742Y0106335D01*
X0198650Y0106203D01*
X0198555Y0106073D01*
X0198457Y0105945D01*
X0198356Y0105820D01*
X0198252Y0105698D01*
X0198145Y0105578D01*
X0198035Y0105461D01*
X0197922Y0105346D01*
X0197806Y0105235D01*
X0197687Y0105126D01*
X0197566Y0105021D01*
X0197442Y0104918D01*
X0197316Y0104818D01*
X0197188Y0104722D01*
X0197057Y0104629D01*
X0196923Y0104539D01*
X0196788Y0104452D01*
X0196650Y0104369D01*
X0196511Y0104289D01*
X0196369Y0104213D01*
X0196226Y0104140D01*
X0196081Y0104071D01*
X0195934Y0104005D01*
X0195786Y0103943D01*
X0195636Y0103885D01*
X0195485Y0103830D01*
X0195332Y0103779D01*
X0195178Y0103732D01*
X0195023Y0103689D01*
X0194867Y0103650D01*
X0194711Y0103614D01*
X0194553Y0103583D01*
X0194395Y0103555D01*
X0194236Y0103531D01*
X0194076Y0103511D01*
X0193916Y0103495D01*
X0193756Y0103483D01*
X0193595Y0103475D01*
X0193434Y0103471D01*
X0193274Y0103471D01*
X0193113Y0103475D01*
X0192952Y0103483D01*
X0192792Y0103495D01*
X0192632Y0103511D01*
X0192472Y0103531D01*
X0192313Y0103555D01*
X0192155Y0103583D01*
X0191997Y0103614D01*
X0191841Y0103650D01*
X0191685Y0103689D01*
X0191530Y0103732D01*
X0191376Y0103779D01*
X0191223Y0103830D01*
X0191072Y0103885D01*
X0190922Y0103943D01*
X0190774Y0104005D01*
X0190627Y0104071D01*
X0190482Y0104140D01*
X0190339Y0104213D01*
X0190197Y0104289D01*
X0190058Y0104369D01*
X0189920Y0104452D01*
X0189785Y0104539D01*
X0189651Y0104629D01*
X0189520Y0104722D01*
X0189392Y0104818D01*
X0189266Y0104918D01*
X0189142Y0105021D01*
X0189021Y0105126D01*
X0188902Y0105235D01*
X0188786Y0105346D01*
X0188673Y0105461D01*
X0188563Y0105578D01*
X0188456Y0105698D01*
X0188352Y0105820D01*
X0188251Y0105945D01*
X0188153Y0106073D01*
X0188058Y0106203D01*
X0187966Y0106335D01*
X0187878Y0106469D01*
X0187793Y0106606D01*
X0187711Y0106744D01*
X0187633Y0106885D01*
X0187559Y0107027D01*
X0187488Y0107171D01*
X0187420Y0107317D01*
X0187357Y0107465D01*
X0187296Y0107614D01*
X0187240Y0107765D01*
X0187187Y0107917D01*
X0187138Y0108070D01*
X0187093Y0108224D01*
X0187052Y0108379D01*
X0187014Y0108536D01*
X0186981Y0108693D01*
X0186951Y0108851D01*
X0186925Y0109010D01*
X0186904Y0109169D01*
X0186886Y0109329D01*
X0186872Y0109489D01*
X0186862Y0109650D01*
X0186856Y0109810D01*
X0186854Y0109971D01*
X0203362Y0156026D02*
X0203364Y0156195D01*
X0203370Y0156364D01*
X0203381Y0156533D01*
X0203395Y0156701D01*
X0203414Y0156869D01*
X0203437Y0157037D01*
X0203463Y0157204D01*
X0203494Y0157370D01*
X0203529Y0157536D01*
X0203568Y0157700D01*
X0203612Y0157864D01*
X0203659Y0158026D01*
X0203710Y0158187D01*
X0203765Y0158347D01*
X0203824Y0158506D01*
X0203886Y0158663D01*
X0203953Y0158818D01*
X0204024Y0158972D01*
X0204098Y0159124D01*
X0204176Y0159274D01*
X0204257Y0159422D01*
X0204342Y0159568D01*
X0204431Y0159712D01*
X0204523Y0159854D01*
X0204619Y0159993D01*
X0204718Y0160130D01*
X0204820Y0160265D01*
X0204926Y0160397D01*
X0205035Y0160526D01*
X0205147Y0160653D01*
X0205262Y0160777D01*
X0205380Y0160898D01*
X0205501Y0161016D01*
X0205625Y0161131D01*
X0205752Y0161243D01*
X0205881Y0161352D01*
X0206013Y0161458D01*
X0206148Y0161560D01*
X0206285Y0161659D01*
X0206424Y0161755D01*
X0206566Y0161847D01*
X0206710Y0161936D01*
X0206856Y0162021D01*
X0207004Y0162102D01*
X0207154Y0162180D01*
X0207306Y0162254D01*
X0207460Y0162325D01*
X0207615Y0162392D01*
X0207772Y0162454D01*
X0207931Y0162513D01*
X0208091Y0162568D01*
X0208252Y0162619D01*
X0208414Y0162666D01*
X0208578Y0162710D01*
X0208742Y0162749D01*
X0208908Y0162784D01*
X0209074Y0162815D01*
X0209241Y0162841D01*
X0209409Y0162864D01*
X0209577Y0162883D01*
X0209745Y0162897D01*
X0209914Y0162908D01*
X0210083Y0162914D01*
X0210252Y0162916D01*
X0210421Y0162914D01*
X0210590Y0162908D01*
X0210759Y0162897D01*
X0210927Y0162883D01*
X0211095Y0162864D01*
X0211263Y0162841D01*
X0211430Y0162815D01*
X0211596Y0162784D01*
X0211762Y0162749D01*
X0211926Y0162710D01*
X0212090Y0162666D01*
X0212252Y0162619D01*
X0212413Y0162568D01*
X0212573Y0162513D01*
X0212732Y0162454D01*
X0212889Y0162392D01*
X0213044Y0162325D01*
X0213198Y0162254D01*
X0213350Y0162180D01*
X0213500Y0162102D01*
X0213648Y0162021D01*
X0213794Y0161936D01*
X0213938Y0161847D01*
X0214080Y0161755D01*
X0214219Y0161659D01*
X0214356Y0161560D01*
X0214491Y0161458D01*
X0214623Y0161352D01*
X0214752Y0161243D01*
X0214879Y0161131D01*
X0215003Y0161016D01*
X0215124Y0160898D01*
X0215242Y0160777D01*
X0215357Y0160653D01*
X0215469Y0160526D01*
X0215578Y0160397D01*
X0215684Y0160265D01*
X0215786Y0160130D01*
X0215885Y0159993D01*
X0215981Y0159854D01*
X0216073Y0159712D01*
X0216162Y0159568D01*
X0216247Y0159422D01*
X0216328Y0159274D01*
X0216406Y0159124D01*
X0216480Y0158972D01*
X0216551Y0158818D01*
X0216618Y0158663D01*
X0216680Y0158506D01*
X0216739Y0158347D01*
X0216794Y0158187D01*
X0216845Y0158026D01*
X0216892Y0157864D01*
X0216936Y0157700D01*
X0216975Y0157536D01*
X0217010Y0157370D01*
X0217041Y0157204D01*
X0217067Y0157037D01*
X0217090Y0156869D01*
X0217109Y0156701D01*
X0217123Y0156533D01*
X0217134Y0156364D01*
X0217140Y0156195D01*
X0217142Y0156026D01*
X0217140Y0155857D01*
X0217134Y0155688D01*
X0217123Y0155519D01*
X0217109Y0155351D01*
X0217090Y0155183D01*
X0217067Y0155015D01*
X0217041Y0154848D01*
X0217010Y0154682D01*
X0216975Y0154516D01*
X0216936Y0154352D01*
X0216892Y0154188D01*
X0216845Y0154026D01*
X0216794Y0153865D01*
X0216739Y0153705D01*
X0216680Y0153546D01*
X0216618Y0153389D01*
X0216551Y0153234D01*
X0216480Y0153080D01*
X0216406Y0152928D01*
X0216328Y0152778D01*
X0216247Y0152630D01*
X0216162Y0152484D01*
X0216073Y0152340D01*
X0215981Y0152198D01*
X0215885Y0152059D01*
X0215786Y0151922D01*
X0215684Y0151787D01*
X0215578Y0151655D01*
X0215469Y0151526D01*
X0215357Y0151399D01*
X0215242Y0151275D01*
X0215124Y0151154D01*
X0215003Y0151036D01*
X0214879Y0150921D01*
X0214752Y0150809D01*
X0214623Y0150700D01*
X0214491Y0150594D01*
X0214356Y0150492D01*
X0214219Y0150393D01*
X0214080Y0150297D01*
X0213938Y0150205D01*
X0213794Y0150116D01*
X0213648Y0150031D01*
X0213500Y0149950D01*
X0213350Y0149872D01*
X0213198Y0149798D01*
X0213044Y0149727D01*
X0212889Y0149660D01*
X0212732Y0149598D01*
X0212573Y0149539D01*
X0212413Y0149484D01*
X0212252Y0149433D01*
X0212090Y0149386D01*
X0211926Y0149342D01*
X0211762Y0149303D01*
X0211596Y0149268D01*
X0211430Y0149237D01*
X0211263Y0149211D01*
X0211095Y0149188D01*
X0210927Y0149169D01*
X0210759Y0149155D01*
X0210590Y0149144D01*
X0210421Y0149138D01*
X0210252Y0149136D01*
X0210083Y0149138D01*
X0209914Y0149144D01*
X0209745Y0149155D01*
X0209577Y0149169D01*
X0209409Y0149188D01*
X0209241Y0149211D01*
X0209074Y0149237D01*
X0208908Y0149268D01*
X0208742Y0149303D01*
X0208578Y0149342D01*
X0208414Y0149386D01*
X0208252Y0149433D01*
X0208091Y0149484D01*
X0207931Y0149539D01*
X0207772Y0149598D01*
X0207615Y0149660D01*
X0207460Y0149727D01*
X0207306Y0149798D01*
X0207154Y0149872D01*
X0207004Y0149950D01*
X0206856Y0150031D01*
X0206710Y0150116D01*
X0206566Y0150205D01*
X0206424Y0150297D01*
X0206285Y0150393D01*
X0206148Y0150492D01*
X0206013Y0150594D01*
X0205881Y0150700D01*
X0205752Y0150809D01*
X0205625Y0150921D01*
X0205501Y0151036D01*
X0205380Y0151154D01*
X0205262Y0151275D01*
X0205147Y0151399D01*
X0205035Y0151526D01*
X0204926Y0151655D01*
X0204820Y0151787D01*
X0204718Y0151922D01*
X0204619Y0152059D01*
X0204523Y0152198D01*
X0204431Y0152340D01*
X0204342Y0152484D01*
X0204257Y0152630D01*
X0204176Y0152778D01*
X0204098Y0152928D01*
X0204024Y0153080D01*
X0203953Y0153234D01*
X0203886Y0153389D01*
X0203824Y0153546D01*
X0203765Y0153705D01*
X0203710Y0153865D01*
X0203659Y0154026D01*
X0203612Y0154188D01*
X0203568Y0154352D01*
X0203529Y0154516D01*
X0203494Y0154682D01*
X0203463Y0154848D01*
X0203437Y0155015D01*
X0203414Y0155183D01*
X0203395Y0155351D01*
X0203381Y0155519D01*
X0203370Y0155688D01*
X0203364Y0155857D01*
X0203362Y0156026D01*
X0015173Y0141656D02*
X0014189Y0141656D01*
X0008086Y0019412D02*
X0008088Y0019581D01*
X0008094Y0019750D01*
X0008105Y0019919D01*
X0008119Y0020087D01*
X0008138Y0020255D01*
X0008161Y0020423D01*
X0008187Y0020590D01*
X0008218Y0020756D01*
X0008253Y0020922D01*
X0008292Y0021086D01*
X0008336Y0021250D01*
X0008383Y0021412D01*
X0008434Y0021573D01*
X0008489Y0021733D01*
X0008548Y0021892D01*
X0008610Y0022049D01*
X0008677Y0022204D01*
X0008748Y0022358D01*
X0008822Y0022510D01*
X0008900Y0022660D01*
X0008981Y0022808D01*
X0009066Y0022954D01*
X0009155Y0023098D01*
X0009247Y0023240D01*
X0009343Y0023379D01*
X0009442Y0023516D01*
X0009544Y0023651D01*
X0009650Y0023783D01*
X0009759Y0023912D01*
X0009871Y0024039D01*
X0009986Y0024163D01*
X0010104Y0024284D01*
X0010225Y0024402D01*
X0010349Y0024517D01*
X0010476Y0024629D01*
X0010605Y0024738D01*
X0010737Y0024844D01*
X0010872Y0024946D01*
X0011009Y0025045D01*
X0011148Y0025141D01*
X0011290Y0025233D01*
X0011434Y0025322D01*
X0011580Y0025407D01*
X0011728Y0025488D01*
X0011878Y0025566D01*
X0012030Y0025640D01*
X0012184Y0025711D01*
X0012339Y0025778D01*
X0012496Y0025840D01*
X0012655Y0025899D01*
X0012815Y0025954D01*
X0012976Y0026005D01*
X0013138Y0026052D01*
X0013302Y0026096D01*
X0013466Y0026135D01*
X0013632Y0026170D01*
X0013798Y0026201D01*
X0013965Y0026227D01*
X0014133Y0026250D01*
X0014301Y0026269D01*
X0014469Y0026283D01*
X0014638Y0026294D01*
X0014807Y0026300D01*
X0014976Y0026302D01*
X0015145Y0026300D01*
X0015314Y0026294D01*
X0015483Y0026283D01*
X0015651Y0026269D01*
X0015819Y0026250D01*
X0015987Y0026227D01*
X0016154Y0026201D01*
X0016320Y0026170D01*
X0016486Y0026135D01*
X0016650Y0026096D01*
X0016814Y0026052D01*
X0016976Y0026005D01*
X0017137Y0025954D01*
X0017297Y0025899D01*
X0017456Y0025840D01*
X0017613Y0025778D01*
X0017768Y0025711D01*
X0017922Y0025640D01*
X0018074Y0025566D01*
X0018224Y0025488D01*
X0018372Y0025407D01*
X0018518Y0025322D01*
X0018662Y0025233D01*
X0018804Y0025141D01*
X0018943Y0025045D01*
X0019080Y0024946D01*
X0019215Y0024844D01*
X0019347Y0024738D01*
X0019476Y0024629D01*
X0019603Y0024517D01*
X0019727Y0024402D01*
X0019848Y0024284D01*
X0019966Y0024163D01*
X0020081Y0024039D01*
X0020193Y0023912D01*
X0020302Y0023783D01*
X0020408Y0023651D01*
X0020510Y0023516D01*
X0020609Y0023379D01*
X0020705Y0023240D01*
X0020797Y0023098D01*
X0020886Y0022954D01*
X0020971Y0022808D01*
X0021052Y0022660D01*
X0021130Y0022510D01*
X0021204Y0022358D01*
X0021275Y0022204D01*
X0021342Y0022049D01*
X0021404Y0021892D01*
X0021463Y0021733D01*
X0021518Y0021573D01*
X0021569Y0021412D01*
X0021616Y0021250D01*
X0021660Y0021086D01*
X0021699Y0020922D01*
X0021734Y0020756D01*
X0021765Y0020590D01*
X0021791Y0020423D01*
X0021814Y0020255D01*
X0021833Y0020087D01*
X0021847Y0019919D01*
X0021858Y0019750D01*
X0021864Y0019581D01*
X0021866Y0019412D01*
X0021864Y0019243D01*
X0021858Y0019074D01*
X0021847Y0018905D01*
X0021833Y0018737D01*
X0021814Y0018569D01*
X0021791Y0018401D01*
X0021765Y0018234D01*
X0021734Y0018068D01*
X0021699Y0017902D01*
X0021660Y0017738D01*
X0021616Y0017574D01*
X0021569Y0017412D01*
X0021518Y0017251D01*
X0021463Y0017091D01*
X0021404Y0016932D01*
X0021342Y0016775D01*
X0021275Y0016620D01*
X0021204Y0016466D01*
X0021130Y0016314D01*
X0021052Y0016164D01*
X0020971Y0016016D01*
X0020886Y0015870D01*
X0020797Y0015726D01*
X0020705Y0015584D01*
X0020609Y0015445D01*
X0020510Y0015308D01*
X0020408Y0015173D01*
X0020302Y0015041D01*
X0020193Y0014912D01*
X0020081Y0014785D01*
X0019966Y0014661D01*
X0019848Y0014540D01*
X0019727Y0014422D01*
X0019603Y0014307D01*
X0019476Y0014195D01*
X0019347Y0014086D01*
X0019215Y0013980D01*
X0019080Y0013878D01*
X0018943Y0013779D01*
X0018804Y0013683D01*
X0018662Y0013591D01*
X0018518Y0013502D01*
X0018372Y0013417D01*
X0018224Y0013336D01*
X0018074Y0013258D01*
X0017922Y0013184D01*
X0017768Y0013113D01*
X0017613Y0013046D01*
X0017456Y0012984D01*
X0017297Y0012925D01*
X0017137Y0012870D01*
X0016976Y0012819D01*
X0016814Y0012772D01*
X0016650Y0012728D01*
X0016486Y0012689D01*
X0016320Y0012654D01*
X0016154Y0012623D01*
X0015987Y0012597D01*
X0015819Y0012574D01*
X0015651Y0012555D01*
X0015483Y0012541D01*
X0015314Y0012530D01*
X0015145Y0012524D01*
X0014976Y0012522D01*
X0014807Y0012524D01*
X0014638Y0012530D01*
X0014469Y0012541D01*
X0014301Y0012555D01*
X0014133Y0012574D01*
X0013965Y0012597D01*
X0013798Y0012623D01*
X0013632Y0012654D01*
X0013466Y0012689D01*
X0013302Y0012728D01*
X0013138Y0012772D01*
X0012976Y0012819D01*
X0012815Y0012870D01*
X0012655Y0012925D01*
X0012496Y0012984D01*
X0012339Y0013046D01*
X0012184Y0013113D01*
X0012030Y0013184D01*
X0011878Y0013258D01*
X0011728Y0013336D01*
X0011580Y0013417D01*
X0011434Y0013502D01*
X0011290Y0013591D01*
X0011148Y0013683D01*
X0011009Y0013779D01*
X0010872Y0013878D01*
X0010737Y0013980D01*
X0010605Y0014086D01*
X0010476Y0014195D01*
X0010349Y0014307D01*
X0010225Y0014422D01*
X0010104Y0014540D01*
X0009986Y0014661D01*
X0009871Y0014785D01*
X0009759Y0014912D01*
X0009650Y0015041D01*
X0009544Y0015173D01*
X0009442Y0015308D01*
X0009343Y0015445D01*
X0009247Y0015584D01*
X0009155Y0015726D01*
X0009066Y0015870D01*
X0008981Y0016016D01*
X0008900Y0016164D01*
X0008822Y0016314D01*
X0008748Y0016466D01*
X0008677Y0016620D01*
X0008610Y0016775D01*
X0008548Y0016932D01*
X0008489Y0017091D01*
X0008434Y0017251D01*
X0008383Y0017412D01*
X0008336Y0017574D01*
X0008292Y0017738D01*
X0008253Y0017902D01*
X0008218Y0018068D01*
X0008187Y0018234D01*
X0008161Y0018401D01*
X0008138Y0018569D01*
X0008119Y0018737D01*
X0008105Y0018905D01*
X0008094Y0019074D01*
X0008088Y0019243D01*
X0008086Y0019412D01*
D12*
X0146492Y0019471D03*
X0146492Y0022030D03*
X0146492Y0024589D03*
X0146492Y0027148D03*
X0146492Y0029707D03*
X0146492Y0032267D03*
X0146492Y0034826D03*
X0146492Y0037385D03*
X0146492Y0039944D03*
X0146492Y0042503D03*
X0170508Y0042503D03*
X0170508Y0039944D03*
X0170508Y0037385D03*
X0170508Y0034826D03*
X0170508Y0032267D03*
X0170508Y0029707D03*
X0170508Y0027148D03*
X0170508Y0024589D03*
X0170508Y0022030D03*
X0170508Y0019471D03*
D13*
X0094500Y0021822D03*
X0086894Y0024534D03*
X0094500Y0028515D03*
X0086894Y0031227D03*
X0038610Y0028050D03*
X0038610Y0021357D03*
X0092012Y0093042D03*
X0092012Y0099735D03*
D14*
X0153323Y0012877D03*
X0160213Y0012877D03*
D15*
X0179543Y0027495D03*
X0179543Y0034385D03*
X0079441Y0033495D03*
X0079441Y0040385D03*
X0058909Y0057298D03*
X0058909Y0064188D03*
D16*
X0077335Y0099078D03*
X0084028Y0099078D03*
X0163815Y0047936D03*
X0170508Y0047936D03*
X0167555Y0013074D03*
X0174248Y0013074D03*
D17*
X0076878Y0028038D02*
X0070941Y0028038D01*
X0051287Y0028038D02*
X0045350Y0028038D01*
X0045350Y0045755D02*
X0051287Y0045755D01*
X0070941Y0045755D02*
X0076878Y0045755D01*
D18*
X0048862Y0136349D03*
D19*
X0048862Y0156349D03*
D20*
X0031000Y0072215D03*
X0031000Y0053318D03*
D21*
X0129201Y0149452D02*
X0129201Y0159452D01*
X0148886Y0159452D02*
X0148886Y0149452D01*
X0168571Y0149452D02*
X0168571Y0159452D01*
X0188256Y0159452D02*
X0188256Y0149452D01*
D22*
X0113323Y0160341D03*
X0073323Y0160341D03*
X0182150Y0047857D03*
X0192150Y0047857D03*
D23*
X0187535Y0034810D03*
X0187535Y0026936D03*
X0087236Y0048058D03*
X0087236Y0055932D03*
X0050150Y0056806D03*
X0050150Y0064680D03*
D24*
X0066118Y0106857D03*
X0066118Y0111857D03*
X0066118Y0116857D03*
X0066118Y0121857D03*
X0086591Y0121857D03*
X0086591Y0111857D03*
X0086591Y0106857D03*
D25*
X0064224Y0079570D03*
X0048280Y0079570D03*
X0037949Y0085896D03*
X0022004Y0085896D03*
D26*
X0029768Y0108353D03*
X0054571Y0108353D03*
D27*
X0083083Y0086432D03*
X0083083Y0070290D03*
D28*
X0121054Y0099971D02*
X0127654Y0099971D01*
X0127654Y0109971D02*
X0121054Y0109971D01*
X0124354Y0109971D02*
X0148827Y0109971D01*
X0162870Y0109971D01*
X0127654Y0119971D02*
X0121054Y0119971D01*
D29*
X0122201Y0087974D02*
X0122201Y0082774D01*
X0132201Y0082774D02*
X0132201Y0087974D01*
X0112201Y0087974D02*
X0112201Y0082774D01*
X0112201Y0052774D02*
X0112201Y0047574D01*
X0122201Y0047574D02*
X0122201Y0052774D01*
X0132201Y0052774D02*
X0132201Y0047574D01*
D30*
X0141252Y0079837D03*
X0148732Y0079837D03*
D31*
X0108736Y0106436D03*
X0108736Y0113916D03*
D32*
X0069874Y0065456D03*
X0066134Y0056794D03*
X0073614Y0056794D03*
D33*
X0060122Y0009381D03*
X0134295Y0009381D03*
D34*
X0050122Y0009381D03*
X0040122Y0009381D03*
X0030122Y0009381D03*
D35*
X0030122Y0005050D03*
X0040122Y0005050D03*
X0050122Y0005050D03*
X0060122Y0005050D03*
X0134295Y0005050D03*
D36*
X0134075Y0022089D02*
X0134075Y0028089D01*
X0124075Y0028089D02*
X0124075Y0022089D01*
X0114075Y0022089D02*
X0114075Y0028089D01*
X0104075Y0028089D02*
X0104075Y0022089D01*
D37*
X0153323Y0012877D02*
X0153776Y0013330D01*
X0167555Y0013074D02*
X0170508Y0016026D01*
X0170508Y0019471D01*
X0170508Y0027148D02*
X0155358Y0027148D01*
D38*
X0153409Y0025200D01*
X0153409Y0012963D01*
X0153323Y0012877D01*
X0138224Y0012877D01*
X0134071Y0017030D01*
X0134071Y0025085D01*
X0134075Y0025089D01*
X0134075Y0027400D01*
X0128091Y0033385D01*
X0099370Y0033385D01*
X0094500Y0028515D01*
X0086894Y0031227D02*
X0092287Y0036621D01*
X0134925Y0036621D01*
X0138228Y0039924D01*
X0146472Y0039924D01*
X0146492Y0039944D01*
X0162335Y0037385D02*
X0170508Y0037385D01*
X0170276Y0037377D02*
X0176551Y0037377D01*
X0179543Y0034385D01*
X0170508Y0034826D02*
X0166827Y0034826D01*
X0163343Y0031341D01*
X0164016Y0024589D02*
X0157453Y0018026D01*
X0164016Y0024589D02*
X0170508Y0024589D01*
X0170508Y0022030D02*
X0176500Y0022030D01*
X0177055Y0021475D01*
X0177681Y0021475D01*
X0170508Y0042503D02*
X0170508Y0047936D01*
X0104075Y0025089D02*
X0100807Y0021822D01*
X0094500Y0021822D01*
X0089531Y0016853D01*
X0069634Y0016853D01*
X0086067Y0021739D02*
X0052480Y0021739D01*
X0040122Y0009381D01*
X0039409Y0028038D02*
X0038610Y0028050D01*
X0074071Y0045755D02*
X0074216Y0045753D01*
X0074362Y0045747D01*
X0074507Y0045737D01*
X0074652Y0045724D01*
X0074796Y0045706D01*
X0074940Y0045684D01*
X0075083Y0045659D01*
X0075225Y0045629D01*
X0075367Y0045596D01*
X0075508Y0045559D01*
X0075647Y0045518D01*
X0075786Y0045474D01*
X0075923Y0045426D01*
X0076059Y0045374D01*
X0076193Y0045318D01*
X0076326Y0045259D01*
X0076457Y0045196D01*
X0076586Y0045129D01*
X0076714Y0045060D01*
X0076840Y0044986D01*
X0076963Y0044910D01*
X0077085Y0044830D01*
X0077204Y0044746D01*
X0077321Y0044660D01*
X0077435Y0044570D01*
X0077547Y0044478D01*
X0077657Y0044382D01*
X0077764Y0044284D01*
X0077868Y0044182D01*
X0077970Y0044078D01*
X0078068Y0043971D01*
X0078164Y0043861D01*
X0078256Y0043749D01*
X0078346Y0043635D01*
X0078432Y0043518D01*
X0078516Y0043399D01*
X0078596Y0043277D01*
X0078672Y0043154D01*
X0078746Y0043028D01*
X0078815Y0042900D01*
X0078882Y0042771D01*
X0078945Y0042640D01*
X0079004Y0042507D01*
X0079060Y0042373D01*
X0079112Y0042237D01*
X0079160Y0042100D01*
X0079204Y0041961D01*
X0079245Y0041822D01*
X0079282Y0041681D01*
X0079315Y0041539D01*
X0079345Y0041397D01*
X0079370Y0041254D01*
X0079392Y0041110D01*
X0079410Y0040966D01*
X0079423Y0040821D01*
X0079433Y0040676D01*
X0079439Y0040530D01*
X0079441Y0040385D01*
X0086890Y0031231D02*
X0086894Y0031227D01*
X0086894Y0024534D02*
X0086067Y0021739D01*
X0037949Y0085896D02*
X0037929Y0085916D01*
X0033197Y0085916D01*
X0066118Y0121857D02*
X0066091Y0121885D01*
D39*
X0063323Y0121696D03*
X0058642Y0121692D03*
X0058642Y0117007D03*
X0063323Y0117011D03*
X0063323Y0112326D03*
X0058642Y0112322D03*
X0058642Y0107637D03*
X0063323Y0107641D03*
X0063323Y0102956D03*
X0058642Y0102952D03*
X0058638Y0098270D03*
X0063323Y0098270D03*
X0068008Y0098270D03*
X0068008Y0102956D03*
X0077591Y0106861D03*
X0053953Y0107641D03*
X0053953Y0112326D03*
X0053953Y0117011D03*
X0053953Y0121696D03*
X0053953Y0102956D03*
X0053953Y0098270D03*
X0033197Y0085916D03*
X0087236Y0055932D03*
X0038610Y0021357D03*
X0069634Y0016853D03*
X0153996Y0040475D03*
X0163343Y0031341D03*
X0177681Y0021475D03*
X0179543Y0027495D03*
X0179543Y0034385D03*
X0157453Y0018026D03*
X0160213Y0012877D03*
X0174248Y0013074D03*
X0100063Y0137696D03*
D40*
X0101996Y0135763D01*
X0144583Y0135763D01*
X0148827Y0109971D02*
X0148809Y0109969D01*
X0148791Y0109964D01*
X0148775Y0109955D01*
X0148761Y0109943D01*
X0148749Y0109929D01*
X0148740Y0109913D01*
X0148735Y0109895D01*
X0148733Y0109877D01*
X0115201Y0099971D02*
X0115094Y0099969D01*
X0114987Y0099963D01*
X0114880Y0099954D01*
X0114774Y0099940D01*
X0114668Y0099923D01*
X0114563Y0099902D01*
X0114459Y0099878D01*
X0114356Y0099849D01*
X0114254Y0099817D01*
X0114153Y0099782D01*
X0114053Y0099743D01*
X0113955Y0099700D01*
X0113858Y0099654D01*
X0113763Y0099604D01*
X0113670Y0099551D01*
X0113579Y0099495D01*
X0113490Y0099435D01*
X0113403Y0099373D01*
X0113319Y0099307D01*
X0113236Y0099238D01*
X0113157Y0099167D01*
X0113080Y0099092D01*
X0113005Y0099015D01*
X0112934Y0098936D01*
X0112865Y0098853D01*
X0112799Y0098769D01*
X0112737Y0098682D01*
X0112677Y0098593D01*
X0112621Y0098502D01*
X0112568Y0098409D01*
X0112518Y0098314D01*
X0112472Y0098217D01*
X0112429Y0098119D01*
X0112390Y0098019D01*
X0112355Y0097918D01*
X0112323Y0097816D01*
X0112294Y0097713D01*
X0112270Y0097609D01*
X0112249Y0097504D01*
X0112232Y0097398D01*
X0112218Y0097292D01*
X0112209Y0097185D01*
X0112203Y0097078D01*
X0112201Y0096971D01*
X0112201Y0082774D01*
X0132201Y0082774D02*
X0135138Y0079837D01*
X0141252Y0079837D01*
X0148732Y0079837D02*
X0159366Y0079837D01*
X0159366Y0079558D01*
X0153996Y0040475D02*
X0157087Y0037385D01*
X0162335Y0037385D01*
X0179543Y0034385D02*
X0187110Y0034385D01*
X0187535Y0034810D01*
X0186976Y0027495D02*
X0179543Y0027495D01*
X0186976Y0027495D02*
X0187535Y0026936D01*
X0087236Y0055932D02*
X0087220Y0055916D01*
X0080197Y0055916D01*
X0079319Y0056794D01*
X0073614Y0056794D01*
X0069874Y0065456D02*
X0060177Y0065456D01*
X0058909Y0064188D01*
X0058417Y0064680D01*
X0050150Y0064680D01*
X0022004Y0085896D02*
X0020236Y0085896D01*
X0020067Y0085727D01*
X0020067Y0052487D01*
X0020067Y0034337D01*
X0023969Y0034337D01*
X0030772Y0027534D01*
X0030772Y0010030D01*
X0030122Y0009381D01*
X0050122Y0009381D02*
X0050173Y0009432D01*
X0050173Y0011444D01*
X0055583Y0016853D01*
X0069634Y0016853D01*
X0073909Y0028038D02*
X0048319Y0028038D01*
X0020067Y0085727D02*
X0020067Y0135794D01*
X0025291Y0135794D01*
X0035283Y0145786D01*
X0035283Y0156349D01*
X0048862Y0156349D01*
X0065591Y0111857D02*
X0066118Y0111857D01*
D41*
X0108736Y0113916D02*
X0108738Y0114069D01*
X0108744Y0114223D01*
X0108753Y0114376D01*
X0108767Y0114529D01*
X0108785Y0114681D01*
X0108806Y0114833D01*
X0108831Y0114984D01*
X0108860Y0115135D01*
X0108893Y0115285D01*
X0108929Y0115434D01*
X0108970Y0115582D01*
X0109014Y0115729D01*
X0109061Y0115874D01*
X0109113Y0116019D01*
X0109168Y0116162D01*
X0109227Y0116304D01*
X0109289Y0116444D01*
X0109355Y0116583D01*
X0109424Y0116719D01*
X0109497Y0116855D01*
X0109573Y0116988D01*
X0109652Y0117119D01*
X0109735Y0117248D01*
X0109821Y0117375D01*
X0109910Y0117500D01*
X0110003Y0117622D01*
X0110098Y0117742D01*
X0110197Y0117860D01*
X0110298Y0117975D01*
X0110402Y0118088D01*
X0110509Y0118198D01*
X0110619Y0118305D01*
X0110732Y0118409D01*
X0110847Y0118510D01*
X0110965Y0118609D01*
X0111085Y0118704D01*
X0111207Y0118797D01*
X0111332Y0118886D01*
X0111459Y0118972D01*
X0111588Y0119055D01*
X0111719Y0119134D01*
X0111852Y0119210D01*
X0111988Y0119283D01*
X0112124Y0119352D01*
X0112263Y0119418D01*
X0112403Y0119480D01*
X0112545Y0119539D01*
X0112688Y0119594D01*
X0112833Y0119646D01*
X0112978Y0119693D01*
X0113125Y0119737D01*
X0113273Y0119778D01*
X0113422Y0119814D01*
X0113572Y0119847D01*
X0113723Y0119876D01*
X0113874Y0119901D01*
X0114026Y0119922D01*
X0114178Y0119940D01*
X0114331Y0119954D01*
X0114484Y0119963D01*
X0114638Y0119969D01*
X0114791Y0119971D01*
X0124354Y0119971D01*
X0108736Y0106436D02*
X0108738Y0106277D01*
X0108744Y0106119D01*
X0108754Y0105960D01*
X0108767Y0105802D01*
X0108785Y0105645D01*
X0108806Y0105487D01*
X0108831Y0105331D01*
X0108860Y0105175D01*
X0108893Y0105020D01*
X0108930Y0104865D01*
X0108970Y0104712D01*
X0109014Y0104559D01*
X0109062Y0104408D01*
X0109114Y0104258D01*
X0109169Y0104109D01*
X0109228Y0103962D01*
X0109291Y0103816D01*
X0109357Y0103672D01*
X0109426Y0103529D01*
X0109499Y0103388D01*
X0109576Y0103249D01*
X0109656Y0103112D01*
X0109739Y0102977D01*
X0109826Y0102844D01*
X0109915Y0102713D01*
X0110008Y0102585D01*
X0110104Y0102459D01*
X0110203Y0102335D01*
X0110306Y0102213D01*
X0110411Y0102094D01*
X0110519Y0101978D01*
X0110630Y0101865D01*
X0110743Y0101754D01*
X0110859Y0101646D01*
X0110978Y0101541D01*
X0111100Y0101438D01*
X0111224Y0101339D01*
X0111350Y0101243D01*
X0111478Y0101150D01*
X0111609Y0101061D01*
X0111742Y0100974D01*
X0111877Y0100891D01*
X0112014Y0100811D01*
X0112153Y0100734D01*
X0112294Y0100661D01*
X0112437Y0100592D01*
X0112581Y0100526D01*
X0112727Y0100463D01*
X0112874Y0100404D01*
X0113023Y0100349D01*
X0113173Y0100297D01*
X0113324Y0100249D01*
X0113477Y0100205D01*
X0113630Y0100165D01*
X0113785Y0100128D01*
X0113940Y0100095D01*
X0114096Y0100066D01*
X0114252Y0100041D01*
X0114410Y0100020D01*
X0114567Y0100002D01*
X0114725Y0099989D01*
X0114884Y0099979D01*
X0115042Y0099973D01*
X0115201Y0099971D01*
X0124354Y0099971D01*
X0124406Y0099920D01*
X0124354Y0099971D02*
X0124323Y0099940D01*
X0124299Y0099916D02*
X0124354Y0099971D01*
X0132201Y0052774D02*
X0137039Y0047936D01*
X0163815Y0047936D01*
X0020898Y0053318D02*
X0020067Y0052487D01*
D42*
X0038610Y0028050D02*
X0038622Y0028038D01*
X0048319Y0028038D01*
X0063091Y0045755D02*
X0074071Y0045755D01*
X0079366Y0033495D02*
X0073909Y0028038D01*
X0079366Y0033495D02*
X0079441Y0033495D01*
X0078500Y0070302D02*
X0083071Y0070302D01*
X0083083Y0070290D01*
X0083150Y0070357D01*
X0087764Y0070357D01*
X0092012Y0074605D01*
X0092012Y0093042D01*
X0092425Y0098975D02*
X0092012Y0099735D01*
X0091354Y0099078D01*
X0084028Y0099078D01*
X0077335Y0099078D02*
X0077335Y0093652D01*
X0083083Y0087904D01*
X0083083Y0086432D01*
X0069232Y0079570D02*
X0064224Y0079570D01*
X0069232Y0079570D02*
X0078500Y0070302D01*
X0077335Y0099078D02*
X0068815Y0099078D01*
X0068008Y0098270D01*
X0066150Y0106826D02*
X0066118Y0106857D01*
X0077591Y0106861D02*
X0079695Y0106861D01*
X0079705Y0106857D02*
X0086591Y0106857D01*
X0086587Y0106861D01*
X0086591Y0106857D02*
X0086559Y0106826D01*
X0086591Y0111857D02*
X0093189Y0111857D01*
X0094898Y0110148D01*
X0094898Y0102286D01*
X0092346Y0099735D01*
X0092012Y0099735D01*
X0079704Y0106857D02*
X0079700Y0106860D01*
X0079695Y0106861D01*
X0086591Y0121857D02*
X0086606Y0121873D01*
X0086606Y0124877D01*
D43*
X0086606Y0124877D03*
D44*
X0037949Y0091282D02*
X0037949Y0085896D01*
X0037949Y0079570D01*
X0037949Y0079164D01*
X0031000Y0072215D01*
X0037949Y0079570D02*
X0048280Y0079570D01*
X0048268Y0079558D01*
X0048268Y0071711D01*
X0050150Y0069830D01*
X0050150Y0064680D01*
X0037949Y0091282D02*
X0029768Y0099463D01*
X0029768Y0108353D01*
M02*
