%
M48
M72
T01C0.01969
T02C0.02362
T03C0.03150
T04C0.03200
T05C0.03937
T06C0.04000
T07C0.04400
T08C0.05906
T09C0.13000
T10C0.13780
%
T01
X174248Y13074
X177681Y21475
X179543Y27495
X179543Y34385
X163343Y31341
X153996Y40475
X157453Y18026
X160213Y12877
X87236Y55932
X38610Y21357
X69634Y16853
X33197Y85916
X53953Y98270
X53953Y102956
X53953Y107641
X53953Y112326
X53953Y117011
X53953Y121696
X58642Y121692
X63323Y121696
X63323Y117011
X58642Y117007
X58642Y112322
X63323Y112326
X63323Y107641
X58642Y107637
X58642Y102952
X63323Y102956
X68008Y102956
X68008Y98270
X63323Y98270
X58638Y98270
X77591Y106861
X100063Y137696
T02
X134295Y9381
X60122Y9381
X50122Y9381
X40122Y9381
X30122Y9381
X86606Y124877
T03
X134295Y5050
X60122Y5050
X50122Y5050
X40122Y5050
X30122Y5050
T04
X192150Y47857
X182150Y47857
X132201Y52774
X122201Y52774
X112201Y52774
X112201Y82774
X122201Y82774
X132201Y82774
X113323Y160341
X73323Y160341
T05
X73909Y28038
X73909Y45755
X48319Y45755
X48319Y28038
T06
X134075Y25089
X124075Y25089
X114075Y25089
X104075Y25089
X48862Y136349
X48862Y156349
T07
X124354Y99971
X124354Y109971
X124354Y119971
T08
X188256Y154452
X168571Y154452
X148886Y154452
X129201Y154452
T09
X193354Y109971
T10
X210252Y156026
X14976Y19412
M30
