G75*
%MOIN*%
%OFA0B0*%
%FSLAX25Y25*%
%IPPOS*%
%LPD*%
%AMOC8*
5,1,8,0,0,1.08239X$1,22.5*
%
%ADD10C,0.00394*%
%ADD11C,0.00000*%
%ADD12C,0.05937*%
%ADD13R,0.03937X0.04331*%
%ADD14R,0.05118X0.03937*%
%ADD15C,0.10000*%
%ADD16OC8,0.10000*%
%ADD17R,0.04134X0.04252*%
%ADD18C,0.10000*%
%ADD19OC8,0.05200*%
%ADD20C,0.06600*%
%ADD21C,0.05200*%
%ADD22R,0.04362X0.04362*%
%ADD23C,0.04362*%
%ADD24C,0.05150*%
%ADD25R,0.04252X0.04134*%
%ADD26R,0.06299X0.05118*%
%ADD27C,0.06000*%
%ADD28C,0.03169*%
%ADD29C,0.04000*%
%ADD30C,0.05000*%
%ADD31C,0.03200*%
%ADD32C,0.02400*%
%ADD33C,0.01600*%
%ADD34C,0.03562*%
D10*
X0014189Y0005042D02*
X0195882Y0005042D01*
X0195882Y0019609D02*
X0195886Y0019951D01*
X0195899Y0020294D01*
X0195919Y0020636D01*
X0195948Y0020977D01*
X0195985Y0021317D01*
X0196031Y0021657D01*
X0196084Y0021995D01*
X0196146Y0022332D01*
X0196216Y0022667D01*
X0196294Y0023001D01*
X0196380Y0023332D01*
X0196474Y0023662D01*
X0196576Y0023989D01*
X0196685Y0024313D01*
X0196803Y0024635D01*
X0196928Y0024954D01*
X0197061Y0025269D01*
X0197202Y0025582D01*
X0197350Y0025890D01*
X0197505Y0026196D01*
X0197668Y0026497D01*
X0197838Y0026794D01*
X0198015Y0027087D01*
X0198200Y0027376D01*
X0198391Y0027660D01*
X0198589Y0027940D01*
X0198793Y0028214D01*
X0199005Y0028484D01*
X0199222Y0028748D01*
X0199446Y0029007D01*
X0199677Y0029261D01*
X0199913Y0029509D01*
X0200155Y0029751D01*
X0200403Y0029987D01*
X0200657Y0030218D01*
X0200916Y0030442D01*
X0201180Y0030659D01*
X0201450Y0030871D01*
X0201724Y0031075D01*
X0202004Y0031273D01*
X0202288Y0031464D01*
X0202577Y0031649D01*
X0202870Y0031826D01*
X0203167Y0031996D01*
X0203468Y0032159D01*
X0203774Y0032314D01*
X0204082Y0032462D01*
X0204395Y0032603D01*
X0204710Y0032736D01*
X0205029Y0032861D01*
X0205351Y0032979D01*
X0205675Y0033088D01*
X0206002Y0033190D01*
X0206332Y0033284D01*
X0206663Y0033370D01*
X0206997Y0033448D01*
X0207332Y0033518D01*
X0207669Y0033580D01*
X0208007Y0033633D01*
X0208347Y0033679D01*
X0208687Y0033716D01*
X0209028Y0033745D01*
X0209370Y0033765D01*
X0209713Y0033778D01*
X0210055Y0033782D01*
X0211039Y0033782D02*
X0211039Y0170396D01*
X0029346Y0170396D01*
X0029346Y0155830D01*
X0029342Y0155488D01*
X0029329Y0155145D01*
X0029309Y0154803D01*
X0029280Y0154462D01*
X0029243Y0154122D01*
X0029197Y0153782D01*
X0029144Y0153444D01*
X0029082Y0153107D01*
X0029012Y0152772D01*
X0028934Y0152438D01*
X0028848Y0152107D01*
X0028754Y0151777D01*
X0028652Y0151450D01*
X0028543Y0151126D01*
X0028425Y0150804D01*
X0028300Y0150485D01*
X0028167Y0150170D01*
X0028026Y0149857D01*
X0027878Y0149549D01*
X0027723Y0149243D01*
X0027560Y0148942D01*
X0027390Y0148645D01*
X0027213Y0148352D01*
X0027028Y0148063D01*
X0026837Y0147779D01*
X0026639Y0147499D01*
X0026435Y0147225D01*
X0026223Y0146955D01*
X0026006Y0146691D01*
X0025782Y0146432D01*
X0025551Y0146178D01*
X0025315Y0145930D01*
X0025073Y0145688D01*
X0024825Y0145452D01*
X0024571Y0145221D01*
X0024312Y0144997D01*
X0024048Y0144780D01*
X0023778Y0144568D01*
X0023504Y0144364D01*
X0023224Y0144166D01*
X0022940Y0143975D01*
X0022651Y0143790D01*
X0022358Y0143613D01*
X0022061Y0143443D01*
X0021760Y0143280D01*
X0021454Y0143125D01*
X0021146Y0142977D01*
X0020833Y0142836D01*
X0020518Y0142703D01*
X0020199Y0142578D01*
X0019877Y0142460D01*
X0019553Y0142351D01*
X0019226Y0142249D01*
X0018896Y0142155D01*
X0018565Y0142069D01*
X0018231Y0141991D01*
X0017896Y0141921D01*
X0017559Y0141859D01*
X0017221Y0141806D01*
X0016881Y0141760D01*
X0016541Y0141723D01*
X0016200Y0141694D01*
X0015858Y0141674D01*
X0015515Y0141661D01*
X0015173Y0141657D01*
X0014189Y0141656D02*
X0014189Y0005042D01*
X0018272Y0043007D02*
X0018272Y0059007D01*
X0067925Y0059007D01*
X0067925Y0042995D01*
X0024898Y0042995D01*
X0018272Y0043007D01*
X0018272Y0043072D02*
X0067925Y0043072D01*
X0067925Y0043464D02*
X0018272Y0043464D01*
X0018272Y0043856D02*
X0067925Y0043856D01*
X0067925Y0044248D02*
X0018272Y0044248D01*
X0018272Y0044641D02*
X0067925Y0044641D01*
X0067925Y0045033D02*
X0018272Y0045033D01*
X0018272Y0045425D02*
X0067925Y0045425D01*
X0067925Y0045817D02*
X0018272Y0045817D01*
X0018272Y0046210D02*
X0067925Y0046210D01*
X0067925Y0046602D02*
X0018272Y0046602D01*
X0018272Y0046994D02*
X0067925Y0046994D01*
X0067925Y0047386D02*
X0018272Y0047386D01*
X0018272Y0047778D02*
X0067925Y0047778D01*
X0067925Y0048171D02*
X0018272Y0048171D01*
X0018272Y0048563D02*
X0067925Y0048563D01*
X0067925Y0048955D02*
X0018272Y0048955D01*
X0018272Y0049347D02*
X0067925Y0049347D01*
X0067925Y0049739D02*
X0018272Y0049739D01*
X0018272Y0050132D02*
X0067925Y0050132D01*
X0067925Y0050524D02*
X0018272Y0050524D01*
X0018272Y0050916D02*
X0067925Y0050916D01*
X0067925Y0051308D02*
X0018272Y0051308D01*
X0018272Y0051700D02*
X0067925Y0051700D01*
X0067925Y0052093D02*
X0018272Y0052093D01*
X0018272Y0052485D02*
X0067925Y0052485D01*
X0067925Y0052877D02*
X0018272Y0052877D01*
X0018272Y0053269D02*
X0067925Y0053269D01*
X0067925Y0053662D02*
X0018272Y0053662D01*
X0018272Y0054054D02*
X0067925Y0054054D01*
X0067925Y0054446D02*
X0018272Y0054446D01*
X0018272Y0054838D02*
X0067925Y0054838D01*
X0067925Y0055230D02*
X0018272Y0055230D01*
X0018272Y0055623D02*
X0067925Y0055623D01*
X0067925Y0056015D02*
X0018272Y0056015D01*
X0018272Y0056407D02*
X0067925Y0056407D01*
X0067925Y0056799D02*
X0018272Y0056799D01*
X0018272Y0057191D02*
X0067925Y0057191D01*
X0067925Y0057584D02*
X0018272Y0057584D01*
X0018272Y0057976D02*
X0067925Y0057976D01*
X0067925Y0058368D02*
X0018272Y0058368D01*
X0018272Y0058760D02*
X0067925Y0058760D01*
X0072457Y0095987D02*
X0051827Y0095987D01*
X0051827Y0121416D01*
X0051887Y0122100D01*
X0052064Y0122763D01*
X0052354Y0123385D01*
X0052748Y0123947D01*
X0053233Y0124432D01*
X0053795Y0124826D01*
X0054417Y0125116D01*
X0055080Y0125293D01*
X0055764Y0125353D01*
X0072457Y0125353D01*
X0072457Y0095987D01*
X0072457Y0096020D02*
X0051827Y0096020D01*
X0051827Y0096413D02*
X0072457Y0096413D01*
X0072457Y0096805D02*
X0051827Y0096805D01*
X0051827Y0097197D02*
X0072457Y0097197D01*
X0072457Y0097589D02*
X0051827Y0097589D01*
X0051827Y0097982D02*
X0072457Y0097982D01*
X0072457Y0098374D02*
X0051827Y0098374D01*
X0051827Y0098766D02*
X0072457Y0098766D01*
X0072457Y0099158D02*
X0051827Y0099158D01*
X0051827Y0099550D02*
X0072457Y0099550D01*
X0072457Y0099943D02*
X0051827Y0099943D01*
X0051827Y0100335D02*
X0072457Y0100335D01*
X0072457Y0100727D02*
X0051827Y0100727D01*
X0051827Y0101119D02*
X0072457Y0101119D01*
X0072457Y0101511D02*
X0051827Y0101511D01*
X0051827Y0101904D02*
X0072457Y0101904D01*
X0072457Y0102296D02*
X0051827Y0102296D01*
X0051827Y0102688D02*
X0072457Y0102688D01*
X0072457Y0103080D02*
X0051827Y0103080D01*
X0051827Y0103472D02*
X0072457Y0103472D01*
X0072457Y0103865D02*
X0051827Y0103865D01*
X0051827Y0104257D02*
X0072457Y0104257D01*
X0072457Y0104649D02*
X0051827Y0104649D01*
X0051827Y0105041D02*
X0072457Y0105041D01*
X0072457Y0105434D02*
X0051827Y0105434D01*
X0051827Y0105826D02*
X0072457Y0105826D01*
X0072457Y0106218D02*
X0051827Y0106218D01*
X0051827Y0106610D02*
X0072457Y0106610D01*
X0072457Y0107002D02*
X0051827Y0107002D01*
X0051827Y0107395D02*
X0072457Y0107395D01*
X0072457Y0107787D02*
X0051827Y0107787D01*
X0051827Y0108179D02*
X0072457Y0108179D01*
X0072457Y0108571D02*
X0051827Y0108571D01*
X0051827Y0108963D02*
X0072457Y0108963D01*
X0072457Y0109356D02*
X0051827Y0109356D01*
X0051827Y0109748D02*
X0072457Y0109748D01*
X0072457Y0110140D02*
X0051827Y0110140D01*
X0051827Y0110532D02*
X0072457Y0110532D01*
X0072457Y0110925D02*
X0051827Y0110925D01*
X0051827Y0111317D02*
X0072457Y0111317D01*
X0072457Y0111709D02*
X0051827Y0111709D01*
X0051827Y0112101D02*
X0072457Y0112101D01*
X0072457Y0112493D02*
X0051827Y0112493D01*
X0051827Y0112886D02*
X0072457Y0112886D01*
X0072457Y0113278D02*
X0051827Y0113278D01*
X0051827Y0113670D02*
X0072457Y0113670D01*
X0072457Y0114062D02*
X0051827Y0114062D01*
X0051827Y0114454D02*
X0072457Y0114454D01*
X0072457Y0114847D02*
X0051827Y0114847D01*
X0051827Y0115239D02*
X0072457Y0115239D01*
X0072457Y0115631D02*
X0051827Y0115631D01*
X0051827Y0116023D02*
X0072457Y0116023D01*
X0072457Y0116415D02*
X0051827Y0116415D01*
X0051827Y0116808D02*
X0072457Y0116808D01*
X0072457Y0117200D02*
X0051827Y0117200D01*
X0051827Y0117592D02*
X0072457Y0117592D01*
X0072457Y0117984D02*
X0051827Y0117984D01*
X0051827Y0118377D02*
X0072457Y0118377D01*
X0072457Y0118769D02*
X0051827Y0118769D01*
X0051827Y0119161D02*
X0072457Y0119161D01*
X0072457Y0119553D02*
X0051827Y0119553D01*
X0051827Y0119945D02*
X0072457Y0119945D01*
X0072457Y0120338D02*
X0051827Y0120338D01*
X0051827Y0120730D02*
X0072457Y0120730D01*
X0072457Y0121122D02*
X0051827Y0121122D01*
X0051835Y0121514D02*
X0072457Y0121514D01*
X0072457Y0121906D02*
X0051870Y0121906D01*
X0051940Y0122299D02*
X0072457Y0122299D01*
X0072457Y0122691D02*
X0052045Y0122691D01*
X0052214Y0123083D02*
X0072457Y0123083D01*
X0072457Y0123475D02*
X0052418Y0123475D01*
X0052692Y0123868D02*
X0072457Y0123868D01*
X0072457Y0124260D02*
X0053061Y0124260D01*
X0053547Y0124652D02*
X0072457Y0124652D01*
X0072457Y0125044D02*
X0054264Y0125044D01*
X0110528Y0125044D02*
X0130606Y0125044D01*
X0130606Y0124652D02*
X0110528Y0124652D01*
X0110528Y0124260D02*
X0130606Y0124260D01*
X0130606Y0123868D02*
X0110528Y0123868D01*
X0110528Y0123475D02*
X0130606Y0123475D01*
X0130606Y0123083D02*
X0110528Y0123083D01*
X0110528Y0122691D02*
X0130606Y0122691D01*
X0130606Y0122299D02*
X0110528Y0122299D01*
X0110528Y0121906D02*
X0130606Y0121906D01*
X0130606Y0121514D02*
X0110528Y0121514D01*
X0110528Y0121122D02*
X0130606Y0121122D01*
X0130606Y0120730D02*
X0110528Y0120730D01*
X0110528Y0120338D02*
X0130606Y0120338D01*
X0130606Y0120015D02*
X0110528Y0120015D01*
X0110528Y0128270D01*
X0110581Y0128808D01*
X0110737Y0129325D01*
X0110992Y0129802D01*
X0111335Y0130219D01*
X0111752Y0130562D01*
X0112229Y0130817D01*
X0112746Y0130973D01*
X0113283Y0131026D01*
X0113283Y0156617D01*
X0112851Y0156660D01*
X0112435Y0156786D01*
X0112052Y0156990D01*
X0111716Y0157266D01*
X0111440Y0157602D01*
X0111236Y0157985D01*
X0111110Y0158401D01*
X0111067Y0158833D01*
X0111067Y0160330D01*
X0111127Y0161013D01*
X0111304Y0161676D01*
X0111594Y0162298D01*
X0111988Y0162860D01*
X0112473Y0163345D01*
X0113035Y0163739D01*
X0113657Y0164029D01*
X0114320Y0164207D01*
X0115004Y0164267D01*
X0130606Y0164267D01*
X0130606Y0120015D01*
X0130606Y0125436D02*
X0110528Y0125436D01*
X0110528Y0125829D02*
X0130606Y0125829D01*
X0130606Y0126221D02*
X0110528Y0126221D01*
X0110528Y0126613D02*
X0130606Y0126613D01*
X0130606Y0127005D02*
X0110528Y0127005D01*
X0110528Y0127397D02*
X0130606Y0127397D01*
X0130606Y0127790D02*
X0110528Y0127790D01*
X0110528Y0128182D02*
X0130606Y0128182D01*
X0130606Y0128574D02*
X0110557Y0128574D01*
X0110628Y0128966D02*
X0130606Y0128966D01*
X0130606Y0129358D02*
X0110755Y0129358D01*
X0110965Y0129751D02*
X0130606Y0129751D01*
X0130606Y0130143D02*
X0111272Y0130143D01*
X0111720Y0130535D02*
X0130606Y0130535D01*
X0130606Y0130927D02*
X0112594Y0130927D01*
X0113283Y0131320D02*
X0130606Y0131320D01*
X0130606Y0131712D02*
X0113283Y0131712D01*
X0113283Y0132104D02*
X0130606Y0132104D01*
X0130606Y0132496D02*
X0113283Y0132496D01*
X0113283Y0132888D02*
X0130606Y0132888D01*
X0130606Y0133281D02*
X0113283Y0133281D01*
X0113283Y0133673D02*
X0130606Y0133673D01*
X0130606Y0134065D02*
X0113283Y0134065D01*
X0113283Y0134457D02*
X0130606Y0134457D01*
X0130606Y0134849D02*
X0113283Y0134849D01*
X0113283Y0135242D02*
X0130606Y0135242D01*
X0130606Y0135634D02*
X0113283Y0135634D01*
X0113283Y0136026D02*
X0130606Y0136026D01*
X0130606Y0136418D02*
X0113283Y0136418D01*
X0113283Y0136811D02*
X0130606Y0136811D01*
X0130606Y0137203D02*
X0113283Y0137203D01*
X0113283Y0137595D02*
X0130606Y0137595D01*
X0130606Y0137987D02*
X0113283Y0137987D01*
X0113283Y0138379D02*
X0130606Y0138379D01*
X0130606Y0138772D02*
X0113283Y0138772D01*
X0113283Y0139164D02*
X0130606Y0139164D01*
X0130606Y0139556D02*
X0113283Y0139556D01*
X0113283Y0139948D02*
X0130606Y0139948D01*
X0130606Y0140340D02*
X0113283Y0140340D01*
X0113283Y0140733D02*
X0130606Y0140733D01*
X0130606Y0141125D02*
X0113283Y0141125D01*
X0113283Y0141517D02*
X0130606Y0141517D01*
X0130606Y0141909D02*
X0113283Y0141909D01*
X0113283Y0142301D02*
X0130606Y0142301D01*
X0130606Y0142694D02*
X0113283Y0142694D01*
X0113283Y0143086D02*
X0130606Y0143086D01*
X0130606Y0143478D02*
X0113283Y0143478D01*
X0113283Y0143870D02*
X0130606Y0143870D01*
X0130606Y0144263D02*
X0113283Y0144263D01*
X0113283Y0144655D02*
X0130606Y0144655D01*
X0130606Y0145047D02*
X0113283Y0145047D01*
X0113283Y0145439D02*
X0130606Y0145439D01*
X0130606Y0145831D02*
X0113283Y0145831D01*
X0113283Y0146224D02*
X0130606Y0146224D01*
X0130606Y0146616D02*
X0113283Y0146616D01*
X0113283Y0147008D02*
X0130606Y0147008D01*
X0130606Y0147400D02*
X0113283Y0147400D01*
X0113283Y0147792D02*
X0130606Y0147792D01*
X0130606Y0148185D02*
X0113283Y0148185D01*
X0113283Y0148577D02*
X0130606Y0148577D01*
X0130606Y0148969D02*
X0113283Y0148969D01*
X0113283Y0149361D02*
X0130606Y0149361D01*
X0130606Y0149754D02*
X0113283Y0149754D01*
X0113283Y0150146D02*
X0130606Y0150146D01*
X0130606Y0150538D02*
X0113283Y0150538D01*
X0113283Y0150930D02*
X0130606Y0150930D01*
X0130606Y0151322D02*
X0113283Y0151322D01*
X0113283Y0151715D02*
X0130606Y0151715D01*
X0130606Y0152107D02*
X0113283Y0152107D01*
X0113283Y0152499D02*
X0130606Y0152499D01*
X0130606Y0152891D02*
X0113283Y0152891D01*
X0113283Y0153283D02*
X0130606Y0153283D01*
X0130606Y0153676D02*
X0113283Y0153676D01*
X0113283Y0154068D02*
X0130606Y0154068D01*
X0130606Y0154460D02*
X0113283Y0154460D01*
X0113283Y0154852D02*
X0130606Y0154852D01*
X0130606Y0155244D02*
X0113283Y0155244D01*
X0113283Y0155637D02*
X0130606Y0155637D01*
X0130606Y0156029D02*
X0113283Y0156029D01*
X0113283Y0156421D02*
X0130606Y0156421D01*
X0130606Y0156813D02*
X0112383Y0156813D01*
X0111790Y0157206D02*
X0130606Y0157206D01*
X0130606Y0157598D02*
X0111444Y0157598D01*
X0111234Y0157990D02*
X0130606Y0157990D01*
X0130606Y0158382D02*
X0111115Y0158382D01*
X0111073Y0158774D02*
X0130606Y0158774D01*
X0130606Y0159167D02*
X0111067Y0159167D01*
X0111067Y0159559D02*
X0130606Y0159559D01*
X0130606Y0159951D02*
X0111067Y0159951D01*
X0111068Y0160343D02*
X0130606Y0160343D01*
X0130606Y0160735D02*
X0111102Y0160735D01*
X0111157Y0161128D02*
X0130606Y0161128D01*
X0130606Y0161520D02*
X0111262Y0161520D01*
X0111414Y0161912D02*
X0130606Y0161912D01*
X0130606Y0162304D02*
X0111599Y0162304D01*
X0111873Y0162697D02*
X0130606Y0162697D01*
X0130606Y0163089D02*
X0112217Y0163089D01*
X0112667Y0163481D02*
X0130606Y0163481D01*
X0130606Y0163873D02*
X0113323Y0163873D01*
X0114990Y0164265D02*
X0130606Y0164265D01*
X0144117Y0163234D02*
X0144110Y0162522D01*
X0144110Y0148574D01*
X0144117Y0147862D01*
X0144262Y0147166D01*
X0144540Y0146511D01*
X0144941Y0145923D01*
X0145448Y0145425D01*
X0146043Y0145035D01*
X0146703Y0144769D01*
X0147402Y0144637D01*
X0168811Y0144637D01*
X0169560Y0144642D01*
X0170297Y0144776D01*
X0170999Y0145037D01*
X0171645Y0145416D01*
X0172216Y0145901D01*
X0172694Y0146478D01*
X0173064Y0147129D01*
X0173316Y0147835D01*
X0173441Y0148574D01*
X0173441Y0162522D01*
X0173316Y0163261D01*
X0173064Y0163967D01*
X0172694Y0164618D01*
X0172216Y0165195D01*
X0171645Y0165680D01*
X0170999Y0166059D01*
X0170297Y0166320D01*
X0169560Y0166455D01*
X0168811Y0166459D01*
X0147402Y0166459D01*
X0146703Y0166327D01*
X0146043Y0166061D01*
X0145448Y0165671D01*
X0144941Y0165173D01*
X0144540Y0164585D01*
X0144262Y0163930D01*
X0144117Y0163234D01*
X0144115Y0163089D02*
X0173345Y0163089D01*
X0173411Y0162697D02*
X0144112Y0162697D01*
X0144110Y0162304D02*
X0173441Y0162304D01*
X0173441Y0161912D02*
X0144110Y0161912D01*
X0144110Y0161520D02*
X0173441Y0161520D01*
X0173441Y0161128D02*
X0144110Y0161128D01*
X0144110Y0160735D02*
X0173441Y0160735D01*
X0173441Y0160343D02*
X0144110Y0160343D01*
X0144110Y0159951D02*
X0173441Y0159951D01*
X0173441Y0159559D02*
X0144110Y0159559D01*
X0144110Y0159167D02*
X0173441Y0159167D01*
X0173441Y0158774D02*
X0144110Y0158774D01*
X0144110Y0158382D02*
X0173441Y0158382D01*
X0173441Y0157990D02*
X0144110Y0157990D01*
X0144110Y0157598D02*
X0173441Y0157598D01*
X0173441Y0157206D02*
X0144110Y0157206D01*
X0144110Y0156813D02*
X0173441Y0156813D01*
X0173441Y0156421D02*
X0144110Y0156421D01*
X0144110Y0156029D02*
X0173441Y0156029D01*
X0173441Y0155637D02*
X0144110Y0155637D01*
X0144110Y0155244D02*
X0173441Y0155244D01*
X0173441Y0154852D02*
X0144110Y0154852D01*
X0144110Y0154460D02*
X0173441Y0154460D01*
X0173441Y0154068D02*
X0144110Y0154068D01*
X0144110Y0153676D02*
X0173441Y0153676D01*
X0173441Y0153283D02*
X0144110Y0153283D01*
X0144110Y0152891D02*
X0173441Y0152891D01*
X0173441Y0152499D02*
X0144110Y0152499D01*
X0144110Y0152107D02*
X0173441Y0152107D01*
X0173441Y0151715D02*
X0144110Y0151715D01*
X0144110Y0151322D02*
X0173441Y0151322D01*
X0173441Y0150930D02*
X0144110Y0150930D01*
X0144110Y0150538D02*
X0173441Y0150538D01*
X0173441Y0150146D02*
X0144110Y0150146D01*
X0144110Y0149754D02*
X0173441Y0149754D01*
X0173441Y0149361D02*
X0144110Y0149361D01*
X0144110Y0148969D02*
X0173441Y0148969D01*
X0173441Y0148577D02*
X0144110Y0148577D01*
X0144114Y0148185D02*
X0173375Y0148185D01*
X0173301Y0147792D02*
X0144131Y0147792D01*
X0144213Y0147400D02*
X0173161Y0147400D01*
X0172995Y0147008D02*
X0144329Y0147008D01*
X0144496Y0146616D02*
X0172772Y0146616D01*
X0172483Y0146224D02*
X0144736Y0146224D01*
X0145034Y0145831D02*
X0172134Y0145831D01*
X0171673Y0145439D02*
X0145434Y0145439D01*
X0146025Y0145047D02*
X0171016Y0145047D01*
X0169632Y0144655D02*
X0147306Y0144655D01*
X0148191Y0130554D02*
X0203047Y0130554D01*
X0203731Y0130494D01*
X0204394Y0130317D01*
X0205016Y0130026D01*
X0205578Y0129633D01*
X0206063Y0129148D01*
X0206457Y0128585D01*
X0206747Y0127963D01*
X0206924Y0127301D01*
X0206984Y0126617D01*
X0206984Y0063782D01*
X0206924Y0063099D01*
X0206747Y0062436D01*
X0206457Y0061814D01*
X0206063Y0061252D01*
X0205578Y0060766D01*
X0205016Y0060373D01*
X0204394Y0060083D01*
X0203731Y0059905D01*
X0203047Y0059845D01*
X0157890Y0059845D01*
X0157206Y0059905D01*
X0156543Y0060083D01*
X0155921Y0060373D01*
X0155359Y0060766D01*
X0154874Y0061252D01*
X0154480Y0061814D01*
X0154190Y0062436D01*
X0154013Y0063099D01*
X0153953Y0063782D01*
X0153953Y0084963D01*
X0153893Y0085647D01*
X0153715Y0086310D01*
X0153425Y0086932D01*
X0153032Y0087494D01*
X0152546Y0087979D01*
X0151984Y0088373D01*
X0151362Y0088663D01*
X0150699Y0088841D01*
X0150016Y0088900D01*
X0147735Y0088900D01*
X0147045Y0088961D01*
X0146377Y0089142D01*
X0145751Y0089437D01*
X0145186Y0089837D01*
X0144700Y0090330D01*
X0144307Y0090900D01*
X0144021Y0091530D01*
X0143850Y0092201D01*
X0143798Y0092891D01*
X0144255Y0126670D01*
X0144339Y0127430D01*
X0144569Y0128160D01*
X0144936Y0128832D01*
X0145426Y0129419D01*
X0146020Y0129901D01*
X0146697Y0130259D01*
X0147430Y0130480D01*
X0148191Y0130554D01*
X0147998Y0130535D02*
X0203262Y0130535D01*
X0204766Y0130143D02*
X0146477Y0130143D01*
X0145835Y0129751D02*
X0205410Y0129751D01*
X0205852Y0129358D02*
X0145375Y0129358D01*
X0145048Y0128966D02*
X0206190Y0128966D01*
X0206462Y0128574D02*
X0144795Y0128574D01*
X0144581Y0128182D02*
X0206645Y0128182D01*
X0206793Y0127790D02*
X0144452Y0127790D01*
X0144336Y0127397D02*
X0206898Y0127397D01*
X0206950Y0127005D02*
X0144292Y0127005D01*
X0144254Y0126613D02*
X0206984Y0126613D01*
X0206984Y0126221D02*
X0144249Y0126221D01*
X0144243Y0125829D02*
X0206984Y0125829D01*
X0206984Y0125436D02*
X0144238Y0125436D01*
X0144233Y0125044D02*
X0206984Y0125044D01*
X0206984Y0124652D02*
X0144227Y0124652D01*
X0144222Y0124260D02*
X0206984Y0124260D01*
X0206984Y0123868D02*
X0144217Y0123868D01*
X0144211Y0123475D02*
X0206984Y0123475D01*
X0206984Y0123083D02*
X0144206Y0123083D01*
X0144201Y0122691D02*
X0206984Y0122691D01*
X0206984Y0122299D02*
X0144195Y0122299D01*
X0144190Y0121906D02*
X0206984Y0121906D01*
X0206984Y0121514D02*
X0195468Y0121514D01*
X0194894Y0121668D02*
X0191814Y0121668D01*
X0188840Y0120871D01*
X0186172Y0119331D01*
X0183995Y0117153D01*
X0182455Y0114486D01*
X0181657Y0111511D01*
X0181657Y0108431D01*
X0182455Y0105456D01*
X0183995Y0102789D01*
X0186172Y0100611D01*
X0188840Y0099072D01*
X0191814Y0098274D01*
X0194894Y0098274D01*
X0197869Y0099072D01*
X0200536Y0100611D01*
X0202714Y0102789D01*
X0204254Y0105456D01*
X0205051Y0108431D01*
X0205051Y0111511D01*
X0204254Y0114486D01*
X0202714Y0117153D01*
X0200536Y0119331D01*
X0197869Y0120871D01*
X0194894Y0121668D01*
X0196932Y0121122D02*
X0206984Y0121122D01*
X0206984Y0120730D02*
X0198114Y0120730D01*
X0198793Y0120338D02*
X0206984Y0120338D01*
X0206984Y0119945D02*
X0199472Y0119945D01*
X0200152Y0119553D02*
X0206984Y0119553D01*
X0206984Y0119161D02*
X0200706Y0119161D01*
X0201099Y0118769D02*
X0206984Y0118769D01*
X0206984Y0118377D02*
X0201491Y0118377D01*
X0201883Y0117984D02*
X0206984Y0117984D01*
X0206984Y0117592D02*
X0202275Y0117592D01*
X0202668Y0117200D02*
X0206984Y0117200D01*
X0206984Y0116808D02*
X0202914Y0116808D01*
X0203140Y0116415D02*
X0206984Y0116415D01*
X0206984Y0116023D02*
X0203367Y0116023D01*
X0203593Y0115631D02*
X0206984Y0115631D01*
X0206984Y0115239D02*
X0203819Y0115239D01*
X0204046Y0114847D02*
X0206984Y0114847D01*
X0206984Y0114454D02*
X0204263Y0114454D01*
X0204368Y0114062D02*
X0206984Y0114062D01*
X0206984Y0113670D02*
X0204473Y0113670D01*
X0204578Y0113278D02*
X0206984Y0113278D01*
X0206984Y0112886D02*
X0204683Y0112886D01*
X0204788Y0112493D02*
X0206984Y0112493D01*
X0206984Y0112101D02*
X0204893Y0112101D01*
X0204998Y0111709D02*
X0206984Y0111709D01*
X0206984Y0111317D02*
X0205051Y0111317D01*
X0205051Y0110925D02*
X0206984Y0110925D01*
X0206984Y0110532D02*
X0205051Y0110532D01*
X0205051Y0110140D02*
X0206984Y0110140D01*
X0206984Y0109748D02*
X0205051Y0109748D01*
X0205051Y0109356D02*
X0206984Y0109356D01*
X0206984Y0108963D02*
X0205051Y0108963D01*
X0205051Y0108571D02*
X0206984Y0108571D01*
X0206984Y0108179D02*
X0204984Y0108179D01*
X0204878Y0107787D02*
X0206984Y0107787D01*
X0206984Y0107395D02*
X0204773Y0107395D01*
X0204668Y0107002D02*
X0206984Y0107002D01*
X0206984Y0106610D02*
X0204563Y0106610D01*
X0204458Y0106218D02*
X0206984Y0106218D01*
X0206984Y0105826D02*
X0204353Y0105826D01*
X0204241Y0105434D02*
X0206984Y0105434D01*
X0206984Y0105041D02*
X0204014Y0105041D01*
X0203788Y0104649D02*
X0206984Y0104649D01*
X0206984Y0104257D02*
X0203561Y0104257D01*
X0203335Y0103865D02*
X0206984Y0103865D01*
X0206984Y0103472D02*
X0203109Y0103472D01*
X0202882Y0103080D02*
X0206984Y0103080D01*
X0206984Y0102688D02*
X0202613Y0102688D01*
X0202221Y0102296D02*
X0206984Y0102296D01*
X0206984Y0101904D02*
X0201829Y0101904D01*
X0201436Y0101511D02*
X0206984Y0101511D01*
X0206984Y0101119D02*
X0201044Y0101119D01*
X0200652Y0100727D02*
X0206984Y0100727D01*
X0206984Y0100335D02*
X0200057Y0100335D01*
X0199378Y0099943D02*
X0206984Y0099943D01*
X0206984Y0099550D02*
X0198698Y0099550D01*
X0198019Y0099158D02*
X0206984Y0099158D01*
X0206984Y0098766D02*
X0196729Y0098766D01*
X0195265Y0098374D02*
X0206984Y0098374D01*
X0206984Y0097982D02*
X0143867Y0097982D01*
X0143872Y0098374D02*
X0191444Y0098374D01*
X0189980Y0098766D02*
X0143877Y0098766D01*
X0143883Y0099158D02*
X0188689Y0099158D01*
X0188010Y0099550D02*
X0143888Y0099550D01*
X0143893Y0099943D02*
X0187331Y0099943D01*
X0186651Y0100335D02*
X0143899Y0100335D01*
X0143904Y0100727D02*
X0186057Y0100727D01*
X0185665Y0101119D02*
X0143909Y0101119D01*
X0143915Y0101511D02*
X0185272Y0101511D01*
X0184880Y0101904D02*
X0143920Y0101904D01*
X0143925Y0102296D02*
X0184488Y0102296D01*
X0184096Y0102688D02*
X0143930Y0102688D01*
X0143936Y0103080D02*
X0183826Y0103080D01*
X0183600Y0103472D02*
X0143941Y0103472D01*
X0143946Y0103865D02*
X0183374Y0103865D01*
X0183147Y0104257D02*
X0143952Y0104257D01*
X0143957Y0104649D02*
X0182921Y0104649D01*
X0182694Y0105041D02*
X0143962Y0105041D01*
X0143968Y0105434D02*
X0182468Y0105434D01*
X0182356Y0105826D02*
X0143973Y0105826D01*
X0143978Y0106218D02*
X0182251Y0106218D01*
X0182145Y0106610D02*
X0143983Y0106610D01*
X0143989Y0107002D02*
X0182040Y0107002D01*
X0181935Y0107395D02*
X0143994Y0107395D01*
X0143999Y0107787D02*
X0181830Y0107787D01*
X0181725Y0108179D02*
X0144005Y0108179D01*
X0144010Y0108571D02*
X0181657Y0108571D01*
X0181657Y0108963D02*
X0144015Y0108963D01*
X0144021Y0109356D02*
X0181657Y0109356D01*
X0181657Y0109748D02*
X0144026Y0109748D01*
X0144031Y0110140D02*
X0181657Y0110140D01*
X0181657Y0110532D02*
X0144036Y0110532D01*
X0144042Y0110925D02*
X0181657Y0110925D01*
X0181657Y0111317D02*
X0144047Y0111317D01*
X0144052Y0111709D02*
X0181710Y0111709D01*
X0181816Y0112101D02*
X0144058Y0112101D01*
X0144063Y0112493D02*
X0181921Y0112493D01*
X0182026Y0112886D02*
X0144068Y0112886D01*
X0144074Y0113278D02*
X0182131Y0113278D01*
X0182236Y0113670D02*
X0144079Y0113670D01*
X0144084Y0114062D02*
X0182341Y0114062D01*
X0182446Y0114454D02*
X0144089Y0114454D01*
X0144095Y0114847D02*
X0182663Y0114847D01*
X0182889Y0115239D02*
X0144100Y0115239D01*
X0144105Y0115631D02*
X0183116Y0115631D01*
X0183342Y0116023D02*
X0144111Y0116023D01*
X0144116Y0116415D02*
X0183569Y0116415D01*
X0183795Y0116808D02*
X0144121Y0116808D01*
X0144127Y0117200D02*
X0184041Y0117200D01*
X0184433Y0117592D02*
X0144132Y0117592D01*
X0144137Y0117984D02*
X0184826Y0117984D01*
X0185218Y0118377D02*
X0144142Y0118377D01*
X0144148Y0118769D02*
X0185610Y0118769D01*
X0186002Y0119161D02*
X0144153Y0119161D01*
X0144158Y0119553D02*
X0186557Y0119553D01*
X0187236Y0119945D02*
X0144164Y0119945D01*
X0144169Y0120338D02*
X0187916Y0120338D01*
X0188595Y0120730D02*
X0144174Y0120730D01*
X0144180Y0121122D02*
X0189776Y0121122D01*
X0191240Y0121514D02*
X0144185Y0121514D01*
X0143862Y0097589D02*
X0206984Y0097589D01*
X0206984Y0097197D02*
X0143856Y0097197D01*
X0143851Y0096805D02*
X0206984Y0096805D01*
X0206984Y0096413D02*
X0143846Y0096413D01*
X0143840Y0096020D02*
X0206984Y0096020D01*
X0206984Y0095628D02*
X0143835Y0095628D01*
X0143830Y0095236D02*
X0206984Y0095236D01*
X0206984Y0094844D02*
X0143824Y0094844D01*
X0143819Y0094452D02*
X0206984Y0094452D01*
X0206984Y0094059D02*
X0143814Y0094059D01*
X0143809Y0093667D02*
X0206984Y0093667D01*
X0206984Y0093275D02*
X0143803Y0093275D01*
X0143799Y0092883D02*
X0206984Y0092883D01*
X0206984Y0092491D02*
X0143828Y0092491D01*
X0143876Y0092098D02*
X0206984Y0092098D01*
X0206984Y0091706D02*
X0143976Y0091706D01*
X0144119Y0091314D02*
X0206984Y0091314D01*
X0206984Y0090922D02*
X0144298Y0090922D01*
X0144562Y0090529D02*
X0206984Y0090529D01*
X0206984Y0090137D02*
X0144890Y0090137D01*
X0145316Y0089745D02*
X0206984Y0089745D01*
X0206984Y0089353D02*
X0145929Y0089353D01*
X0147052Y0088961D02*
X0206984Y0088961D01*
X0206984Y0088568D02*
X0151565Y0088568D01*
X0152265Y0088176D02*
X0206984Y0088176D01*
X0206984Y0087784D02*
X0152742Y0087784D01*
X0153103Y0087392D02*
X0206984Y0087392D01*
X0206984Y0087000D02*
X0153378Y0087000D01*
X0153577Y0086607D02*
X0206984Y0086607D01*
X0206984Y0086215D02*
X0153741Y0086215D01*
X0153846Y0085823D02*
X0206984Y0085823D01*
X0206984Y0085431D02*
X0153912Y0085431D01*
X0153946Y0085039D02*
X0206984Y0085039D01*
X0206984Y0084646D02*
X0153953Y0084646D01*
X0153953Y0084254D02*
X0206984Y0084254D01*
X0206984Y0083862D02*
X0153953Y0083862D01*
X0153953Y0083470D02*
X0206984Y0083470D01*
X0206984Y0083077D02*
X0153953Y0083077D01*
X0153953Y0082685D02*
X0206984Y0082685D01*
X0206984Y0082293D02*
X0153953Y0082293D01*
X0153953Y0081901D02*
X0206984Y0081901D01*
X0206984Y0081509D02*
X0153953Y0081509D01*
X0153953Y0081116D02*
X0206984Y0081116D01*
X0206984Y0080724D02*
X0153953Y0080724D01*
X0153953Y0080332D02*
X0206984Y0080332D01*
X0206984Y0079940D02*
X0153953Y0079940D01*
X0153953Y0079548D02*
X0206984Y0079548D01*
X0206984Y0079155D02*
X0153953Y0079155D01*
X0153953Y0078763D02*
X0206984Y0078763D01*
X0206984Y0078371D02*
X0153953Y0078371D01*
X0153953Y0077979D02*
X0206984Y0077979D01*
X0206984Y0077586D02*
X0153953Y0077586D01*
X0153953Y0077194D02*
X0206984Y0077194D01*
X0206984Y0076802D02*
X0153953Y0076802D01*
X0153953Y0076410D02*
X0206984Y0076410D01*
X0206984Y0076018D02*
X0153953Y0076018D01*
X0153953Y0075625D02*
X0206984Y0075625D01*
X0206984Y0075233D02*
X0153953Y0075233D01*
X0153953Y0074841D02*
X0206984Y0074841D01*
X0206984Y0074449D02*
X0153953Y0074449D01*
X0153953Y0074057D02*
X0206984Y0074057D01*
X0206984Y0073664D02*
X0153953Y0073664D01*
X0153953Y0073272D02*
X0206984Y0073272D01*
X0206984Y0072880D02*
X0153953Y0072880D01*
X0153953Y0072488D02*
X0206984Y0072488D01*
X0206984Y0072096D02*
X0153953Y0072096D01*
X0153953Y0071703D02*
X0206984Y0071703D01*
X0206984Y0071311D02*
X0153953Y0071311D01*
X0153953Y0070919D02*
X0206984Y0070919D01*
X0206984Y0070527D02*
X0153953Y0070527D01*
X0153953Y0070134D02*
X0206984Y0070134D01*
X0206984Y0069742D02*
X0153953Y0069742D01*
X0153953Y0069350D02*
X0206984Y0069350D01*
X0206984Y0068958D02*
X0153953Y0068958D01*
X0153953Y0068566D02*
X0206984Y0068566D01*
X0206984Y0068173D02*
X0153953Y0068173D01*
X0153953Y0067781D02*
X0206984Y0067781D01*
X0206984Y0067389D02*
X0153953Y0067389D01*
X0153953Y0066997D02*
X0206984Y0066997D01*
X0206984Y0066605D02*
X0153953Y0066605D01*
X0153953Y0066212D02*
X0206984Y0066212D01*
X0206984Y0065820D02*
X0153953Y0065820D01*
X0153953Y0065428D02*
X0206984Y0065428D01*
X0206984Y0065036D02*
X0153953Y0065036D01*
X0153953Y0064643D02*
X0206984Y0064643D01*
X0206984Y0064251D02*
X0153953Y0064251D01*
X0153953Y0063859D02*
X0206984Y0063859D01*
X0206957Y0063467D02*
X0153980Y0063467D01*
X0154019Y0063075D02*
X0206918Y0063075D01*
X0206813Y0062682D02*
X0154124Y0062682D01*
X0154258Y0062290D02*
X0206679Y0062290D01*
X0206496Y0061898D02*
X0154441Y0061898D01*
X0154696Y0061506D02*
X0206241Y0061506D01*
X0205925Y0061114D02*
X0155012Y0061114D01*
X0155423Y0060721D02*
X0205514Y0060721D01*
X0204922Y0060329D02*
X0156015Y0060329D01*
X0157087Y0059937D02*
X0203850Y0059937D01*
X0193323Y0128574D02*
X0183480Y0128574D01*
X0193323Y0128574D01*
X0193323Y0162522D01*
X0193181Y0163275D01*
X0192911Y0163991D01*
X0192521Y0164649D01*
X0192022Y0165230D01*
X0191430Y0165715D01*
X0190763Y0166091D01*
X0190040Y0166344D01*
X0189285Y0166468D01*
X0188520Y0166459D01*
X0186772Y0166459D01*
X0186073Y0166327D01*
X0185413Y0166061D01*
X0184818Y0165671D01*
X0184311Y0165173D01*
X0183910Y0164585D01*
X0183632Y0163930D01*
X0183487Y0163234D01*
X0183480Y0162522D01*
X0183480Y0128574D01*
X0183480Y0128966D02*
X0193323Y0128966D01*
X0193323Y0129358D02*
X0183480Y0129358D01*
X0183480Y0129751D02*
X0193323Y0129751D01*
X0193323Y0130143D02*
X0183480Y0130143D01*
X0183480Y0130535D02*
X0193323Y0130535D01*
X0193323Y0130927D02*
X0183480Y0130927D01*
X0183480Y0131320D02*
X0193323Y0131320D01*
X0193323Y0131712D02*
X0183480Y0131712D01*
X0183480Y0132104D02*
X0193323Y0132104D01*
X0193323Y0132496D02*
X0183480Y0132496D01*
X0183480Y0132888D02*
X0193323Y0132888D01*
X0193323Y0133281D02*
X0183480Y0133281D01*
X0183480Y0133673D02*
X0193323Y0133673D01*
X0193323Y0134065D02*
X0183480Y0134065D01*
X0183480Y0134457D02*
X0193323Y0134457D01*
X0193323Y0134849D02*
X0183480Y0134849D01*
X0183480Y0135242D02*
X0193323Y0135242D01*
X0193323Y0135634D02*
X0183480Y0135634D01*
X0183480Y0136026D02*
X0193323Y0136026D01*
X0193323Y0136418D02*
X0183480Y0136418D01*
X0183480Y0136811D02*
X0193323Y0136811D01*
X0193323Y0137203D02*
X0183480Y0137203D01*
X0183480Y0137595D02*
X0193323Y0137595D01*
X0193323Y0137987D02*
X0183480Y0137987D01*
X0183480Y0138379D02*
X0193323Y0138379D01*
X0193323Y0138772D02*
X0183480Y0138772D01*
X0183480Y0139164D02*
X0193323Y0139164D01*
X0193323Y0139556D02*
X0183480Y0139556D01*
X0183480Y0139948D02*
X0193323Y0139948D01*
X0193323Y0140340D02*
X0183480Y0140340D01*
X0183480Y0140733D02*
X0193323Y0140733D01*
X0193323Y0141125D02*
X0183480Y0141125D01*
X0183480Y0141517D02*
X0193323Y0141517D01*
X0193323Y0141909D02*
X0183480Y0141909D01*
X0183480Y0142301D02*
X0193323Y0142301D01*
X0193323Y0142694D02*
X0183480Y0142694D01*
X0183480Y0143086D02*
X0193323Y0143086D01*
X0193323Y0143478D02*
X0183480Y0143478D01*
X0183480Y0143870D02*
X0193323Y0143870D01*
X0193323Y0144263D02*
X0183480Y0144263D01*
X0183480Y0144655D02*
X0193323Y0144655D01*
X0193323Y0145047D02*
X0183480Y0145047D01*
X0183480Y0145439D02*
X0193323Y0145439D01*
X0193323Y0145831D02*
X0183480Y0145831D01*
X0183480Y0146224D02*
X0193323Y0146224D01*
X0193323Y0146616D02*
X0183480Y0146616D01*
X0183480Y0147008D02*
X0193323Y0147008D01*
X0193323Y0147400D02*
X0183480Y0147400D01*
X0183480Y0147792D02*
X0193323Y0147792D01*
X0193323Y0148185D02*
X0183480Y0148185D01*
X0183480Y0148577D02*
X0193323Y0148577D01*
X0193323Y0148969D02*
X0183480Y0148969D01*
X0183480Y0149361D02*
X0193323Y0149361D01*
X0193323Y0149754D02*
X0183480Y0149754D01*
X0183480Y0150146D02*
X0193323Y0150146D01*
X0193323Y0150538D02*
X0183480Y0150538D01*
X0183480Y0150930D02*
X0193323Y0150930D01*
X0193323Y0151322D02*
X0183480Y0151322D01*
X0183480Y0151715D02*
X0193323Y0151715D01*
X0193323Y0152107D02*
X0183480Y0152107D01*
X0183480Y0152499D02*
X0193323Y0152499D01*
X0193323Y0152891D02*
X0183480Y0152891D01*
X0183480Y0153283D02*
X0193323Y0153283D01*
X0193323Y0153676D02*
X0183480Y0153676D01*
X0183480Y0154068D02*
X0193323Y0154068D01*
X0193323Y0154460D02*
X0183480Y0154460D01*
X0183480Y0154852D02*
X0193323Y0154852D01*
X0193323Y0155244D02*
X0183480Y0155244D01*
X0183480Y0155637D02*
X0193323Y0155637D01*
X0193323Y0156029D02*
X0183480Y0156029D01*
X0183480Y0156421D02*
X0193323Y0156421D01*
X0193323Y0156813D02*
X0183480Y0156813D01*
X0183480Y0157206D02*
X0193323Y0157206D01*
X0193323Y0157598D02*
X0183480Y0157598D01*
X0183480Y0157990D02*
X0193323Y0157990D01*
X0193323Y0158382D02*
X0183480Y0158382D01*
X0183480Y0158774D02*
X0193323Y0158774D01*
X0193323Y0159167D02*
X0183480Y0159167D01*
X0183480Y0159559D02*
X0193323Y0159559D01*
X0193323Y0159951D02*
X0183480Y0159951D01*
X0183480Y0160343D02*
X0193323Y0160343D01*
X0193323Y0160735D02*
X0183480Y0160735D01*
X0183480Y0161128D02*
X0193323Y0161128D01*
X0193323Y0161520D02*
X0183480Y0161520D01*
X0183480Y0161912D02*
X0193323Y0161912D01*
X0193323Y0162304D02*
X0183480Y0162304D01*
X0183482Y0162697D02*
X0193290Y0162697D01*
X0193216Y0163089D02*
X0183485Y0163089D01*
X0183538Y0163481D02*
X0193103Y0163481D01*
X0192956Y0163873D02*
X0183620Y0163873D01*
X0183774Y0164265D02*
X0192749Y0164265D01*
X0192514Y0164658D02*
X0183960Y0164658D01*
X0184227Y0165050D02*
X0192177Y0165050D01*
X0191764Y0165442D02*
X0184585Y0165442D01*
X0185067Y0165834D02*
X0191219Y0165834D01*
X0190376Y0166226D02*
X0185823Y0166226D01*
X0173237Y0163481D02*
X0144168Y0163481D01*
X0144250Y0163873D02*
X0173097Y0163873D01*
X0172894Y0164265D02*
X0144404Y0164265D01*
X0144590Y0164658D02*
X0172661Y0164658D01*
X0172336Y0165050D02*
X0144857Y0165050D01*
X0145215Y0165442D02*
X0171925Y0165442D01*
X0171382Y0165834D02*
X0145697Y0165834D01*
X0146453Y0166226D02*
X0170548Y0166226D01*
D11*
X0203362Y0156026D02*
X0203364Y0156195D01*
X0203370Y0156364D01*
X0203381Y0156533D01*
X0203395Y0156701D01*
X0203414Y0156869D01*
X0203437Y0157037D01*
X0203463Y0157204D01*
X0203494Y0157370D01*
X0203529Y0157536D01*
X0203568Y0157700D01*
X0203612Y0157864D01*
X0203659Y0158026D01*
X0203710Y0158187D01*
X0203765Y0158347D01*
X0203824Y0158506D01*
X0203886Y0158663D01*
X0203953Y0158818D01*
X0204024Y0158972D01*
X0204098Y0159124D01*
X0204176Y0159274D01*
X0204257Y0159422D01*
X0204342Y0159568D01*
X0204431Y0159712D01*
X0204523Y0159854D01*
X0204619Y0159993D01*
X0204718Y0160130D01*
X0204820Y0160265D01*
X0204926Y0160397D01*
X0205035Y0160526D01*
X0205147Y0160653D01*
X0205262Y0160777D01*
X0205380Y0160898D01*
X0205501Y0161016D01*
X0205625Y0161131D01*
X0205752Y0161243D01*
X0205881Y0161352D01*
X0206013Y0161458D01*
X0206148Y0161560D01*
X0206285Y0161659D01*
X0206424Y0161755D01*
X0206566Y0161847D01*
X0206710Y0161936D01*
X0206856Y0162021D01*
X0207004Y0162102D01*
X0207154Y0162180D01*
X0207306Y0162254D01*
X0207460Y0162325D01*
X0207615Y0162392D01*
X0207772Y0162454D01*
X0207931Y0162513D01*
X0208091Y0162568D01*
X0208252Y0162619D01*
X0208414Y0162666D01*
X0208578Y0162710D01*
X0208742Y0162749D01*
X0208908Y0162784D01*
X0209074Y0162815D01*
X0209241Y0162841D01*
X0209409Y0162864D01*
X0209577Y0162883D01*
X0209745Y0162897D01*
X0209914Y0162908D01*
X0210083Y0162914D01*
X0210252Y0162916D01*
X0210421Y0162914D01*
X0210590Y0162908D01*
X0210759Y0162897D01*
X0210927Y0162883D01*
X0211095Y0162864D01*
X0211263Y0162841D01*
X0211430Y0162815D01*
X0211596Y0162784D01*
X0211762Y0162749D01*
X0211926Y0162710D01*
X0212090Y0162666D01*
X0212252Y0162619D01*
X0212413Y0162568D01*
X0212573Y0162513D01*
X0212732Y0162454D01*
X0212889Y0162392D01*
X0213044Y0162325D01*
X0213198Y0162254D01*
X0213350Y0162180D01*
X0213500Y0162102D01*
X0213648Y0162021D01*
X0213794Y0161936D01*
X0213938Y0161847D01*
X0214080Y0161755D01*
X0214219Y0161659D01*
X0214356Y0161560D01*
X0214491Y0161458D01*
X0214623Y0161352D01*
X0214752Y0161243D01*
X0214879Y0161131D01*
X0215003Y0161016D01*
X0215124Y0160898D01*
X0215242Y0160777D01*
X0215357Y0160653D01*
X0215469Y0160526D01*
X0215578Y0160397D01*
X0215684Y0160265D01*
X0215786Y0160130D01*
X0215885Y0159993D01*
X0215981Y0159854D01*
X0216073Y0159712D01*
X0216162Y0159568D01*
X0216247Y0159422D01*
X0216328Y0159274D01*
X0216406Y0159124D01*
X0216480Y0158972D01*
X0216551Y0158818D01*
X0216618Y0158663D01*
X0216680Y0158506D01*
X0216739Y0158347D01*
X0216794Y0158187D01*
X0216845Y0158026D01*
X0216892Y0157864D01*
X0216936Y0157700D01*
X0216975Y0157536D01*
X0217010Y0157370D01*
X0217041Y0157204D01*
X0217067Y0157037D01*
X0217090Y0156869D01*
X0217109Y0156701D01*
X0217123Y0156533D01*
X0217134Y0156364D01*
X0217140Y0156195D01*
X0217142Y0156026D01*
X0217140Y0155857D01*
X0217134Y0155688D01*
X0217123Y0155519D01*
X0217109Y0155351D01*
X0217090Y0155183D01*
X0217067Y0155015D01*
X0217041Y0154848D01*
X0217010Y0154682D01*
X0216975Y0154516D01*
X0216936Y0154352D01*
X0216892Y0154188D01*
X0216845Y0154026D01*
X0216794Y0153865D01*
X0216739Y0153705D01*
X0216680Y0153546D01*
X0216618Y0153389D01*
X0216551Y0153234D01*
X0216480Y0153080D01*
X0216406Y0152928D01*
X0216328Y0152778D01*
X0216247Y0152630D01*
X0216162Y0152484D01*
X0216073Y0152340D01*
X0215981Y0152198D01*
X0215885Y0152059D01*
X0215786Y0151922D01*
X0215684Y0151787D01*
X0215578Y0151655D01*
X0215469Y0151526D01*
X0215357Y0151399D01*
X0215242Y0151275D01*
X0215124Y0151154D01*
X0215003Y0151036D01*
X0214879Y0150921D01*
X0214752Y0150809D01*
X0214623Y0150700D01*
X0214491Y0150594D01*
X0214356Y0150492D01*
X0214219Y0150393D01*
X0214080Y0150297D01*
X0213938Y0150205D01*
X0213794Y0150116D01*
X0213648Y0150031D01*
X0213500Y0149950D01*
X0213350Y0149872D01*
X0213198Y0149798D01*
X0213044Y0149727D01*
X0212889Y0149660D01*
X0212732Y0149598D01*
X0212573Y0149539D01*
X0212413Y0149484D01*
X0212252Y0149433D01*
X0212090Y0149386D01*
X0211926Y0149342D01*
X0211762Y0149303D01*
X0211596Y0149268D01*
X0211430Y0149237D01*
X0211263Y0149211D01*
X0211095Y0149188D01*
X0210927Y0149169D01*
X0210759Y0149155D01*
X0210590Y0149144D01*
X0210421Y0149138D01*
X0210252Y0149136D01*
X0210083Y0149138D01*
X0209914Y0149144D01*
X0209745Y0149155D01*
X0209577Y0149169D01*
X0209409Y0149188D01*
X0209241Y0149211D01*
X0209074Y0149237D01*
X0208908Y0149268D01*
X0208742Y0149303D01*
X0208578Y0149342D01*
X0208414Y0149386D01*
X0208252Y0149433D01*
X0208091Y0149484D01*
X0207931Y0149539D01*
X0207772Y0149598D01*
X0207615Y0149660D01*
X0207460Y0149727D01*
X0207306Y0149798D01*
X0207154Y0149872D01*
X0207004Y0149950D01*
X0206856Y0150031D01*
X0206710Y0150116D01*
X0206566Y0150205D01*
X0206424Y0150297D01*
X0206285Y0150393D01*
X0206148Y0150492D01*
X0206013Y0150594D01*
X0205881Y0150700D01*
X0205752Y0150809D01*
X0205625Y0150921D01*
X0205501Y0151036D01*
X0205380Y0151154D01*
X0205262Y0151275D01*
X0205147Y0151399D01*
X0205035Y0151526D01*
X0204926Y0151655D01*
X0204820Y0151787D01*
X0204718Y0151922D01*
X0204619Y0152059D01*
X0204523Y0152198D01*
X0204431Y0152340D01*
X0204342Y0152484D01*
X0204257Y0152630D01*
X0204176Y0152778D01*
X0204098Y0152928D01*
X0204024Y0153080D01*
X0203953Y0153234D01*
X0203886Y0153389D01*
X0203824Y0153546D01*
X0203765Y0153705D01*
X0203710Y0153865D01*
X0203659Y0154026D01*
X0203612Y0154188D01*
X0203568Y0154352D01*
X0203529Y0154516D01*
X0203494Y0154682D01*
X0203463Y0154848D01*
X0203437Y0155015D01*
X0203414Y0155183D01*
X0203395Y0155351D01*
X0203381Y0155519D01*
X0203370Y0155688D01*
X0203364Y0155857D01*
X0203362Y0156026D01*
X0186854Y0109971D02*
X0186856Y0110132D01*
X0186862Y0110292D01*
X0186872Y0110453D01*
X0186886Y0110613D01*
X0186904Y0110773D01*
X0186925Y0110932D01*
X0186951Y0111091D01*
X0186981Y0111249D01*
X0187014Y0111406D01*
X0187052Y0111563D01*
X0187093Y0111718D01*
X0187138Y0111872D01*
X0187187Y0112025D01*
X0187240Y0112177D01*
X0187296Y0112328D01*
X0187357Y0112477D01*
X0187420Y0112625D01*
X0187488Y0112771D01*
X0187559Y0112915D01*
X0187633Y0113057D01*
X0187711Y0113198D01*
X0187793Y0113336D01*
X0187878Y0113473D01*
X0187966Y0113607D01*
X0188058Y0113739D01*
X0188153Y0113869D01*
X0188251Y0113997D01*
X0188352Y0114122D01*
X0188456Y0114244D01*
X0188563Y0114364D01*
X0188673Y0114481D01*
X0188786Y0114596D01*
X0188902Y0114707D01*
X0189021Y0114816D01*
X0189142Y0114921D01*
X0189266Y0115024D01*
X0189392Y0115124D01*
X0189520Y0115220D01*
X0189651Y0115313D01*
X0189785Y0115403D01*
X0189920Y0115490D01*
X0190058Y0115573D01*
X0190197Y0115653D01*
X0190339Y0115729D01*
X0190482Y0115802D01*
X0190627Y0115871D01*
X0190774Y0115937D01*
X0190922Y0115999D01*
X0191072Y0116057D01*
X0191223Y0116112D01*
X0191376Y0116163D01*
X0191530Y0116210D01*
X0191685Y0116253D01*
X0191841Y0116292D01*
X0191997Y0116328D01*
X0192155Y0116359D01*
X0192313Y0116387D01*
X0192472Y0116411D01*
X0192632Y0116431D01*
X0192792Y0116447D01*
X0192952Y0116459D01*
X0193113Y0116467D01*
X0193274Y0116471D01*
X0193434Y0116471D01*
X0193595Y0116467D01*
X0193756Y0116459D01*
X0193916Y0116447D01*
X0194076Y0116431D01*
X0194236Y0116411D01*
X0194395Y0116387D01*
X0194553Y0116359D01*
X0194711Y0116328D01*
X0194867Y0116292D01*
X0195023Y0116253D01*
X0195178Y0116210D01*
X0195332Y0116163D01*
X0195485Y0116112D01*
X0195636Y0116057D01*
X0195786Y0115999D01*
X0195934Y0115937D01*
X0196081Y0115871D01*
X0196226Y0115802D01*
X0196369Y0115729D01*
X0196511Y0115653D01*
X0196650Y0115573D01*
X0196788Y0115490D01*
X0196923Y0115403D01*
X0197057Y0115313D01*
X0197188Y0115220D01*
X0197316Y0115124D01*
X0197442Y0115024D01*
X0197566Y0114921D01*
X0197687Y0114816D01*
X0197806Y0114707D01*
X0197922Y0114596D01*
X0198035Y0114481D01*
X0198145Y0114364D01*
X0198252Y0114244D01*
X0198356Y0114122D01*
X0198457Y0113997D01*
X0198555Y0113869D01*
X0198650Y0113739D01*
X0198742Y0113607D01*
X0198830Y0113473D01*
X0198915Y0113336D01*
X0198997Y0113198D01*
X0199075Y0113057D01*
X0199149Y0112915D01*
X0199220Y0112771D01*
X0199288Y0112625D01*
X0199351Y0112477D01*
X0199412Y0112328D01*
X0199468Y0112177D01*
X0199521Y0112025D01*
X0199570Y0111872D01*
X0199615Y0111718D01*
X0199656Y0111563D01*
X0199694Y0111406D01*
X0199727Y0111249D01*
X0199757Y0111091D01*
X0199783Y0110932D01*
X0199804Y0110773D01*
X0199822Y0110613D01*
X0199836Y0110453D01*
X0199846Y0110292D01*
X0199852Y0110132D01*
X0199854Y0109971D01*
X0199852Y0109810D01*
X0199846Y0109650D01*
X0199836Y0109489D01*
X0199822Y0109329D01*
X0199804Y0109169D01*
X0199783Y0109010D01*
X0199757Y0108851D01*
X0199727Y0108693D01*
X0199694Y0108536D01*
X0199656Y0108379D01*
X0199615Y0108224D01*
X0199570Y0108070D01*
X0199521Y0107917D01*
X0199468Y0107765D01*
X0199412Y0107614D01*
X0199351Y0107465D01*
X0199288Y0107317D01*
X0199220Y0107171D01*
X0199149Y0107027D01*
X0199075Y0106885D01*
X0198997Y0106744D01*
X0198915Y0106606D01*
X0198830Y0106469D01*
X0198742Y0106335D01*
X0198650Y0106203D01*
X0198555Y0106073D01*
X0198457Y0105945D01*
X0198356Y0105820D01*
X0198252Y0105698D01*
X0198145Y0105578D01*
X0198035Y0105461D01*
X0197922Y0105346D01*
X0197806Y0105235D01*
X0197687Y0105126D01*
X0197566Y0105021D01*
X0197442Y0104918D01*
X0197316Y0104818D01*
X0197188Y0104722D01*
X0197057Y0104629D01*
X0196923Y0104539D01*
X0196788Y0104452D01*
X0196650Y0104369D01*
X0196511Y0104289D01*
X0196369Y0104213D01*
X0196226Y0104140D01*
X0196081Y0104071D01*
X0195934Y0104005D01*
X0195786Y0103943D01*
X0195636Y0103885D01*
X0195485Y0103830D01*
X0195332Y0103779D01*
X0195178Y0103732D01*
X0195023Y0103689D01*
X0194867Y0103650D01*
X0194711Y0103614D01*
X0194553Y0103583D01*
X0194395Y0103555D01*
X0194236Y0103531D01*
X0194076Y0103511D01*
X0193916Y0103495D01*
X0193756Y0103483D01*
X0193595Y0103475D01*
X0193434Y0103471D01*
X0193274Y0103471D01*
X0193113Y0103475D01*
X0192952Y0103483D01*
X0192792Y0103495D01*
X0192632Y0103511D01*
X0192472Y0103531D01*
X0192313Y0103555D01*
X0192155Y0103583D01*
X0191997Y0103614D01*
X0191841Y0103650D01*
X0191685Y0103689D01*
X0191530Y0103732D01*
X0191376Y0103779D01*
X0191223Y0103830D01*
X0191072Y0103885D01*
X0190922Y0103943D01*
X0190774Y0104005D01*
X0190627Y0104071D01*
X0190482Y0104140D01*
X0190339Y0104213D01*
X0190197Y0104289D01*
X0190058Y0104369D01*
X0189920Y0104452D01*
X0189785Y0104539D01*
X0189651Y0104629D01*
X0189520Y0104722D01*
X0189392Y0104818D01*
X0189266Y0104918D01*
X0189142Y0105021D01*
X0189021Y0105126D01*
X0188902Y0105235D01*
X0188786Y0105346D01*
X0188673Y0105461D01*
X0188563Y0105578D01*
X0188456Y0105698D01*
X0188352Y0105820D01*
X0188251Y0105945D01*
X0188153Y0106073D01*
X0188058Y0106203D01*
X0187966Y0106335D01*
X0187878Y0106469D01*
X0187793Y0106606D01*
X0187711Y0106744D01*
X0187633Y0106885D01*
X0187559Y0107027D01*
X0187488Y0107171D01*
X0187420Y0107317D01*
X0187357Y0107465D01*
X0187296Y0107614D01*
X0187240Y0107765D01*
X0187187Y0107917D01*
X0187138Y0108070D01*
X0187093Y0108224D01*
X0187052Y0108379D01*
X0187014Y0108536D01*
X0186981Y0108693D01*
X0186951Y0108851D01*
X0186925Y0109010D01*
X0186904Y0109169D01*
X0186886Y0109329D01*
X0186872Y0109489D01*
X0186862Y0109650D01*
X0186856Y0109810D01*
X0186854Y0109971D01*
X0210055Y0033782D02*
X0211039Y0033782D01*
X0195882Y0019609D02*
X0195882Y0005042D01*
X0008086Y0019412D02*
X0008088Y0019581D01*
X0008094Y0019750D01*
X0008105Y0019919D01*
X0008119Y0020087D01*
X0008138Y0020255D01*
X0008161Y0020423D01*
X0008187Y0020590D01*
X0008218Y0020756D01*
X0008253Y0020922D01*
X0008292Y0021086D01*
X0008336Y0021250D01*
X0008383Y0021412D01*
X0008434Y0021573D01*
X0008489Y0021733D01*
X0008548Y0021892D01*
X0008610Y0022049D01*
X0008677Y0022204D01*
X0008748Y0022358D01*
X0008822Y0022510D01*
X0008900Y0022660D01*
X0008981Y0022808D01*
X0009066Y0022954D01*
X0009155Y0023098D01*
X0009247Y0023240D01*
X0009343Y0023379D01*
X0009442Y0023516D01*
X0009544Y0023651D01*
X0009650Y0023783D01*
X0009759Y0023912D01*
X0009871Y0024039D01*
X0009986Y0024163D01*
X0010104Y0024284D01*
X0010225Y0024402D01*
X0010349Y0024517D01*
X0010476Y0024629D01*
X0010605Y0024738D01*
X0010737Y0024844D01*
X0010872Y0024946D01*
X0011009Y0025045D01*
X0011148Y0025141D01*
X0011290Y0025233D01*
X0011434Y0025322D01*
X0011580Y0025407D01*
X0011728Y0025488D01*
X0011878Y0025566D01*
X0012030Y0025640D01*
X0012184Y0025711D01*
X0012339Y0025778D01*
X0012496Y0025840D01*
X0012655Y0025899D01*
X0012815Y0025954D01*
X0012976Y0026005D01*
X0013138Y0026052D01*
X0013302Y0026096D01*
X0013466Y0026135D01*
X0013632Y0026170D01*
X0013798Y0026201D01*
X0013965Y0026227D01*
X0014133Y0026250D01*
X0014301Y0026269D01*
X0014469Y0026283D01*
X0014638Y0026294D01*
X0014807Y0026300D01*
X0014976Y0026302D01*
X0015145Y0026300D01*
X0015314Y0026294D01*
X0015483Y0026283D01*
X0015651Y0026269D01*
X0015819Y0026250D01*
X0015987Y0026227D01*
X0016154Y0026201D01*
X0016320Y0026170D01*
X0016486Y0026135D01*
X0016650Y0026096D01*
X0016814Y0026052D01*
X0016976Y0026005D01*
X0017137Y0025954D01*
X0017297Y0025899D01*
X0017456Y0025840D01*
X0017613Y0025778D01*
X0017768Y0025711D01*
X0017922Y0025640D01*
X0018074Y0025566D01*
X0018224Y0025488D01*
X0018372Y0025407D01*
X0018518Y0025322D01*
X0018662Y0025233D01*
X0018804Y0025141D01*
X0018943Y0025045D01*
X0019080Y0024946D01*
X0019215Y0024844D01*
X0019347Y0024738D01*
X0019476Y0024629D01*
X0019603Y0024517D01*
X0019727Y0024402D01*
X0019848Y0024284D01*
X0019966Y0024163D01*
X0020081Y0024039D01*
X0020193Y0023912D01*
X0020302Y0023783D01*
X0020408Y0023651D01*
X0020510Y0023516D01*
X0020609Y0023379D01*
X0020705Y0023240D01*
X0020797Y0023098D01*
X0020886Y0022954D01*
X0020971Y0022808D01*
X0021052Y0022660D01*
X0021130Y0022510D01*
X0021204Y0022358D01*
X0021275Y0022204D01*
X0021342Y0022049D01*
X0021404Y0021892D01*
X0021463Y0021733D01*
X0021518Y0021573D01*
X0021569Y0021412D01*
X0021616Y0021250D01*
X0021660Y0021086D01*
X0021699Y0020922D01*
X0021734Y0020756D01*
X0021765Y0020590D01*
X0021791Y0020423D01*
X0021814Y0020255D01*
X0021833Y0020087D01*
X0021847Y0019919D01*
X0021858Y0019750D01*
X0021864Y0019581D01*
X0021866Y0019412D01*
X0021864Y0019243D01*
X0021858Y0019074D01*
X0021847Y0018905D01*
X0021833Y0018737D01*
X0021814Y0018569D01*
X0021791Y0018401D01*
X0021765Y0018234D01*
X0021734Y0018068D01*
X0021699Y0017902D01*
X0021660Y0017738D01*
X0021616Y0017574D01*
X0021569Y0017412D01*
X0021518Y0017251D01*
X0021463Y0017091D01*
X0021404Y0016932D01*
X0021342Y0016775D01*
X0021275Y0016620D01*
X0021204Y0016466D01*
X0021130Y0016314D01*
X0021052Y0016164D01*
X0020971Y0016016D01*
X0020886Y0015870D01*
X0020797Y0015726D01*
X0020705Y0015584D01*
X0020609Y0015445D01*
X0020510Y0015308D01*
X0020408Y0015173D01*
X0020302Y0015041D01*
X0020193Y0014912D01*
X0020081Y0014785D01*
X0019966Y0014661D01*
X0019848Y0014540D01*
X0019727Y0014422D01*
X0019603Y0014307D01*
X0019476Y0014195D01*
X0019347Y0014086D01*
X0019215Y0013980D01*
X0019080Y0013878D01*
X0018943Y0013779D01*
X0018804Y0013683D01*
X0018662Y0013591D01*
X0018518Y0013502D01*
X0018372Y0013417D01*
X0018224Y0013336D01*
X0018074Y0013258D01*
X0017922Y0013184D01*
X0017768Y0013113D01*
X0017613Y0013046D01*
X0017456Y0012984D01*
X0017297Y0012925D01*
X0017137Y0012870D01*
X0016976Y0012819D01*
X0016814Y0012772D01*
X0016650Y0012728D01*
X0016486Y0012689D01*
X0016320Y0012654D01*
X0016154Y0012623D01*
X0015987Y0012597D01*
X0015819Y0012574D01*
X0015651Y0012555D01*
X0015483Y0012541D01*
X0015314Y0012530D01*
X0015145Y0012524D01*
X0014976Y0012522D01*
X0014807Y0012524D01*
X0014638Y0012530D01*
X0014469Y0012541D01*
X0014301Y0012555D01*
X0014133Y0012574D01*
X0013965Y0012597D01*
X0013798Y0012623D01*
X0013632Y0012654D01*
X0013466Y0012689D01*
X0013302Y0012728D01*
X0013138Y0012772D01*
X0012976Y0012819D01*
X0012815Y0012870D01*
X0012655Y0012925D01*
X0012496Y0012984D01*
X0012339Y0013046D01*
X0012184Y0013113D01*
X0012030Y0013184D01*
X0011878Y0013258D01*
X0011728Y0013336D01*
X0011580Y0013417D01*
X0011434Y0013502D01*
X0011290Y0013591D01*
X0011148Y0013683D01*
X0011009Y0013779D01*
X0010872Y0013878D01*
X0010737Y0013980D01*
X0010605Y0014086D01*
X0010476Y0014195D01*
X0010349Y0014307D01*
X0010225Y0014422D01*
X0010104Y0014540D01*
X0009986Y0014661D01*
X0009871Y0014785D01*
X0009759Y0014912D01*
X0009650Y0015041D01*
X0009544Y0015173D01*
X0009442Y0015308D01*
X0009343Y0015445D01*
X0009247Y0015584D01*
X0009155Y0015726D01*
X0009066Y0015870D01*
X0008981Y0016016D01*
X0008900Y0016164D01*
X0008822Y0016314D01*
X0008748Y0016466D01*
X0008677Y0016620D01*
X0008610Y0016775D01*
X0008548Y0016932D01*
X0008489Y0017091D01*
X0008434Y0017251D01*
X0008383Y0017412D01*
X0008336Y0017574D01*
X0008292Y0017738D01*
X0008253Y0017902D01*
X0008218Y0018068D01*
X0008187Y0018234D01*
X0008161Y0018401D01*
X0008138Y0018569D01*
X0008119Y0018737D01*
X0008105Y0018905D01*
X0008094Y0019074D01*
X0008088Y0019243D01*
X0008086Y0019412D01*
X0014189Y0141656D02*
X0015173Y0141656D01*
D12*
X0045350Y0045755D02*
X0051287Y0045755D01*
X0070941Y0045755D02*
X0076878Y0045755D01*
X0076878Y0028038D02*
X0070941Y0028038D01*
X0051287Y0028038D02*
X0045350Y0028038D01*
D13*
X0033197Y0085916D03*
X0026504Y0085916D03*
D14*
X0076441Y0137696D03*
X0076441Y0147696D03*
X0100063Y0147696D03*
X0100063Y0137696D03*
D15*
X0048862Y0136349D03*
D16*
X0048862Y0156349D03*
D17*
X0070701Y0106861D03*
X0077591Y0106861D03*
D18*
X0129201Y0149452D02*
X0129201Y0159452D01*
X0148886Y0159452D02*
X0148886Y0149452D01*
X0168571Y0149452D02*
X0168571Y0159452D01*
X0188256Y0159452D02*
X0188256Y0149452D01*
D19*
X0113323Y0160341D03*
X0073323Y0160341D03*
X0182150Y0047857D03*
X0192150Y0047857D03*
D20*
X0127654Y0099971D02*
X0121054Y0099971D01*
X0121054Y0109971D02*
X0127654Y0109971D01*
X0124354Y0109971D02*
X0175898Y0109971D01*
X0127654Y0119971D02*
X0121054Y0119971D01*
D21*
X0122201Y0087974D02*
X0122201Y0082774D01*
X0132201Y0082774D02*
X0132201Y0087974D01*
X0112201Y0087974D02*
X0112201Y0082774D01*
X0112201Y0052774D02*
X0112201Y0047574D01*
X0122201Y0047574D02*
X0122201Y0052774D01*
X0132201Y0052774D02*
X0132201Y0047574D01*
D22*
X0134295Y0009381D03*
X0060122Y0009381D03*
D23*
X0050122Y0009381D03*
X0040122Y0009381D03*
X0030122Y0009381D03*
D24*
X0030122Y0005050D03*
X0040122Y0005050D03*
X0050122Y0005050D03*
X0060122Y0005050D03*
X0134295Y0005050D03*
D25*
X0076535Y0010940D03*
X0076535Y0017830D03*
D26*
X0084795Y0019255D03*
X0084795Y0011381D03*
D27*
X0104075Y0022089D02*
X0104075Y0028089D01*
X0114075Y0028089D02*
X0114075Y0022089D01*
X0124075Y0022089D02*
X0124075Y0028089D01*
X0134075Y0028089D02*
X0134075Y0022089D01*
D28*
X0157453Y0018026D03*
X0160213Y0012877D03*
X0174248Y0013074D03*
X0177681Y0021475D03*
X0179543Y0027495D03*
X0179543Y0034385D03*
X0163343Y0031341D03*
X0153996Y0040475D03*
X0087236Y0055932D03*
X0038610Y0021357D03*
X0069634Y0016853D03*
X0033197Y0085916D03*
X0053953Y0098270D03*
X0053953Y0102956D03*
X0053953Y0107641D03*
X0053953Y0112326D03*
X0053953Y0117011D03*
X0053953Y0121696D03*
X0058642Y0121692D03*
X0063323Y0121696D03*
X0063323Y0117011D03*
X0058642Y0117007D03*
X0058642Y0112322D03*
X0063323Y0112326D03*
X0063323Y0107641D03*
X0058642Y0107637D03*
X0058642Y0102952D03*
X0063323Y0102956D03*
X0068008Y0102956D03*
X0068008Y0098270D03*
X0063323Y0098270D03*
X0058638Y0098270D03*
X0077591Y0106861D03*
X0100063Y0137696D03*
D29*
X0100063Y0147696D02*
X0087417Y0160341D01*
X0073323Y0160341D01*
X0068850Y0147696D02*
X0060197Y0156349D01*
X0048862Y0156349D01*
X0035252Y0156349D01*
X0035252Y0145755D01*
X0025299Y0135802D01*
X0020067Y0135802D01*
X0020067Y0086223D01*
X0020067Y0034337D01*
X0023969Y0034337D01*
X0030776Y0027530D01*
X0030776Y0010034D01*
X0030165Y0009424D01*
X0060122Y0009381D02*
X0061681Y0010940D01*
X0076535Y0010940D01*
X0084354Y0010940D01*
X0084866Y0011452D01*
X0078969Y0017830D02*
X0076535Y0017830D01*
X0070610Y0017830D01*
X0069634Y0016853D01*
X0078969Y0017830D02*
X0080398Y0019259D01*
X0084791Y0019259D01*
X0084795Y0019255D01*
X0087236Y0039893D02*
X0087819Y0040475D01*
X0105933Y0040475D01*
X0153996Y0040475D01*
X0173453Y0040475D01*
X0179543Y0034385D01*
X0179543Y0027495D02*
X0163957Y0027495D01*
X0163343Y0028109D01*
X0163343Y0016105D01*
X0160213Y0012877D01*
X0163343Y0028109D02*
X0163343Y0031341D01*
X0086606Y0124877D02*
X0086606Y0127530D01*
X0076441Y0137696D01*
X0050209Y0137696D01*
X0048862Y0136349D01*
X0035283Y0145786D02*
X0035252Y0145755D01*
X0068850Y0147696D02*
X0076441Y0147696D01*
D30*
X0087236Y0055932D02*
X0087236Y0039893D01*
X0087236Y0021696D01*
X0084795Y0019255D01*
X0084866Y0011452D02*
X0084795Y0011381D01*
X0084866Y0011452D02*
X0124882Y0011452D01*
X0124075Y0012259D01*
X0124075Y0025089D01*
X0124882Y0011452D02*
X0134154Y0011452D01*
X0161937Y0011452D01*
X0160213Y0012877D01*
X0063091Y0020204D02*
X0063091Y0042979D01*
X0063091Y0020204D02*
X0060122Y0017235D01*
X0060122Y0009381D01*
D31*
X0134154Y0011452D02*
X0134295Y0011310D01*
X0134295Y0009381D01*
D32*
X0063091Y0042979D02*
X0063091Y0045755D01*
X0026504Y0085916D02*
X0020374Y0085916D01*
X0020342Y0085918D01*
X0020310Y0085923D01*
X0020279Y0085931D01*
X0020249Y0085943D01*
X0020221Y0085957D01*
X0020194Y0085975D01*
X0020169Y0085995D01*
X0020146Y0086018D01*
X0020126Y0086043D01*
X0020108Y0086070D01*
X0020094Y0086098D01*
X0020082Y0086128D01*
X0020074Y0086159D01*
X0020069Y0086191D01*
X0020067Y0086223D01*
X0069904Y0106857D02*
X0069963Y0106835D01*
X0070023Y0106817D01*
X0070085Y0106802D01*
X0070146Y0106791D01*
X0070209Y0106784D01*
X0070272Y0106780D01*
X0070335Y0106781D01*
X0070397Y0106785D01*
X0070460Y0106793D01*
X0070522Y0106804D01*
X0070582Y0106820D01*
X0070642Y0106839D01*
X0070701Y0106861D01*
X0070642Y0106839D01*
X0070582Y0106820D01*
X0070522Y0106804D01*
X0070460Y0106793D01*
X0070397Y0106785D01*
X0070335Y0106781D01*
X0070272Y0106780D01*
X0070209Y0106784D01*
X0070146Y0106791D01*
X0070085Y0106802D01*
X0070023Y0106817D01*
X0069963Y0106835D01*
X0069904Y0106857D01*
D33*
X0105933Y0040475D02*
X0106043Y0040365D01*
X0114075Y0032967D02*
X0114075Y0025089D01*
X0114075Y0032967D02*
X0115917Y0034810D01*
X0136626Y0034810D01*
X0140720Y0030715D01*
X0140720Y0020589D01*
X0143283Y0018026D01*
X0157453Y0018026D01*
X0174248Y0013074D02*
X0179461Y0013074D01*
X0190386Y0023999D01*
X0190386Y0046093D01*
X0192150Y0047857D01*
X0182248Y0047759D02*
X0182248Y0042735D01*
X0185996Y0038987D01*
X0185996Y0025672D01*
X0181799Y0021475D01*
X0177681Y0021475D01*
X0182248Y0047759D02*
X0182150Y0047857D01*
X0050236Y0016814D02*
X0050236Y0009495D01*
X0050122Y0009381D01*
X0050236Y0016814D02*
X0045693Y0021357D01*
X0038610Y0021357D01*
D34*
X0086606Y0124877D03*
M02*
